<?xml version="1.0" encoding="UTF-8"?>
<svg width="149px" height="22px" viewBox="0 0 149 22" version="1.1" xmlns="http://www.w3.org/2000/svg" xmlns:xlink="http://www.w3.org/1999/xlink">
    <!-- Generator: Sketch 54.1 (76490) - https://sketchapp.com -->
    <title>cd-socials</title>
    <desc>Created with Sketch.</desc>
    <g id="Page-1" stroke="none" stroke-width="1" fill="none" fill-rule="evenodd">
        <g id="cd-socials" fill="#218EE1" fill-rule="nonzero">
            <g id="linkedin" transform="translate(83.000000, 0.000000)">
                <path d="M20.4285714,0 L1.56651786,0 C0.702232143,0 0,0.712053571 0,1.58616071 L0,20.4138393 C0,21.2879464 0.702232143,22 1.56651786,22 L20.4285714,22 C21.2928571,22 22,21.2879464 22,20.4138393 L22,1.58616071 C22,0.712053571 21.2928571,0 20.4285714,0 Z M6.64910714,18.8571429 L3.38839286,18.8571429 L3.38839286,8.35803571 L6.65401786,8.35803571 L6.65401786,18.8571429 L6.64910714,18.8571429 Z M5.01875,6.92410714 C3.97276786,6.92410714 3.128125,6.07455357 3.128125,5.03348214 C3.128125,3.99241071 3.97276786,3.14285714 5.01875,3.14285714 C6.05982143,3.14285714 6.909375,3.99241071 6.909375,5.03348214 C6.909375,6.07946429 6.06473214,6.92410714 5.01875,6.92410714 L5.01875,6.92410714 Z M18.871875,18.8571429 L15.6111607,18.8571429 L15.6111607,13.75 C15.6111607,12.5321429 15.5866071,10.965625 13.9169643,10.965625 C12.2178571,10.965625 11.9575893,12.2915179 11.9575893,13.6616071 L11.9575893,18.8571429 L8.696875,18.8571429 L8.696875,8.35803571 L11.825,8.35803571 L11.825,9.79196429 L11.8691964,9.79196429 C12.30625,8.96696429 13.371875,8.09776786 14.9580357,8.09776786 C18.2580357,8.09776786 18.871875,10.2732143 18.871875,13.1017857 L18.871875,18.8571429 L18.871875,18.8571429 Z" id="Shape"></path>
            </g>
            <path d="M3,12 L3,22 L7.6,22 L7.6,12 L10.9,12 L11.7,8 L7.7,8 L7.7,5 C7.7,4.6 7.9,4 8.6,4 L11,4 L11,0 L6.5,0 C4.5,0 3,1.6 3,3.8 L3,8 L0,8 L0,12 L3,12 L3,12 Z" id="Shape"></path>
            <path d="M56.7,11 C56.7,14.7 53.7,17.7 50,17.7 C46.3,17.7 43.3,14.7 43.3,11 C43.3,10.6 43.3,10.4 43.4,10 L39,10 L39,18.6 C39,20.5 40.5,22 42.4,22 L57.5,22 C59.4,22 60.9,20.5 60.9,18.6 L60.9,10 L56.4,10 C56.6,10.4 56.7,10.6 56.7,11 L56.7,11 Z M57.6,0 L42.4,0 C40.5,0 39,1.5 39,3.4 L39,7 L44.6,7 C45.8,5.3 47.8,4.3 50,4.3 C52.2,4.3 54.2,5.3 55.4,7 L61,7 L61,3.4 C61,1.5 59.5,0 57.6,0 L57.6,0 Z M59.2,4.2 C59.2,4.5 58.9,4.8 58.6,4.8 L56.8,4.8 C56.5,4.8 56.2,4.5 56.2,4.2 L56.2,2.4 C56.2,2.1 56.5,1.8 56.8,1.8 L58.6,1.8 C58.9,1.8 59.2,2.1 59.2,2.4 L59.2,4.2 L59.2,4.2 Z M54.1,11 C54.1,8.7 52.3,6.9 50,6.9 C47.7,6.9 45.9,8.7 45.9,11 C45.9,13.3 47.7,15.1 50,15.1 C52.3,15.1 54.1,13.3 54.1,11 L54.1,11 Z" id="Shape"></path>
            <path d="M149,4.2 C148.2,4.6 147.3,4.8 146.4,4.9 C147.298,4.3 148,3.5 148.4,2.4 C147.5,2.9 146.599,3.3 145.5,3.5 C144.7,2.6 143.5,2.1 142.2,2.1 C139.7,2.1 137.7,4.1 137.7,6.6 C137.7,7 137.7,7.3 137.8,7.6 C134,7.4 130.7,5.6 128.5,2.9 C128.1,3.6 127.9,4.3 127.9,5.2 C127.9,6.8 128.7,8.1 129.9,9 C129.2,9 128.5,8.8 127.9,8.4 C127.9,8.4 127.9,8.4 127.9,8.5 C127.9,10.7 129.5,12.5 131.5,12.9 C131.1,13 130.7,13.099 130.3,13.099 C130,13.099 129.7,13.099 129.5,12.998 C130.1,14.798 131.7,16.099 133.7,16.099 C132.2,17.298 130.2,17.998 128.099,17.998 C127.7,17.998 127.4,17.998 126.998,17.897 C128.998,19.198 131.397,19.897 133.897,19.897 C142.198,19.897 146.698,12.998 146.698,7.098 L146.698,6.498 C147.6,5.9 148.4,5.1 149,4.2 L149,4.2 Z" id="Shape"></path>
        </g>
    </g>
</svg>