<svg width="28" height="28" viewBox="0 0 28 28" fill="none" xmlns="http://www.w3.org/2000/svg">
<path fill-rule="evenodd" clip-rule="evenodd" d="M24.0636 14.2571L24.0667 14.2545C24.2337 14.1177 24.3404 13.9102 24.3404 13.68C24.3404 13.3205 24.0871 13.021 23.7457 12.9526L23.7396 12.9512C23.7377 12.9509 23.7359 12.9505 23.7341 12.95C23.732 12.9495 23.7299 12.949 23.7276 12.9486L23.7139 12.9473C23.6778 12.9414 23.641 12.9376 23.6032 12.937L23.5049 12.9279C21.1602 12.76 18.7478 12.694 16.4848 12.6487L16.4804 12.6323C15.379 8.50063 14.003 4.27686 12.1479 4.27686C10.4193 4.28471 8.86097 7.06 7.51529 12.5271C6.56444 12.515 5.69779 12.5021 4.88061 12.4879C4.83432 12.4871 4.79265 12.4868 4.75537 12.4868C4.58125 12.4868 4.4961 12.4941 4.45378 12.4995C3.99364 12.5812 3.65967 12.9828 3.65967 13.4547C3.65967 13.936 4.01901 14.3486 4.48694 14.416L4.49646 14.4258H7.07433C6.83517 15.5197 6.62543 16.6016 6.45037 17.6437L6.37366 18.1024L6.37287 18.1244C6.37445 18.4782 6.66372 18.7661 7.01751 18.7661C7.24182 18.7661 7.44507 18.6493 7.56093 18.467L7.57953 18.4816L8.84669 14.4258H14.951C15.4175 16.188 15.9011 18.0075 16.5404 19.715L16.5405 19.7152C16.8823 20.6285 17.6827 22.7668 19.0204 22.7774L19.0354 22.7774C21.1057 22.7774 21.9127 19.4333 22.4468 17.2197L22.4477 17.2158C22.5623 16.7413 22.6612 16.3313 22.7545 16.03L22.7918 15.9053L22.7916 15.9053C22.8005 15.876 22.8053 15.845 22.8053 15.8128C22.8053 15.6356 22.6617 15.492 22.4845 15.492C22.3471 15.492 22.2302 15.5784 22.1845 15.6998L22.1837 15.6995L22.1389 15.8236C21.9631 16.3101 21.8006 16.77 21.6566 17.1775L21.6458 17.2083L21.6455 17.2092C20.7495 19.7463 20.3406 20.9043 19.5395 20.9043L19.5199 20.9043L19.5087 20.9058L19.4887 20.9053C18.4631 20.9053 17.4978 16.7373 17.1342 15.1675L17.1341 15.167C17.0712 14.8952 17.0133 14.6456 16.9602 14.4258H23.5917C23.7162 14.4258 23.8333 14.3949 23.9364 14.3408L23.9383 14.34C23.9486 14.3345 23.9587 14.3285 23.9688 14.3225C23.9799 14.3161 23.9909 14.3095 24.0016 14.3026L24.0171 14.2919C24.0331 14.2808 24.0486 14.2693 24.0636 14.2571ZM13.489 9.22342C12.9964 7.82547 12.6635 7.19953 12.4709 6.92074C12.394 6.82614 12.3067 6.77655 12.2098 6.77655C12.1297 6.77655 12.0566 6.8099 12.0095 6.83813C11.272 7.37886 10.263 9.66896 9.43584 12.6871L10.168 12.6948C11.6138 12.71 13.107 12.7259 14.5827 12.7471C14.1937 11.3647 13.826 10.1799 13.489 9.22342Z" fill="#1E2024"/>
</svg>
