<svg width="1127" height="316" viewBox="0 0 1127 316" fill="none" xmlns="http://www.w3.org/2000/svg">
<rect width="1127" height="316" fill="#F2F2F2"/>
<path d="M195.141 228.062C195.141 230.448 194.359 232.276 192.797 233.547C191.234 234.818 189.01 235.453 186.125 235.453H183.75V244H180.016V221.156H186.594C189.448 221.156 191.583 221.74 193 222.906C194.427 224.073 195.141 225.792 195.141 228.062ZM183.75 232.312H185.734C187.651 232.312 189.057 231.979 189.953 231.312C190.849 230.646 191.297 229.604 191.297 228.188C191.297 226.875 190.896 225.896 190.094 225.25C189.292 224.604 188.042 224.281 186.344 224.281H183.75V232.312ZM210.125 244L209.391 241.594H209.266C208.432 242.646 207.594 243.365 206.75 243.75C205.906 244.125 204.823 244.312 203.5 244.312C201.802 244.312 200.474 243.854 199.516 242.938C198.568 242.021 198.094 240.724 198.094 239.047C198.094 237.266 198.755 235.922 200.078 235.016C201.401 234.109 203.417 233.615 206.125 233.531L209.109 233.438V232.516C209.109 231.411 208.849 230.589 208.328 230.047C207.818 229.495 207.021 229.219 205.938 229.219C205.052 229.219 204.203 229.349 203.391 229.609C202.578 229.87 201.797 230.177 201.047 230.531L199.859 227.906C200.797 227.417 201.823 227.047 202.938 226.797C204.052 226.536 205.104 226.406 206.094 226.406C208.292 226.406 209.948 226.885 211.062 227.844C212.188 228.802 212.75 230.307 212.75 232.359V244H210.125ZM204.656 241.5C205.99 241.5 207.057 241.13 207.859 240.391C208.672 239.641 209.078 238.594 209.078 237.25V235.75L206.859 235.844C205.13 235.906 203.87 236.198 203.078 236.719C202.297 237.229 201.906 238.016 201.906 239.078C201.906 239.849 202.135 240.448 202.594 240.875C203.052 241.292 203.74 241.5 204.656 241.5ZM229.484 239.078C229.484 240.766 228.87 242.062 227.641 242.969C226.411 243.865 224.651 244.312 222.359 244.312C220.057 244.312 218.208 243.964 216.812 243.266V240.094C218.844 241.031 220.734 241.5 222.484 241.5C224.745 241.5 225.875 240.818 225.875 239.453C225.875 239.016 225.75 238.651 225.5 238.359C225.25 238.068 224.839 237.766 224.266 237.453C223.693 237.141 222.896 236.786 221.875 236.391C219.885 235.62 218.536 234.849 217.828 234.078C217.13 233.307 216.781 232.307 216.781 231.078C216.781 229.599 217.375 228.453 218.562 227.641C219.76 226.818 221.385 226.406 223.438 226.406C225.469 226.406 227.391 226.818 229.203 227.641L228.016 230.406C226.151 229.635 224.583 229.25 223.312 229.25C221.375 229.25 220.406 229.802 220.406 230.906C220.406 231.448 220.656 231.906 221.156 232.281C221.667 232.656 222.771 233.172 224.469 233.828C225.896 234.38 226.932 234.885 227.578 235.344C228.224 235.802 228.703 236.333 229.016 236.938C229.328 237.531 229.484 238.245 229.484 239.078ZM245.078 239.078C245.078 240.766 244.464 242.062 243.234 242.969C242.005 243.865 240.245 244.312 237.953 244.312C235.651 244.312 233.802 243.964 232.406 243.266V240.094C234.438 241.031 236.328 241.5 238.078 241.5C240.339 241.5 241.469 240.818 241.469 239.453C241.469 239.016 241.344 238.651 241.094 238.359C240.844 238.068 240.432 237.766 239.859 237.453C239.286 237.141 238.49 236.786 237.469 236.391C235.479 235.62 234.13 234.849 233.422 234.078C232.724 233.307 232.375 232.307 232.375 231.078C232.375 229.599 232.969 228.453 234.156 227.641C235.354 226.818 236.979 226.406 239.031 226.406C241.062 226.406 242.984 226.818 244.797 227.641L243.609 230.406C241.745 229.635 240.177 229.25 238.906 229.25C236.969 229.25 236 229.802 236 230.906C236 231.448 236.25 231.906 236.75 232.281C237.26 232.656 238.365 233.172 240.062 233.828C241.49 234.38 242.526 234.885 243.172 235.344C243.818 235.802 244.297 236.333 244.609 236.938C244.922 237.531 245.078 238.245 245.078 239.078ZM252.734 244H249.062V226.719H252.734V244ZM248.844 222.141C248.844 221.484 249.021 220.979 249.375 220.625C249.74 220.271 250.255 220.094 250.922 220.094C251.568 220.094 252.068 220.271 252.422 220.625C252.786 220.979 252.969 221.484 252.969 222.141C252.969 222.766 252.786 223.26 252.422 223.625C252.068 223.979 251.568 224.156 250.922 224.156C250.255 224.156 249.74 223.979 249.375 223.625C249.021 223.26 248.844 222.766 248.844 222.141ZM261.938 244L255.375 226.719H259.25L262.766 236.766C263.37 238.453 263.734 239.818 263.859 240.859H263.984C264.078 240.109 264.443 238.745 265.078 236.766L268.594 226.719H272.5L265.906 244H261.938ZM282.672 244.312C279.984 244.312 277.88 243.531 276.359 241.969C274.849 240.396 274.094 238.234 274.094 235.484C274.094 232.661 274.797 230.443 276.203 228.828C277.609 227.214 279.542 226.406 282 226.406C284.281 226.406 286.083 227.099 287.406 228.484C288.729 229.87 289.391 231.776 289.391 234.203V236.188H277.875C277.927 237.865 278.38 239.156 279.234 240.062C280.089 240.958 281.292 241.406 282.844 241.406C283.865 241.406 284.812 241.312 285.688 241.125C286.573 240.927 287.521 240.604 288.531 240.156V243.141C287.635 243.568 286.729 243.87 285.812 244.047C284.896 244.224 283.849 244.312 282.672 244.312ZM282 229.188C280.833 229.188 279.896 229.557 279.188 230.297C278.49 231.036 278.073 232.115 277.938 233.531H285.781C285.76 232.104 285.417 231.026 284.75 230.297C284.083 229.557 283.167 229.188 282 229.188ZM302.266 244V221.156H306V240.797H315.672V244H302.266ZM322.891 244H319.219V226.719H322.891V244ZM319 222.141C319 221.484 319.177 220.979 319.531 220.625C319.896 220.271 320.411 220.094 321.078 220.094C321.724 220.094 322.224 220.271 322.578 220.625C322.943 220.979 323.125 221.484 323.125 222.141C323.125 222.766 322.943 223.26 322.578 223.625C322.224 223.979 321.724 224.156 321.078 224.156C320.411 224.156 319.896 223.979 319.531 223.625C319.177 223.26 319 222.766 319 222.141ZM339.766 239.078C339.766 240.766 339.151 242.062 337.922 242.969C336.693 243.865 334.932 244.312 332.641 244.312C330.339 244.312 328.49 243.964 327.094 243.266V240.094C329.125 241.031 331.016 241.5 332.766 241.5C335.026 241.5 336.156 240.818 336.156 239.453C336.156 239.016 336.031 238.651 335.781 238.359C335.531 238.068 335.12 237.766 334.547 237.453C333.974 237.141 333.177 236.786 332.156 236.391C330.167 235.62 328.818 234.849 328.109 234.078C327.411 233.307 327.062 232.307 327.062 231.078C327.062 229.599 327.656 228.453 328.844 227.641C330.042 226.818 331.667 226.406 333.719 226.406C335.75 226.406 337.672 226.818 339.484 227.641L338.297 230.406C336.432 229.635 334.865 229.25 333.594 229.25C331.656 229.25 330.688 229.802 330.688 230.906C330.688 231.448 330.938 231.906 331.438 232.281C331.948 232.656 333.052 233.172 334.75 233.828C336.177 234.38 337.214 234.885 337.859 235.344C338.505 235.802 338.984 236.333 339.297 236.938C339.609 237.531 339.766 238.245 339.766 239.078ZM350.188 241.344C351.083 241.344 351.979 241.203 352.875 240.922V243.688C352.469 243.865 351.943 244.01 351.297 244.125C350.661 244.25 350 244.312 349.312 244.312C345.833 244.312 344.094 242.479 344.094 238.812V229.5H341.734V227.875L344.266 226.531L345.516 222.875H347.781V226.719H352.703V229.5H347.781V238.75C347.781 239.635 348 240.292 348.438 240.719C348.885 241.135 349.469 241.344 350.188 241.344ZM363.891 244.312C361.203 244.312 359.099 243.531 357.578 241.969C356.068 240.396 355.312 238.234 355.312 235.484C355.312 232.661 356.016 230.443 357.422 228.828C358.828 227.214 360.76 226.406 363.219 226.406C365.5 226.406 367.302 227.099 368.625 228.484C369.948 229.87 370.609 231.776 370.609 234.203V236.188H359.094C359.146 237.865 359.599 239.156 360.453 240.062C361.307 240.958 362.51 241.406 364.062 241.406C365.083 241.406 366.031 241.312 366.906 241.125C367.792 240.927 368.74 240.604 369.75 240.156V243.141C368.854 243.568 367.948 243.87 367.031 244.047C366.115 244.224 365.068 244.312 363.891 244.312ZM363.219 229.188C362.052 229.188 361.115 229.557 360.406 230.297C359.708 231.036 359.292 232.115 359.156 233.531H367C366.979 232.104 366.635 231.026 365.969 230.297C365.302 229.557 364.385 229.188 363.219 229.188ZM389.984 244H386.297V233.375C386.297 232.042 386.026 231.047 385.484 230.391C384.953 229.734 384.104 229.406 382.938 229.406C381.385 229.406 380.25 229.865 379.531 230.781C378.812 231.698 378.453 233.234 378.453 235.391V244H374.781V226.719H377.656L378.172 228.984H378.359C378.88 228.161 379.62 227.526 380.578 227.078C381.536 226.63 382.599 226.406 383.766 226.406C387.911 226.406 389.984 228.516 389.984 232.734V244ZM402.641 244.312C399.953 244.312 397.849 243.531 396.328 241.969C394.818 240.396 394.062 238.234 394.062 235.484C394.062 232.661 394.766 230.443 396.172 228.828C397.578 227.214 399.51 226.406 401.969 226.406C404.25 226.406 406.052 227.099 407.375 228.484C408.698 229.87 409.359 231.776 409.359 234.203V236.188H397.844C397.896 237.865 398.349 239.156 399.203 240.062C400.057 240.958 401.26 241.406 402.812 241.406C403.833 241.406 404.781 241.312 405.656 241.125C406.542 240.927 407.49 240.604 408.5 240.156V243.141C407.604 243.568 406.698 243.87 405.781 244.047C404.865 244.224 403.818 244.312 402.641 244.312ZM401.969 229.188C400.802 229.188 399.865 229.557 399.156 230.297C398.458 231.036 398.042 232.115 397.906 233.531H405.75C405.729 232.104 405.385 231.026 404.719 230.297C404.052 229.557 403.135 229.188 401.969 229.188ZM422.297 226.406C423.036 226.406 423.646 226.458 424.125 226.562L423.766 229.984C423.245 229.859 422.703 229.797 422.141 229.797C420.672 229.797 419.479 230.276 418.562 231.234C417.656 232.193 417.203 233.438 417.203 234.969V244H413.531V226.719H416.406L416.891 229.766H417.078C417.651 228.734 418.396 227.917 419.312 227.312C420.24 226.708 421.234 226.406 422.297 226.406ZM438.953 239.078C438.953 240.766 438.339 242.062 437.109 242.969C435.88 243.865 434.12 244.312 431.828 244.312C429.526 244.312 427.677 243.964 426.281 243.266V240.094C428.312 241.031 430.203 241.5 431.953 241.5C434.214 241.5 435.344 240.818 435.344 239.453C435.344 239.016 435.219 238.651 434.969 238.359C434.719 238.068 434.307 237.766 433.734 237.453C433.161 237.141 432.365 236.786 431.344 236.391C429.354 235.62 428.005 234.849 427.297 234.078C426.599 233.307 426.25 232.307 426.25 231.078C426.25 229.599 426.844 228.453 428.031 227.641C429.229 226.818 430.854 226.406 432.906 226.406C434.938 226.406 436.859 226.818 438.672 227.641L437.484 230.406C435.62 229.635 434.052 229.25 432.781 229.25C430.844 229.25 429.875 229.802 429.875 230.906C429.875 231.448 430.125 231.906 430.625 232.281C431.135 232.656 432.24 233.172 433.938 233.828C435.365 234.38 436.401 234.885 437.047 235.344C437.693 235.802 438.172 236.333 438.484 236.938C438.797 237.531 438.953 238.245 438.953 239.078ZM454.398 232.668H451.129V244H449.184V232.668H446.887V231.789L449.184 231.086V230.371C449.184 227.215 450.562 225.637 453.32 225.637C454 225.637 454.797 225.773 455.711 226.047L455.207 227.605C454.457 227.363 453.816 227.242 453.285 227.242C452.551 227.242 452.008 227.488 451.656 227.98C451.305 228.465 451.129 229.246 451.129 230.324V231.156H454.398V232.668ZM462.168 244.234C460.27 244.234 458.77 243.656 457.668 242.5C456.574 241.344 456.027 239.738 456.027 237.684C456.027 235.613 456.535 233.969 457.551 232.75C458.574 231.531 459.945 230.922 461.664 230.922C463.273 230.922 464.547 231.453 465.484 232.516C466.422 233.57 466.891 234.965 466.891 236.699V237.93H458.043C458.082 239.438 458.461 240.582 459.18 241.363C459.906 242.145 460.926 242.535 462.238 242.535C463.621 242.535 464.988 242.246 466.34 241.668V243.402C465.652 243.699 465 243.91 464.383 244.035C463.773 244.168 463.035 244.234 462.168 244.234ZM461.641 232.551C460.609 232.551 459.785 232.887 459.168 233.559C458.559 234.23 458.199 235.16 458.09 236.348H464.805C464.805 235.121 464.531 234.184 463.984 233.535C463.438 232.879 462.656 232.551 461.641 232.551ZM475.645 244.234C473.746 244.234 472.246 243.656 471.145 242.5C470.051 241.344 469.504 239.738 469.504 237.684C469.504 235.613 470.012 233.969 471.027 232.75C472.051 231.531 473.422 230.922 475.141 230.922C476.75 230.922 478.023 231.453 478.961 232.516C479.898 233.57 480.367 234.965 480.367 236.699V237.93H471.52C471.559 239.438 471.938 240.582 472.656 241.363C473.383 242.145 474.402 242.535 475.715 242.535C477.098 242.535 478.465 242.246 479.816 241.668V243.402C479.129 243.699 478.477 243.91 477.859 244.035C477.25 244.168 476.512 244.234 475.645 244.234ZM475.117 232.551C474.086 232.551 473.262 232.887 472.645 233.559C472.035 234.23 471.676 235.16 471.566 236.348H478.281C478.281 235.121 478.008 234.184 477.461 233.535C476.914 232.879 476.133 232.551 475.117 232.551ZM485.641 244H483.695V225.766H485.641V244ZM506.852 231.039V232.551L504.637 232.961C504.84 233.234 505.008 233.57 505.141 233.969C505.273 234.367 505.34 234.789 505.34 235.234C505.34 236.57 504.879 237.621 503.957 238.387C503.035 239.152 501.766 239.535 500.148 239.535C499.734 239.535 499.359 239.504 499.023 239.441C498.43 239.809 498.133 240.238 498.133 240.73C498.133 241.027 498.27 241.25 498.543 241.398C498.824 241.547 499.336 241.621 500.078 241.621H502.34C503.77 241.621 504.855 241.926 505.598 242.535C506.34 243.145 506.711 244.023 506.711 245.172C506.711 246.641 506.105 247.773 504.895 248.57C503.684 249.367 501.934 249.766 499.645 249.766C497.879 249.766 496.531 249.453 495.602 248.828C494.672 248.203 494.207 247.312 494.207 246.156C494.207 245.359 494.457 244.688 494.957 244.141C495.465 243.602 496.172 243.227 497.078 243.016C496.711 242.859 496.406 242.609 496.164 242.266C495.93 241.914 495.812 241.547 495.812 241.164C495.812 240.68 495.949 240.27 496.223 239.934C496.496 239.598 496.902 239.266 497.441 238.938C496.77 238.648 496.223 238.18 495.801 237.531C495.387 236.875 495.18 236.109 495.18 235.234C495.18 233.828 495.621 232.738 496.504 231.965C497.395 231.191 498.66 230.805 500.301 230.805C500.668 230.805 501.051 230.832 501.449 230.887C501.855 230.934 502.16 230.984 502.363 231.039H506.852ZM496.668 246.016C496.668 246.609 496.934 247.066 497.465 247.387C498.004 247.707 498.758 247.867 499.727 247.867C501.227 247.867 502.344 247.652 503.078 247.223C503.812 246.793 504.18 246.223 504.18 245.512C504.18 244.949 503.977 244.547 503.57 244.305C503.172 244.07 502.426 243.953 501.332 243.953H499.246C498.457 243.953 497.828 244.137 497.359 244.504C496.898 244.879 496.668 245.383 496.668 246.016ZM497.852 235.234C497.852 236.047 498.059 236.672 498.473 237.109C498.895 237.547 499.496 237.766 500.277 237.766C501.871 237.766 502.668 236.914 502.668 235.211C502.668 234.367 502.469 233.719 502.07 233.266C501.68 232.805 501.082 232.574 500.277 232.574C499.48 232.574 498.875 232.801 498.461 233.254C498.055 233.707 497.852 234.367 497.852 235.234ZM515.84 230.805C516.395 230.805 516.852 230.844 517.211 230.922L516.941 233.488C516.551 233.395 516.145 233.348 515.723 233.348C514.621 233.348 513.727 233.707 513.039 234.426C512.359 235.145 512.02 236.078 512.02 237.227V244H509.266V231.039H511.422L511.785 233.324H511.926C512.355 232.551 512.914 231.938 513.602 231.484C514.297 231.031 515.043 230.805 515.84 230.805ZM531.121 237.496C531.121 239.613 530.578 241.266 529.492 242.453C528.406 243.641 526.895 244.234 524.957 244.234C523.746 244.234 522.676 243.961 521.746 243.414C520.816 242.867 520.102 242.082 519.602 241.059C519.102 240.035 518.852 238.848 518.852 237.496C518.852 235.395 519.391 233.754 520.469 232.574C521.547 231.395 523.066 230.805 525.027 230.805C526.902 230.805 528.387 231.41 529.48 232.621C530.574 233.824 531.121 235.449 531.121 237.496ZM521.688 237.496C521.688 240.488 522.793 241.984 525.004 241.984C527.191 241.984 528.285 240.488 528.285 237.496C528.285 234.535 527.184 233.055 524.98 233.055C523.824 233.055 522.984 233.438 522.461 234.203C521.945 234.969 521.688 236.066 521.688 237.496ZM544.926 244L543.25 237.953C543.047 237.312 542.68 235.824 542.148 233.488H542.043C541.59 235.598 541.23 237.094 540.965 237.977L539.242 244H536.195L532.562 231.039H535.375L537.027 237.426C537.402 239.004 537.668 240.355 537.824 241.48H537.895C537.973 240.91 538.09 240.258 538.246 239.523C538.41 238.781 538.551 238.227 538.668 237.859L540.637 231.039H543.66L545.57 237.859C545.688 238.242 545.832 238.828 546.004 239.617C546.184 240.406 546.289 241.02 546.32 241.457H546.414C546.531 240.496 546.805 239.152 547.234 237.426L548.91 231.039H551.676L548.02 244H544.926ZM558.742 242.008C559.414 242.008 560.086 241.902 560.758 241.691V243.766C560.453 243.898 560.059 244.008 559.574 244.094C559.098 244.188 558.602 244.234 558.086 244.234C555.477 244.234 554.172 242.859 554.172 240.109V233.125H552.402V231.906L554.301 230.898L555.238 228.156H556.938V231.039H560.629V233.125H556.938V240.062C556.938 240.727 557.102 241.219 557.43 241.539C557.766 241.852 558.203 242.008 558.742 242.008ZM574.762 244H571.996V236.031C571.996 235.031 571.793 234.285 571.387 233.793C570.988 233.301 570.352 233.055 569.477 233.055C568.32 233.055 567.469 233.402 566.922 234.098C566.383 234.785 566.113 235.941 566.113 237.566V244H563.359V225.766H566.113V230.395C566.113 231.137 566.066 231.93 565.973 232.773H566.148C566.523 232.148 567.043 231.664 567.707 231.32C568.379 230.977 569.16 230.805 570.051 230.805C573.191 230.805 574.762 232.387 574.762 235.551V244ZM595.41 244L593.055 236.465C592.906 236.004 592.629 234.957 592.223 233.324H592.129C591.816 234.691 591.543 235.746 591.309 236.488L588.883 244H586.633L583.129 231.156H585.168C585.996 234.383 586.625 236.84 587.055 238.527C587.492 240.215 587.742 241.352 587.805 241.938H587.898C587.984 241.492 588.121 240.918 588.309 240.215C588.504 239.504 588.672 238.941 588.812 238.527L591.168 231.156H593.277L595.574 238.527C596.012 239.871 596.309 241 596.465 241.914H596.559C596.59 241.633 596.672 241.199 596.805 240.613C596.945 240.027 597.762 236.875 599.254 231.156H601.27L597.719 244H595.41ZM612.391 244V235.691C612.391 234.645 612.152 233.863 611.676 233.348C611.199 232.832 610.453 232.574 609.438 232.574C608.086 232.574 607.098 232.941 606.473 233.676C605.855 234.41 605.547 235.613 605.547 237.285V244H603.602V225.766H605.547V231.285C605.547 231.949 605.516 232.5 605.453 232.938H605.57C605.953 232.32 606.496 231.836 607.199 231.484C607.91 231.125 608.719 230.945 609.625 230.945C611.195 230.945 612.371 231.32 613.152 232.07C613.941 232.812 614.336 233.996 614.336 235.621V244H612.391ZM623.77 244.234C621.871 244.234 620.371 243.656 619.27 242.5C618.176 241.344 617.629 239.738 617.629 237.684C617.629 235.613 618.137 233.969 619.152 232.75C620.176 231.531 621.547 230.922 623.266 230.922C624.875 230.922 626.148 231.453 627.086 232.516C628.023 233.57 628.492 234.965 628.492 236.699V237.93H619.645C619.684 239.438 620.062 240.582 620.781 241.363C621.508 242.145 622.527 242.535 623.84 242.535C625.223 242.535 626.59 242.246 627.941 241.668V243.402C627.254 243.699 626.602 243.91 625.984 244.035C625.375 244.168 624.637 244.234 623.77 244.234ZM623.242 232.551C622.211 232.551 621.387 232.887 620.77 233.559C620.16 234.23 619.801 235.16 619.691 236.348H626.406C626.406 235.121 626.133 234.184 625.586 233.535C625.039 232.879 624.258 232.551 623.242 232.551ZM640.609 244V235.691C640.609 234.645 640.371 233.863 639.895 233.348C639.418 232.832 638.672 232.574 637.656 232.574C636.312 232.574 635.328 232.938 634.703 233.664C634.078 234.391 633.766 235.59 633.766 237.262V244H631.82V231.156H633.402L633.719 232.914H633.812C634.211 232.281 634.77 231.793 635.488 231.449C636.207 231.098 637.008 230.922 637.891 230.922C639.438 230.922 640.602 231.297 641.383 232.047C642.164 232.789 642.555 233.98 642.555 235.621V244H640.609ZM655.457 244H652.703V225.766H655.457V244ZM662.16 244H659.406V231.039H662.16V244ZM659.242 227.605C659.242 227.113 659.375 226.734 659.641 226.469C659.914 226.203 660.301 226.07 660.801 226.07C661.285 226.07 661.66 226.203 661.926 226.469C662.199 226.734 662.336 227.113 662.336 227.605C662.336 228.074 662.199 228.445 661.926 228.719C661.66 228.984 661.285 229.117 660.801 229.117C660.301 229.117 659.914 228.984 659.641 228.719C659.375 228.445 659.242 228.074 659.242 227.605ZM674.816 240.309C674.816 241.574 674.355 242.547 673.434 243.227C672.512 243.898 671.191 244.234 669.473 244.234C667.746 244.234 666.359 243.973 665.312 243.449V241.07C666.836 241.773 668.254 242.125 669.566 242.125C671.262 242.125 672.109 241.613 672.109 240.59C672.109 240.262 672.016 239.988 671.828 239.77C671.641 239.551 671.332 239.324 670.902 239.09C670.473 238.855 669.875 238.59 669.109 238.293C667.617 237.715 666.605 237.137 666.074 236.559C665.551 235.98 665.289 235.23 665.289 234.309C665.289 233.199 665.734 232.34 666.625 231.73C667.523 231.113 668.742 230.805 670.281 230.805C671.805 230.805 673.246 231.113 674.605 231.73L673.715 233.805C672.316 233.227 671.141 232.938 670.188 232.938C668.734 232.938 668.008 233.352 668.008 234.18C668.008 234.586 668.195 234.93 668.57 235.211C668.953 235.492 669.781 235.879 671.055 236.371C672.125 236.785 672.902 237.164 673.387 237.508C673.871 237.852 674.23 238.25 674.465 238.703C674.699 239.148 674.816 239.684 674.816 240.309ZM682.633 242.008C683.305 242.008 683.977 241.902 684.648 241.691V243.766C684.344 243.898 683.949 244.008 683.465 244.094C682.988 244.188 682.492 244.234 681.977 244.234C679.367 244.234 678.062 242.859 678.062 240.109V233.125H676.293V231.906L678.191 230.898L679.129 228.156H680.828V231.039H684.52V233.125H680.828V240.062C680.828 240.727 680.992 241.219 681.32 241.539C681.656 241.852 682.094 242.008 682.633 242.008ZM692.91 244.234C690.895 244.234 689.316 243.648 688.176 242.477C687.043 241.297 686.477 239.676 686.477 237.613C686.477 235.496 687.004 233.832 688.059 232.621C689.113 231.41 690.562 230.805 692.406 230.805C694.117 230.805 695.469 231.324 696.461 232.363C697.453 233.402 697.949 234.832 697.949 236.652V238.141H689.312C689.352 239.398 689.691 240.367 690.332 241.047C690.973 241.719 691.875 242.055 693.039 242.055C693.805 242.055 694.516 241.984 695.172 241.844C695.836 241.695 696.547 241.453 697.305 241.117V243.355C696.633 243.676 695.953 243.902 695.266 244.035C694.578 244.168 693.793 244.234 692.91 244.234ZM692.406 232.891C691.531 232.891 690.828 233.168 690.297 233.723C689.773 234.277 689.461 235.086 689.359 236.148H695.242C695.227 235.078 694.969 234.27 694.469 233.723C693.969 233.168 693.281 232.891 692.406 232.891ZM712.48 244H709.715V236.031C709.715 235.031 709.512 234.285 709.105 233.793C708.707 233.301 708.07 233.055 707.195 233.055C706.031 233.055 705.18 233.398 704.641 234.086C704.102 234.773 703.832 235.926 703.832 237.543V244H701.078V231.039H703.234L703.621 232.738H703.762C704.152 232.121 704.707 231.645 705.426 231.309C706.145 230.973 706.941 230.805 707.816 230.805C710.926 230.805 712.48 232.387 712.48 235.551V244ZM719.066 244H716.312V231.039H719.066V244ZM716.148 227.605C716.148 227.113 716.281 226.734 716.547 226.469C716.82 226.203 717.207 226.07 717.707 226.07C718.191 226.07 718.566 226.203 718.832 226.469C719.105 226.734 719.242 227.113 719.242 227.605C719.242 228.074 719.105 228.445 718.832 228.719C718.566 228.984 718.191 229.117 717.707 229.117C717.207 229.117 716.82 228.984 716.547 228.719C716.281 228.445 716.148 228.074 716.148 227.605ZM734.418 244H731.652V236.031C731.652 235.031 731.449 234.285 731.043 233.793C730.645 233.301 730.008 233.055 729.133 233.055C727.969 233.055 727.117 233.398 726.578 234.086C726.039 234.773 725.77 235.926 725.77 237.543V244H723.016V231.039H725.172L725.559 232.738H725.699C726.09 232.121 726.645 231.645 727.363 231.309C728.082 230.973 728.879 230.805 729.754 230.805C732.863 230.805 734.418 232.387 734.418 235.551V244ZM749.195 231.039V232.551L746.98 232.961C747.184 233.234 747.352 233.57 747.484 233.969C747.617 234.367 747.684 234.789 747.684 235.234C747.684 236.57 747.223 237.621 746.301 238.387C745.379 239.152 744.109 239.535 742.492 239.535C742.078 239.535 741.703 239.504 741.367 239.441C740.773 239.809 740.477 240.238 740.477 240.73C740.477 241.027 740.613 241.25 740.887 241.398C741.168 241.547 741.68 241.621 742.422 241.621H744.684C746.113 241.621 747.199 241.926 747.941 242.535C748.684 243.145 749.055 244.023 749.055 245.172C749.055 246.641 748.449 247.773 747.238 248.57C746.027 249.367 744.277 249.766 741.988 249.766C740.223 249.766 738.875 249.453 737.945 248.828C737.016 248.203 736.551 247.312 736.551 246.156C736.551 245.359 736.801 244.688 737.301 244.141C737.809 243.602 738.516 243.227 739.422 243.016C739.055 242.859 738.75 242.609 738.508 242.266C738.273 241.914 738.156 241.547 738.156 241.164C738.156 240.68 738.293 240.27 738.566 239.934C738.84 239.598 739.246 239.266 739.785 238.938C739.113 238.648 738.566 238.18 738.145 237.531C737.73 236.875 737.523 236.109 737.523 235.234C737.523 233.828 737.965 232.738 738.848 231.965C739.738 231.191 741.004 230.805 742.645 230.805C743.012 230.805 743.395 230.832 743.793 230.887C744.199 230.934 744.504 230.984 744.707 231.039H749.195ZM739.012 246.016C739.012 246.609 739.277 247.066 739.809 247.387C740.348 247.707 741.102 247.867 742.07 247.867C743.57 247.867 744.688 247.652 745.422 247.223C746.156 246.793 746.523 246.223 746.523 245.512C746.523 244.949 746.32 244.547 745.914 244.305C745.516 244.07 744.77 243.953 743.676 243.953H741.59C740.801 243.953 740.172 244.137 739.703 244.504C739.242 244.879 739.012 245.383 739.012 246.016ZM740.195 235.234C740.195 236.047 740.402 236.672 740.816 237.109C741.238 237.547 741.84 237.766 742.621 237.766C744.215 237.766 745.012 236.914 745.012 235.211C745.012 234.367 744.812 233.719 744.414 233.266C744.023 232.805 743.426 232.574 742.621 232.574C741.824 232.574 741.219 232.801 740.805 233.254C740.398 233.707 740.195 234.367 740.195 235.234ZM762.672 242.008C763.344 242.008 764.016 241.902 764.688 241.691V243.766C764.383 243.898 763.988 244.008 763.504 244.094C763.027 244.188 762.531 244.234 762.016 244.234C759.406 244.234 758.102 242.859 758.102 240.109V233.125H756.332V231.906L758.23 230.898L759.168 228.156H760.867V231.039H764.559V233.125H760.867V240.062C760.867 240.727 761.031 241.219 761.359 241.539C761.695 241.852 762.133 242.008 762.672 242.008ZM778.785 237.496C778.785 239.613 778.242 241.266 777.156 242.453C776.07 243.641 774.559 244.234 772.621 244.234C771.41 244.234 770.34 243.961 769.41 243.414C768.48 242.867 767.766 242.082 767.266 241.059C766.766 240.035 766.516 238.848 766.516 237.496C766.516 235.395 767.055 233.754 768.133 232.574C769.211 231.395 770.73 230.805 772.691 230.805C774.566 230.805 776.051 231.41 777.145 232.621C778.238 233.824 778.785 235.449 778.785 237.496ZM769.352 237.496C769.352 240.488 770.457 241.984 772.668 241.984C774.855 241.984 775.949 240.488 775.949 237.496C775.949 234.535 774.848 233.055 772.645 233.055C771.488 233.055 770.648 233.438 770.125 234.203C769.609 234.969 769.352 236.066 769.352 237.496ZM793.422 244.234C791.461 244.234 789.969 243.664 788.945 242.523C787.93 241.375 787.422 239.73 787.422 237.59C787.422 235.41 787.953 233.734 789.016 232.562C790.086 231.391 791.629 230.805 793.645 230.805C795.012 230.805 796.242 231.059 797.336 231.566L796.504 233.781C795.34 233.328 794.379 233.102 793.621 233.102C791.379 233.102 790.258 234.59 790.258 237.566C790.258 239.02 790.535 240.113 791.09 240.848C791.652 241.574 792.473 241.938 793.551 241.938C794.777 241.938 795.938 241.633 797.031 241.023V243.426C796.539 243.715 796.012 243.922 795.449 244.047C794.895 244.172 794.219 244.234 793.422 244.234ZM808.188 244L807.637 242.195H807.543C806.918 242.984 806.289 243.523 805.656 243.812C805.023 244.094 804.211 244.234 803.219 244.234C801.945 244.234 800.949 243.891 800.23 243.203C799.52 242.516 799.164 241.543 799.164 240.285C799.164 238.949 799.66 237.941 800.652 237.262C801.645 236.582 803.156 236.211 805.188 236.148L807.426 236.078V235.387C807.426 234.559 807.23 233.941 806.84 233.535C806.457 233.121 805.859 232.914 805.047 232.914C804.383 232.914 803.746 233.012 803.137 233.207C802.527 233.402 801.941 233.633 801.379 233.898L800.488 231.93C801.191 231.562 801.961 231.285 802.797 231.098C803.633 230.902 804.422 230.805 805.164 230.805C806.812 230.805 808.055 231.164 808.891 231.883C809.734 232.602 810.156 233.73 810.156 235.27V244H808.188ZM804.086 242.125C805.086 242.125 805.887 241.848 806.488 241.293C807.098 240.73 807.402 239.945 807.402 238.938V237.812L805.738 237.883C804.441 237.93 803.496 238.148 802.902 238.539C802.316 238.922 802.023 239.512 802.023 240.309C802.023 240.887 802.195 241.336 802.539 241.656C802.883 241.969 803.398 242.125 804.086 242.125ZM816.754 244H814V225.766H816.754V244ZM823.457 244H820.703V225.766H823.457V244ZM836.113 240.309C836.113 241.574 835.652 242.547 834.73 243.227C833.809 243.898 832.488 244.234 830.77 244.234C829.043 244.234 827.656 243.973 826.609 243.449V241.07C828.133 241.773 829.551 242.125 830.863 242.125C832.559 242.125 833.406 241.613 833.406 240.59C833.406 240.262 833.312 239.988 833.125 239.77C832.938 239.551 832.629 239.324 832.199 239.09C831.77 238.855 831.172 238.59 830.406 238.293C828.914 237.715 827.902 237.137 827.371 236.559C826.848 235.98 826.586 235.23 826.586 234.309C826.586 233.199 827.031 232.34 827.922 231.73C828.82 231.113 830.039 230.805 831.578 230.805C833.102 230.805 834.543 231.113 835.902 231.73L835.012 233.805C833.613 233.227 832.438 232.938 831.484 232.938C830.031 232.938 829.305 233.352 829.305 234.18C829.305 234.586 829.492 234.93 829.867 235.211C830.25 235.492 831.078 235.879 832.352 236.371C833.422 236.785 834.199 237.164 834.684 237.508C835.168 237.852 835.527 238.25 835.762 238.703C835.996 239.148 836.113 239.684 836.113 240.309ZM856.516 237.566C856.516 239.66 855.988 241.297 854.934 242.477C853.879 243.648 852.422 244.234 850.562 244.234C849.414 244.234 848.395 243.965 847.504 243.426C846.613 242.887 845.926 242.113 845.441 241.105C844.957 240.098 844.715 238.918 844.715 237.566C844.715 235.473 845.238 233.844 846.285 232.68C847.332 231.508 848.785 230.922 850.645 230.922C852.441 230.922 853.867 231.52 854.922 232.715C855.984 233.91 856.516 235.527 856.516 237.566ZM846.73 237.566C846.73 239.207 847.059 240.457 847.715 241.316C848.371 242.176 849.336 242.605 850.609 242.605C851.883 242.605 852.848 242.18 853.504 241.328C854.168 240.469 854.5 239.215 854.5 237.566C854.5 235.934 854.168 234.695 853.504 233.852C852.848 233 851.875 232.574 850.586 232.574C849.312 232.574 848.352 232.992 847.703 233.828C847.055 234.664 846.73 235.91 846.73 237.566ZM868.727 244V235.691C868.727 234.645 868.488 233.863 868.012 233.348C867.535 232.832 866.789 232.574 865.773 232.574C864.43 232.574 863.445 232.938 862.82 233.664C862.195 234.391 861.883 235.59 861.883 237.262V244H859.938V231.156H861.52L861.836 232.914H861.93C862.328 232.281 862.887 231.793 863.605 231.449C864.324 231.098 865.125 230.922 866.008 230.922C867.555 230.922 868.719 231.297 869.5 232.047C870.281 232.789 870.672 233.98 870.672 235.621V244H868.727ZM885.062 242.629C885.406 242.629 885.738 242.605 886.059 242.559C886.379 242.504 886.633 242.449 886.82 242.395V243.883C886.609 243.984 886.297 244.066 885.883 244.129C885.477 244.199 885.109 244.234 884.781 244.234C882.297 244.234 881.055 242.926 881.055 240.309V232.668H879.215V231.73L881.055 230.922L881.875 228.18H883V231.156H886.727V232.668H883V240.227C883 241 883.184 241.594 883.551 242.008C883.918 242.422 884.422 242.629 885.062 242.629ZM898.188 244V235.691C898.188 234.645 897.949 233.863 897.473 233.348C896.996 232.832 896.25 232.574 895.234 232.574C893.883 232.574 892.895 232.941 892.27 233.676C891.652 234.41 891.344 235.613 891.344 237.285V244H889.398V225.766H891.344V231.285C891.344 231.949 891.312 232.5 891.25 232.938H891.367C891.75 232.32 892.293 231.836 892.996 231.484C893.707 231.125 894.516 230.945 895.422 230.945C896.992 230.945 898.168 231.32 898.949 232.07C899.738 232.812 900.133 233.996 900.133 235.621V244H898.188ZM909.566 244.234C907.668 244.234 906.168 243.656 905.066 242.5C903.973 241.344 903.426 239.738 903.426 237.684C903.426 235.613 903.934 233.969 904.949 232.75C905.973 231.531 907.344 230.922 909.062 230.922C910.672 230.922 911.945 231.453 912.883 232.516C913.82 233.57 914.289 234.965 914.289 236.699V237.93H905.441C905.48 239.438 905.859 240.582 906.578 241.363C907.305 242.145 908.324 242.535 909.637 242.535C911.02 242.535 912.387 242.246 913.738 241.668V243.402C913.051 243.699 912.398 243.91 911.781 244.035C911.172 244.168 910.434 244.234 909.566 244.234ZM909.039 232.551C908.008 232.551 907.184 232.887 906.566 233.559C905.957 234.23 905.598 235.16 905.488 236.348H912.203C912.203 235.121 911.93 234.184 911.383 233.535C910.836 232.879 910.055 232.551 909.039 232.551ZM940.223 244V235.645C940.223 234.621 940.004 233.855 939.566 233.348C939.129 232.832 938.449 232.574 937.527 232.574C936.316 232.574 935.422 232.922 934.844 233.617C934.266 234.312 933.977 235.383 933.977 236.828V244H932.031V235.645C932.031 234.621 931.812 233.855 931.375 233.348C930.938 232.832 930.254 232.574 929.324 232.574C928.105 232.574 927.211 232.941 926.641 233.676C926.078 234.402 925.797 235.598 925.797 237.262V244H923.852V231.156H925.434L925.75 232.914H925.844C926.211 232.289 926.727 231.801 927.391 231.449C928.062 231.098 928.812 230.922 929.641 230.922C931.648 230.922 932.961 231.648 933.578 233.102H933.672C934.055 232.43 934.609 231.898 935.336 231.508C936.062 231.117 936.891 230.922 937.82 230.922C939.273 230.922 940.359 231.297 941.078 232.047C941.805 232.789 942.168 233.98 942.168 235.621V244H940.223ZM957.273 237.566C957.273 239.66 956.746 241.297 955.691 242.477C954.637 243.648 953.18 244.234 951.32 244.234C950.172 244.234 949.152 243.965 948.262 243.426C947.371 242.887 946.684 242.113 946.199 241.105C945.715 240.098 945.473 238.918 945.473 237.566C945.473 235.473 945.996 233.844 947.043 232.68C948.09 231.508 949.543 230.922 951.402 230.922C953.199 230.922 954.625 231.52 955.68 232.715C956.742 233.91 957.273 235.527 957.273 237.566ZM947.488 237.566C947.488 239.207 947.816 240.457 948.473 241.316C949.129 242.176 950.094 242.605 951.367 242.605C952.641 242.605 953.605 242.18 954.262 241.328C954.926 240.469 955.258 239.215 955.258 237.566C955.258 235.934 954.926 234.695 954.262 233.852C953.605 233 952.633 232.574 951.344 232.574C950.07 232.574 949.109 232.992 948.461 233.828C947.812 234.664 947.488 235.91 947.488 237.566ZM966.672 230.945C968.359 230.945 969.668 231.523 970.598 232.68C971.535 233.828 972.004 235.457 972.004 237.566C972.004 239.676 971.531 241.316 970.586 242.488C969.648 243.652 968.344 244.234 966.672 244.234C965.836 244.234 965.07 244.082 964.375 243.777C963.688 243.465 963.109 242.988 962.641 242.348H962.5L962.09 244H960.695V225.766H962.641V230.195C962.641 231.188 962.609 232.078 962.547 232.867H962.641C963.547 231.586 964.891 230.945 966.672 230.945ZM966.391 232.574C965.062 232.574 964.105 232.957 963.52 233.723C962.934 234.48 962.641 235.762 962.641 237.566C962.641 239.371 962.941 240.664 963.543 241.445C964.145 242.219 965.109 242.605 966.438 242.605C967.633 242.605 968.523 242.172 969.109 241.305C969.695 240.43 969.988 239.176 969.988 237.543C969.988 235.871 969.695 234.625 969.109 233.805C968.523 232.984 967.617 232.574 966.391 232.574ZM977.359 244H975.414V231.156H977.359V244ZM975.25 227.676C975.25 227.23 975.359 226.906 975.578 226.703C975.797 226.492 976.07 226.387 976.398 226.387C976.711 226.387 976.98 226.492 977.207 226.703C977.434 226.914 977.547 227.238 977.547 227.676C977.547 228.113 977.434 228.441 977.207 228.66C976.98 228.871 976.711 228.977 976.398 228.977C976.07 228.977 975.797 228.871 975.578 228.66C975.359 228.441 975.25 228.113 975.25 227.676ZM983.43 244H981.484V225.766H983.43V244ZM992.98 244.234C991.082 244.234 989.582 243.656 988.48 242.5C987.387 241.344 986.84 239.738 986.84 237.684C986.84 235.613 987.348 233.969 988.363 232.75C989.387 231.531 990.758 230.922 992.477 230.922C994.086 230.922 995.359 231.453 996.297 232.516C997.234 233.57 997.703 234.965 997.703 236.699V237.93H988.855C988.895 239.438 989.273 240.582 989.992 241.363C990.719 242.145 991.738 242.535 993.051 242.535C994.434 242.535 995.801 242.246 997.152 241.668V243.402C996.465 243.699 995.812 243.91 995.195 244.035C994.586 244.168 993.848 244.234 992.98 244.234ZM992.453 232.551C991.422 232.551 990.598 232.887 989.98 233.559C989.371 234.23 989.012 235.16 988.902 236.348H995.617C995.617 235.121 995.344 234.184 994.797 233.535C994.25 232.879 993.469 232.551 992.453 232.551ZM1015.16 244L1014.78 242.172H1014.68C1014.04 242.977 1013.4 243.523 1012.76 243.812C1012.13 244.094 1011.34 244.234 1010.38 244.234C1009.11 244.234 1008.11 243.906 1007.38 243.25C1006.66 242.594 1006.3 241.66 1006.3 240.449C1006.3 237.855 1008.38 236.496 1012.53 236.371L1014.71 236.301V235.504C1014.71 234.496 1014.49 233.754 1014.05 233.277C1013.62 232.793 1012.93 232.551 1011.98 232.551C1010.91 232.551 1009.7 232.879 1008.34 233.535L1007.75 232.047C1008.38 231.703 1009.07 231.434 1009.82 231.238C1010.58 231.043 1011.34 230.945 1012.09 230.945C1013.62 230.945 1014.76 231.285 1015.49 231.965C1016.23 232.645 1016.61 233.734 1016.61 235.234V244H1015.16ZM1010.77 242.629C1011.98 242.629 1012.93 242.297 1013.62 241.633C1014.31 240.969 1014.66 240.039 1014.66 238.844V237.684L1012.71 237.766C1011.17 237.82 1010.05 238.062 1009.36 238.492C1008.68 238.914 1008.34 239.574 1008.34 240.473C1008.34 241.176 1008.55 241.711 1008.98 242.078C1009.41 242.445 1010 242.629 1010.77 242.629ZM1026.6 244.234C1025.77 244.234 1025 244.082 1024.3 243.777C1023.62 243.465 1023.04 242.988 1022.57 242.348H1022.43C1022.52 243.098 1022.57 243.809 1022.57 244.48V249.766H1020.62V231.156H1022.21L1022.48 232.914H1022.57C1023.07 232.211 1023.65 231.703 1024.32 231.391C1024.98 231.078 1025.74 230.922 1026.6 230.922C1028.3 230.922 1029.62 231.504 1030.54 232.668C1031.47 233.832 1031.93 235.465 1031.93 237.566C1031.93 239.676 1031.46 241.316 1030.52 242.488C1029.58 243.652 1028.27 244.234 1026.6 244.234ZM1026.32 232.574C1025.01 232.574 1024.06 232.938 1023.47 233.664C1022.89 234.391 1022.59 235.547 1022.57 237.133V237.566C1022.57 239.371 1022.87 240.664 1023.47 241.445C1024.07 242.219 1025.04 242.605 1026.37 242.605C1027.48 242.605 1028.34 242.156 1028.97 241.258C1029.6 240.359 1029.92 239.121 1029.92 237.543C1029.92 235.941 1029.6 234.715 1028.97 233.863C1028.34 233.004 1027.46 232.574 1026.32 232.574ZM1041.32 244.234C1040.48 244.234 1039.72 244.082 1039.02 243.777C1038.34 243.465 1037.76 242.988 1037.29 242.348H1037.15C1037.24 243.098 1037.29 243.809 1037.29 244.48V249.766H1035.34V231.156H1036.93L1037.2 232.914H1037.29C1037.79 232.211 1038.37 231.703 1039.04 231.391C1039.7 231.078 1040.46 230.922 1041.32 230.922C1043.02 230.922 1044.34 231.504 1045.26 232.668C1046.19 233.832 1046.65 235.465 1046.65 237.566C1046.65 239.676 1046.18 241.316 1045.23 242.488C1044.3 243.652 1042.99 244.234 1041.32 244.234ZM1041.04 232.574C1039.73 232.574 1038.78 232.938 1038.19 233.664C1037.61 234.391 1037.3 235.547 1037.29 237.133V237.566C1037.29 239.371 1037.59 240.664 1038.19 241.445C1038.79 242.219 1039.76 242.605 1041.09 242.605C1042.2 242.605 1043.06 242.156 1043.69 241.258C1044.32 240.359 1044.64 239.121 1044.64 237.543C1044.64 235.941 1044.32 234.715 1043.69 233.863C1043.06 233.004 1042.18 232.574 1041.04 232.574ZM1049.78 242.758C1049.78 242.234 1049.9 241.84 1050.13 241.574C1050.38 241.301 1050.72 241.164 1051.16 241.164C1051.62 241.164 1051.97 241.301 1052.22 241.574C1052.48 241.84 1052.61 242.234 1052.61 242.758C1052.61 243.266 1052.48 243.656 1052.22 243.93C1051.96 244.203 1051.61 244.34 1051.16 244.34C1050.77 244.34 1050.43 244.219 1050.17 243.977C1049.91 243.727 1049.78 243.32 1049.78 242.758Z" fill="black"/>
<path d="M122 257.122C122 251.443 118.856 246.229 113.814 243.534L97.4553 234.795L96.8443 235.878C94.8965 239.329 91.2173 241.469 87.2199 241.469C83.3371 241.469 79.6833 239.404 77.6974 236.08L77.0736 235.034L61.173 243.534C56.1317 246.242 53 251.455 53 257.122V266H66.5713V253.058H69.1174V266H105.875V253.058H108.421V266H122V257.122Z" fill="black"/>
<path d="M107.936 218.162V205.78C107.936 194.526 98.8697 185 87.1683 185C75.7193 185 66.4004 194.324 66.4004 205.78V218.175C65.5255 218.72 64.9423 219.684 64.9423 220.788C64.9423 222.387 66.1595 223.693 67.7189 223.858V224.074C67.7189 226.078 69.3419 227.702 71.345 227.702H74.4456C76.7401 232.263 79.6533 234.476 83.3646 236.57C89.6958 239.84 97.0376 233.363 99.8626 227.702H103.004C104.995 227.702 106.618 226.078 106.618 224.074V223.871C108.177 223.706 109.394 222.399 109.394 220.801C109.394 219.684 108.811 218.72 107.936 218.162ZM84.4677 234.286C81.4195 232.576 78.9901 230.765 76.9744 227.068C77.0462 226.942 77.1393 226.638 77.1393 226.434C77.1044 215.384 77.5226 214.221 76.1631 213.912L76.1757 212.783C78.0806 210.877 79.2063 208.256 79.2313 205.362H95.1813C95.1813 208.237 96.3373 210.882 98.2242 212.77V213.899C96.7471 214.693 97.3309 213.389 97.2099 226.434C97.2099 226.722 97.3299 226.939 97.3747 227.068C95.216 231.065 89.3371 236.793 84.4677 234.286ZM105.4 214.813C104.017 213.567 102.498 213.941 101.996 213.874C103.684 208.381 103.439 207.121 103.346 206.681C103.346 206.618 103.321 206.567 103.308 206.516L102.953 205.501C102.7 200.642 99.7076 191.749 90.021 191.673H89.704C77.2661 191.673 74.743 198.181 74.2359 200.591C73.1835 201.061 71.3577 202.139 70.4829 204.182C69.0612 207.501 70.9483 210.048 72.2217 213.874C71.715 213.944 70.3112 213.575 68.9361 214.813V205.78C68.9361 195.72 77.114 187.537 87.1683 187.537C97.412 187.537 105.4 195.853 105.4 205.78V214.813Z" fill="black"/>
<rect x="649" y="210" width="193" height="46" fill="#EBAC0C" fill-opacity="0.2"/>
<path d="M187.734 82.0312C185.589 82.0312 183.901 82.7917 182.672 84.3125C181.443 85.8333 180.828 87.9323 180.828 90.6094C180.828 93.4115 181.417 95.5312 182.594 96.9688C183.781 98.4062 185.495 99.125 187.734 99.125C188.703 99.125 189.641 99.0312 190.547 98.8438C191.453 98.6458 192.396 98.3958 193.375 98.0938V101.297C191.583 101.974 189.552 102.312 187.281 102.312C183.938 102.312 181.37 101.302 179.578 99.2812C177.786 97.25 176.891 94.349 176.891 90.5781C176.891 88.2031 177.323 86.125 178.188 84.3438C179.062 82.5625 180.323 81.1979 181.969 80.25C183.615 79.3021 185.547 78.8281 187.766 78.8281C190.099 78.8281 192.255 79.3177 194.234 80.2969L192.891 83.4062C192.12 83.0417 191.302 82.724 190.438 82.4531C189.583 82.1719 188.682 82.0312 187.734 82.0312ZM213.234 93.3281C213.234 96.151 212.51 98.3542 211.062 99.9375C209.615 101.521 207.599 102.312 205.016 102.312C203.401 102.312 201.974 101.948 200.734 101.219C199.495 100.49 198.542 99.4427 197.875 98.0781C197.208 96.7135 196.875 95.1302 196.875 93.3281C196.875 90.526 197.594 88.3385 199.031 86.7656C200.469 85.1927 202.495 84.4062 205.109 84.4062C207.609 84.4062 209.589 85.2135 211.047 86.8281C212.505 88.4323 213.234 90.599 213.234 93.3281ZM200.656 93.3281C200.656 97.3177 202.13 99.3125 205.078 99.3125C207.995 99.3125 209.453 97.3177 209.453 93.3281C209.453 89.3802 207.984 87.4062 205.047 87.4062C203.505 87.4062 202.385 87.9167 201.688 88.9375C201 89.9583 200.656 91.4219 200.656 93.3281ZM228.281 102L227.547 99.5938H227.422C226.589 100.646 225.75 101.365 224.906 101.75C224.062 102.125 222.979 102.312 221.656 102.312C219.958 102.312 218.63 101.854 217.672 100.938C216.724 100.021 216.25 98.724 216.25 97.0469C216.25 95.2656 216.911 93.9219 218.234 93.0156C219.557 92.1094 221.573 91.6146 224.281 91.5312L227.266 91.4375V90.5156C227.266 89.4115 227.005 88.5885 226.484 88.0469C225.974 87.4948 225.177 87.2188 224.094 87.2188C223.208 87.2188 222.359 87.349 221.547 87.6094C220.734 87.8698 219.953 88.1771 219.203 88.5312L218.016 85.9062C218.953 85.4167 219.979 85.0469 221.094 84.7969C222.208 84.5365 223.26 84.4062 224.25 84.4062C226.448 84.4062 228.104 84.8854 229.219 85.8438C230.344 86.8021 230.906 88.3073 230.906 90.3594V102H228.281ZM222.812 99.5C224.146 99.5 225.214 99.1302 226.016 98.3906C226.828 97.6406 227.234 96.5938 227.234 95.25V93.75L225.016 93.8438C223.286 93.9062 222.026 94.1979 221.234 94.7188C220.453 95.2292 220.062 96.0156 220.062 97.0781C220.062 97.849 220.292 98.4479 220.75 98.875C221.208 99.2917 221.896 99.5 222.812 99.5ZM243 102.312C240.385 102.312 238.396 101.552 237.031 100.031C235.677 98.5 235 96.3073 235 93.4531C235 90.5469 235.708 88.3125 237.125 86.75C238.552 85.1875 240.609 84.4062 243.297 84.4062C245.12 84.4062 246.76 84.7448 248.219 85.4219L247.109 88.375C245.557 87.7708 244.276 87.4688 243.266 87.4688C240.276 87.4688 238.781 89.4531 238.781 93.4219C238.781 95.3594 239.151 96.8177 239.891 97.7969C240.641 98.7656 241.734 99.25 243.172 99.25C244.807 99.25 246.354 98.8438 247.812 98.0312V101.234C247.156 101.62 246.453 101.896 245.703 102.062C244.964 102.229 244.062 102.312 243 102.312ZM267.078 102H263.391V91.375C263.391 90.0417 263.12 89.0469 262.578 88.3906C262.047 87.7344 261.198 87.4062 260.031 87.4062C258.49 87.4062 257.354 87.8698 256.625 88.7969C255.906 89.7135 255.547 91.2552 255.547 93.4219V102H251.875V77.6875H255.547V83.8594C255.547 84.849 255.484 85.9062 255.359 87.0312H255.594C256.094 86.1979 256.786 85.5521 257.672 85.0938C258.568 84.6354 259.609 84.4062 260.797 84.4062C264.984 84.4062 267.078 86.5156 267.078 90.7344V102ZM279.734 102.312C277.047 102.312 274.943 101.531 273.422 99.9688C271.911 98.3958 271.156 96.2344 271.156 93.4844C271.156 90.6615 271.859 88.4427 273.266 86.8281C274.672 85.2135 276.604 84.4062 279.062 84.4062C281.344 84.4062 283.146 85.099 284.469 86.4844C285.792 87.8698 286.453 89.776 286.453 92.2031V94.1875H274.938C274.99 95.8646 275.443 97.1562 276.297 98.0625C277.151 98.9583 278.354 99.4062 279.906 99.4062C280.927 99.4062 281.875 99.3125 282.75 99.125C283.635 98.9271 284.583 98.6042 285.594 98.1562V101.141C284.698 101.568 283.792 101.87 282.875 102.047C281.958 102.224 280.911 102.312 279.734 102.312ZM279.062 87.1875C277.896 87.1875 276.958 87.5573 276.25 88.2969C275.552 89.0365 275.135 90.1146 275 91.5312H282.844C282.823 90.1042 282.479 89.026 281.812 88.2969C281.146 87.5573 280.229 87.1875 279.062 87.1875ZM302.234 97.0781C302.234 98.7656 301.62 100.062 300.391 100.969C299.161 101.865 297.401 102.312 295.109 102.312C292.807 102.312 290.958 101.964 289.562 101.266V98.0938C291.594 99.0312 293.484 99.5 295.234 99.5C297.495 99.5 298.625 98.8177 298.625 97.4531C298.625 97.0156 298.5 96.651 298.25 96.3594C298 96.0677 297.589 95.7656 297.016 95.4531C296.443 95.1406 295.646 94.7865 294.625 94.3906C292.635 93.6198 291.286 92.849 290.578 92.0781C289.88 91.3073 289.531 90.3073 289.531 89.0781C289.531 87.599 290.125 86.4531 291.312 85.6406C292.51 84.8177 294.135 84.4062 296.188 84.4062C298.219 84.4062 300.141 84.8177 301.953 85.6406L300.766 88.4062C298.901 87.6354 297.333 87.25 296.062 87.25C294.125 87.25 293.156 87.8021 293.156 88.9062C293.156 89.4479 293.406 89.9062 293.906 90.2812C294.417 90.6562 295.521 91.1719 297.219 91.8281C298.646 92.3802 299.682 92.8854 300.328 93.3438C300.974 93.8021 301.453 94.3333 301.766 94.9375C302.078 95.5312 302.234 96.2448 302.234 97.0781ZM317.68 90.668H314.41V102H312.465V90.668H310.168V89.7891L312.465 89.0859V88.3711C312.465 85.2148 313.844 83.6367 316.602 83.6367C317.281 83.6367 318.078 83.7734 318.992 84.0469L318.488 85.6055C317.738 85.3633 317.098 85.2422 316.566 85.2422C315.832 85.2422 315.289 85.4883 314.938 85.9805C314.586 86.4648 314.41 87.2461 314.41 88.3242V89.1562H317.68V90.668ZM325.449 102.234C323.551 102.234 322.051 101.656 320.949 100.5C319.855 99.3438 319.309 97.7383 319.309 95.6836C319.309 93.6133 319.816 91.9688 320.832 90.75C321.855 89.5312 323.227 88.9219 324.945 88.9219C326.555 88.9219 327.828 89.4531 328.766 90.5156C329.703 91.5703 330.172 92.9648 330.172 94.6992V95.9297H321.324C321.363 97.4375 321.742 98.582 322.461 99.3633C323.188 100.145 324.207 100.535 325.52 100.535C326.902 100.535 328.27 100.246 329.621 99.668V101.402C328.934 101.699 328.281 101.91 327.664 102.035C327.055 102.168 326.316 102.234 325.449 102.234ZM324.922 90.5508C323.891 90.5508 323.066 90.8867 322.449 91.5586C321.84 92.2305 321.48 93.1602 321.371 94.3477H328.086C328.086 93.1211 327.812 92.1836 327.266 91.5352C326.719 90.8789 325.938 90.5508 324.922 90.5508ZM338.926 102.234C337.027 102.234 335.527 101.656 334.426 100.5C333.332 99.3438 332.785 97.7383 332.785 95.6836C332.785 93.6133 333.293 91.9688 334.309 90.75C335.332 89.5312 336.703 88.9219 338.422 88.9219C340.031 88.9219 341.305 89.4531 342.242 90.5156C343.18 91.5703 343.648 92.9648 343.648 94.6992V95.9297H334.801C334.84 97.4375 335.219 98.582 335.938 99.3633C336.664 100.145 337.684 100.535 338.996 100.535C340.379 100.535 341.746 100.246 343.098 99.668V101.402C342.41 101.699 341.758 101.91 341.141 102.035C340.531 102.168 339.793 102.234 338.926 102.234ZM338.398 90.5508C337.367 90.5508 336.543 90.8867 335.926 91.5586C335.316 92.2305 334.957 93.1602 334.848 94.3477H341.562C341.562 93.1211 341.289 92.1836 340.742 91.5352C340.195 90.8789 339.414 90.5508 338.398 90.5508ZM348.922 102H346.977V83.7656H348.922V102ZM365.762 102.234C364.121 102.234 362.848 101.645 361.941 100.465H361.777C361.887 101.559 361.941 102.223 361.941 102.457V107.766H359.188V89.0391H361.414C361.477 89.2812 361.605 89.8594 361.801 90.7734H361.941C362.801 89.4609 364.09 88.8047 365.809 88.8047C367.426 88.8047 368.684 89.3906 369.582 90.5625C370.488 91.7344 370.941 93.3789 370.941 95.4961C370.941 97.6133 370.48 99.2656 369.559 100.453C368.645 101.641 367.379 102.234 365.762 102.234ZM365.094 91.0547C364 91.0547 363.199 91.375 362.691 92.0156C362.191 92.6562 361.941 93.6797 361.941 95.0859V95.4961C361.941 97.0742 362.191 98.2188 362.691 98.9297C363.191 99.6328 364.008 99.9844 365.141 99.9844C366.094 99.9844 366.828 99.5938 367.344 98.8125C367.859 98.0312 368.117 96.918 368.117 95.4727C368.117 94.0195 367.859 92.9219 367.344 92.1797C366.836 91.4297 366.086 91.0547 365.094 91.0547ZM380.715 88.8047C381.27 88.8047 381.727 88.8438 382.086 88.9219L381.816 91.4883C381.426 91.3945 381.02 91.3477 380.598 91.3477C379.496 91.3477 378.602 91.707 377.914 92.4258C377.234 93.1445 376.895 94.0781 376.895 95.2266V102H374.141V89.0391H376.297L376.66 91.3242H376.801C377.23 90.5508 377.789 89.9375 378.477 89.4844C379.172 89.0312 379.918 88.8047 380.715 88.8047ZM395.996 95.4961C395.996 97.6133 395.453 99.2656 394.367 100.453C393.281 101.641 391.77 102.234 389.832 102.234C388.621 102.234 387.551 101.961 386.621 101.414C385.691 100.867 384.977 100.082 384.477 99.0586C383.977 98.0352 383.727 96.8477 383.727 95.4961C383.727 93.3945 384.266 91.7539 385.344 90.5742C386.422 89.3945 387.941 88.8047 389.902 88.8047C391.777 88.8047 393.262 89.4102 394.355 90.6211C395.449 91.8242 395.996 93.4492 395.996 95.4961ZM386.562 95.4961C386.562 98.4883 387.668 99.9844 389.879 99.9844C392.066 99.9844 393.16 98.4883 393.16 95.4961C393.16 92.5352 392.059 91.0547 389.855 91.0547C388.699 91.0547 387.859 91.4375 387.336 92.2031C386.82 92.9688 386.562 94.0664 386.562 95.4961ZM403.543 102.234C401.926 102.234 400.664 101.648 399.758 100.477C398.852 99.3047 398.398 97.6602 398.398 95.543C398.398 93.418 398.855 91.7656 399.77 90.5859C400.691 89.3984 401.965 88.8047 403.59 88.8047C405.293 88.8047 406.59 89.4336 407.48 90.6914H407.621C407.488 89.7617 407.422 89.0273 407.422 88.4883V83.7656H410.188V102H408.031L407.551 100.301H407.422C406.539 101.59 405.246 102.234 403.543 102.234ZM404.281 100.008C405.414 100.008 406.238 99.6914 406.754 99.0586C407.27 98.418 407.535 97.3828 407.551 95.9531V95.5664C407.551 93.9336 407.285 92.7734 406.754 92.0859C406.223 91.3984 405.391 91.0547 404.258 91.0547C403.289 91.0547 402.543 91.4492 402.02 92.2383C401.496 93.0195 401.234 94.1367 401.234 95.5898C401.234 97.0273 401.488 98.125 401.996 98.8828C402.504 99.6328 403.266 100.008 404.281 100.008ZM423.266 102L422.879 100.301H422.738C422.355 100.902 421.809 101.375 421.098 101.719C420.395 102.062 419.59 102.234 418.684 102.234C417.113 102.234 415.941 101.844 415.168 101.062C414.395 100.281 414.008 99.0977 414.008 97.5117V89.0391H416.785V97.0312C416.785 98.0234 416.988 98.7695 417.395 99.2695C417.801 99.7617 418.438 100.008 419.305 100.008C420.461 100.008 421.309 99.6641 421.848 98.9766C422.395 98.2812 422.668 97.1211 422.668 95.4961V89.0391H425.434V102H423.266ZM434.586 102.234C432.625 102.234 431.133 101.664 430.109 100.523C429.094 99.375 428.586 97.7305 428.586 95.5898C428.586 93.4102 429.117 91.7344 430.18 90.5625C431.25 89.3906 432.793 88.8047 434.809 88.8047C436.176 88.8047 437.406 89.0586 438.5 89.5664L437.668 91.7812C436.504 91.3281 435.543 91.1016 434.785 91.1016C432.543 91.1016 431.422 92.5898 431.422 95.5664C431.422 97.0195 431.699 98.1133 432.254 98.8477C432.816 99.5742 433.637 99.9375 434.715 99.9375C435.941 99.9375 437.102 99.6328 438.195 99.0234V101.426C437.703 101.715 437.176 101.922 436.613 102.047C436.059 102.172 435.383 102.234 434.586 102.234ZM446.07 100.008C446.742 100.008 447.414 99.9023 448.086 99.6914V101.766C447.781 101.898 447.387 102.008 446.902 102.094C446.426 102.188 445.93 102.234 445.414 102.234C442.805 102.234 441.5 100.859 441.5 98.1094V91.125H439.73V89.9062L441.629 88.8984L442.566 86.1562H444.266V89.0391H447.957V91.125H444.266V98.0625C444.266 98.7266 444.43 99.2188 444.758 99.5391C445.094 99.8516 445.531 100.008 446.07 100.008ZM453.441 102H450.688V89.0391H453.441V102ZM450.523 85.6055C450.523 85.1133 450.656 84.7344 450.922 84.4688C451.195 84.2031 451.582 84.0703 452.082 84.0703C452.566 84.0703 452.941 84.2031 453.207 84.4688C453.48 84.7344 453.617 85.1133 453.617 85.6055C453.617 86.0742 453.48 86.4453 453.207 86.7188C452.941 86.9844 452.566 87.1172 452.082 87.1172C451.582 87.1172 451.195 86.9844 450.922 86.7188C450.656 86.4453 450.523 86.0742 450.523 85.6055ZM460.344 102L455.422 89.0391H458.328L460.965 96.5742C461.418 97.8398 461.691 98.8633 461.785 99.6445H461.879C461.949 99.082 462.223 98.0586 462.699 96.5742L465.336 89.0391H468.266L463.32 102H460.344ZM475.895 102.234C473.879 102.234 472.301 101.648 471.16 100.477C470.027 99.2969 469.461 97.6758 469.461 95.6133C469.461 93.4961 469.988 91.832 471.043 90.6211C472.098 89.4102 473.547 88.8047 475.391 88.8047C477.102 88.8047 478.453 89.3242 479.445 90.3633C480.438 91.4023 480.934 92.832 480.934 94.6523V96.1406H472.297C472.336 97.3984 472.676 98.3672 473.316 99.0469C473.957 99.7188 474.859 100.055 476.023 100.055C476.789 100.055 477.5 99.9844 478.156 99.8438C478.82 99.6953 479.531 99.4531 480.289 99.1172V101.355C479.617 101.676 478.938 101.902 478.25 102.035C477.562 102.168 476.777 102.234 475.895 102.234ZM475.391 90.8906C474.516 90.8906 473.812 91.168 473.281 91.7227C472.758 92.2773 472.445 93.0859 472.344 94.1484H478.227C478.211 93.0781 477.953 92.2695 477.453 91.7227C476.953 91.168 476.266 90.8906 475.391 90.8906ZM500.879 102L498.523 94.4648C498.375 94.0039 498.098 92.957 497.691 91.3242H497.598C497.285 92.6914 497.012 93.7461 496.777 94.4883L494.352 102H492.102L488.598 89.1562H490.637C491.465 92.3828 492.094 94.8398 492.523 96.5273C492.961 98.2148 493.211 99.3516 493.273 99.9375H493.367C493.453 99.4922 493.59 98.918 493.777 98.2148C493.973 97.5039 494.141 96.9414 494.281 96.5273L496.637 89.1562H498.746L501.043 96.5273C501.48 97.8711 501.777 99 501.934 99.9141H502.027C502.059 99.6328 502.141 99.1992 502.273 98.6133C502.414 98.0273 503.23 94.875 504.723 89.1562H506.738L503.188 102H500.879ZM517.859 102V93.6914C517.859 92.6445 517.621 91.8633 517.145 91.3477C516.668 90.832 515.922 90.5742 514.906 90.5742C513.555 90.5742 512.566 90.9414 511.941 91.6758C511.324 92.4102 511.016 93.6133 511.016 95.2852V102H509.07V83.7656H511.016V89.2852C511.016 89.9492 510.984 90.5 510.922 90.9375H511.039C511.422 90.3203 511.965 89.8359 512.668 89.4844C513.379 89.125 514.188 88.9453 515.094 88.9453C516.664 88.9453 517.84 89.3203 518.621 90.0703C519.41 90.8125 519.805 91.9961 519.805 93.6211V102H517.859ZM529.238 102.234C527.34 102.234 525.84 101.656 524.738 100.5C523.645 99.3438 523.098 97.7383 523.098 95.6836C523.098 93.6133 523.605 91.9688 524.621 90.75C525.645 89.5312 527.016 88.9219 528.734 88.9219C530.344 88.9219 531.617 89.4531 532.555 90.5156C533.492 91.5703 533.961 92.9648 533.961 94.6992V95.9297H525.113C525.152 97.4375 525.531 98.582 526.25 99.3633C526.977 100.145 527.996 100.535 529.309 100.535C530.691 100.535 532.059 100.246 533.41 99.668V101.402C532.723 101.699 532.07 101.91 531.453 102.035C530.844 102.168 530.105 102.234 529.238 102.234ZM528.711 90.5508C527.68 90.5508 526.855 90.8867 526.238 91.5586C525.629 92.2305 525.27 93.1602 525.16 94.3477H531.875C531.875 93.1211 531.602 92.1836 531.055 91.5352C530.508 90.8789 529.727 90.5508 528.711 90.5508ZM546.078 102V93.6914C546.078 92.6445 545.84 91.8633 545.363 91.3477C544.887 90.832 544.141 90.5742 543.125 90.5742C541.781 90.5742 540.797 90.9375 540.172 91.6641C539.547 92.3906 539.234 93.5898 539.234 95.2617V102H537.289V89.1562H538.871L539.188 90.9141H539.281C539.68 90.2812 540.238 89.793 540.957 89.4492C541.676 89.0977 542.477 88.9219 543.359 88.9219C544.906 88.9219 546.07 89.2969 546.852 90.0469C547.633 90.7891 548.023 91.9805 548.023 93.6211V102H546.078ZM564.746 88.8047C565.301 88.8047 565.758 88.8438 566.117 88.9219L565.848 91.4883C565.457 91.3945 565.051 91.3477 564.629 91.3477C563.527 91.3477 562.633 91.707 561.945 92.4258C561.266 93.1445 560.926 94.0781 560.926 95.2266V102H558.172V89.0391H560.328L560.691 91.3242H560.832C561.262 90.5508 561.82 89.9375 562.508 89.4844C563.203 89.0312 563.949 88.8047 564.746 88.8047ZM574.191 102.234C572.176 102.234 570.598 101.648 569.457 100.477C568.324 99.2969 567.758 97.6758 567.758 95.6133C567.758 93.4961 568.285 91.832 569.34 90.6211C570.395 89.4102 571.844 88.8047 573.688 88.8047C575.398 88.8047 576.75 89.3242 577.742 90.3633C578.734 91.4023 579.23 92.832 579.23 94.6523V96.1406H570.594C570.633 97.3984 570.973 98.3672 571.613 99.0469C572.254 99.7188 573.156 100.055 574.32 100.055C575.086 100.055 575.797 99.9844 576.453 99.8438C577.117 99.6953 577.828 99.4531 578.586 99.1172V101.355C577.914 101.676 577.234 101.902 576.547 102.035C575.859 102.168 575.074 102.234 574.191 102.234ZM573.688 90.8906C572.812 90.8906 572.109 91.168 571.578 91.7227C571.055 92.2773 570.742 93.0859 570.641 94.1484H576.523C576.508 93.0781 576.25 92.2695 575.75 91.7227C575.25 91.168 574.562 90.8906 573.688 90.8906ZM585.312 102L580.391 89.0391H583.297L585.934 96.5742C586.387 97.8398 586.66 98.8633 586.754 99.6445H586.848C586.918 99.082 587.191 98.0586 587.668 96.5742L590.305 89.0391H593.234L588.289 102H585.312ZM597.957 102H595.203V89.0391H597.957V102ZM595.039 85.6055C595.039 85.1133 595.172 84.7344 595.438 84.4688C595.711 84.2031 596.098 84.0703 596.598 84.0703C597.082 84.0703 597.457 84.2031 597.723 84.4688C597.996 84.7344 598.133 85.1133 598.133 85.6055C598.133 86.0742 597.996 86.4453 597.723 86.7188C597.457 86.9844 597.082 87.1172 596.598 87.1172C596.098 87.1172 595.711 86.9844 595.438 86.7188C595.172 86.4453 595.039 86.0742 595.039 85.6055ZM607.566 102.234C605.551 102.234 603.973 101.648 602.832 100.477C601.699 99.2969 601.133 97.6758 601.133 95.6133C601.133 93.4961 601.66 91.832 602.715 90.6211C603.77 89.4102 605.219 88.8047 607.062 88.8047C608.773 88.8047 610.125 89.3242 611.117 90.3633C612.109 91.4023 612.605 92.832 612.605 94.6523V96.1406H603.969C604.008 97.3984 604.348 98.3672 604.988 99.0469C605.629 99.7188 606.531 100.055 607.695 100.055C608.461 100.055 609.172 99.9844 609.828 99.8438C610.492 99.6953 611.203 99.4531 611.961 99.1172V101.355C611.289 101.676 610.609 101.902 609.922 102.035C609.234 102.168 608.449 102.234 607.566 102.234ZM607.062 90.8906C606.188 90.8906 605.484 91.168 604.953 91.7227C604.43 92.2773 604.117 93.0859 604.016 94.1484H609.898C609.883 93.0781 609.625 92.2695 609.125 91.7227C608.625 91.168 607.938 90.8906 607.062 90.8906ZM626.363 102L624.688 95.9531C624.484 95.3125 624.117 93.8242 623.586 91.4883H623.48C623.027 93.5977 622.668 95.0938 622.402 95.9766L620.68 102H617.633L614 89.0391H616.812L618.465 95.4258C618.84 97.0039 619.105 98.3555 619.262 99.4805H619.332C619.41 98.9102 619.527 98.2578 619.684 97.5234C619.848 96.7812 619.988 96.2266 620.105 95.8594L622.074 89.0391H625.098L627.008 95.8594C627.125 96.2422 627.27 96.8281 627.441 97.6172C627.621 98.4062 627.727 99.0195 627.758 99.457H627.852C627.969 98.4961 628.242 97.1523 628.672 95.4258L630.348 89.0391H633.113L629.457 102H626.363ZM638.105 102H635.352V89.0391H638.105V102ZM635.188 85.6055C635.188 85.1133 635.32 84.7344 635.586 84.4688C635.859 84.2031 636.246 84.0703 636.746 84.0703C637.23 84.0703 637.605 84.2031 637.871 84.4688C638.145 84.7344 638.281 85.1133 638.281 85.6055C638.281 86.0742 638.145 86.4453 637.871 86.7188C637.605 86.9844 637.23 87.1172 636.746 87.1172C636.246 87.1172 635.859 86.9844 635.586 86.7188C635.32 86.4453 635.188 86.0742 635.188 85.6055ZM653.457 102H650.691V94.0312C650.691 93.0312 650.488 92.2852 650.082 91.793C649.684 91.3008 649.047 91.0547 648.172 91.0547C647.008 91.0547 646.156 91.3984 645.617 92.0859C645.078 92.7734 644.809 93.9258 644.809 95.543V102H642.055V89.0391H644.211L644.598 90.7383H644.738C645.129 90.1211 645.684 89.6445 646.402 89.3086C647.121 88.9727 647.918 88.8047 648.793 88.8047C651.902 88.8047 653.457 90.3867 653.457 93.5508V102ZM668.234 89.0391V90.5508L666.02 90.9609C666.223 91.2344 666.391 91.5703 666.523 91.9688C666.656 92.3672 666.723 92.7891 666.723 93.2344C666.723 94.5703 666.262 95.6211 665.34 96.3867C664.418 97.1523 663.148 97.5352 661.531 97.5352C661.117 97.5352 660.742 97.5039 660.406 97.4414C659.812 97.8086 659.516 98.2383 659.516 98.7305C659.516 99.0273 659.652 99.25 659.926 99.3984C660.207 99.5469 660.719 99.6211 661.461 99.6211H663.723C665.152 99.6211 666.238 99.9258 666.98 100.535C667.723 101.145 668.094 102.023 668.094 103.172C668.094 104.641 667.488 105.773 666.277 106.57C665.066 107.367 663.316 107.766 661.027 107.766C659.262 107.766 657.914 107.453 656.984 106.828C656.055 106.203 655.59 105.312 655.59 104.156C655.59 103.359 655.84 102.688 656.34 102.141C656.848 101.602 657.555 101.227 658.461 101.016C658.094 100.859 657.789 100.609 657.547 100.266C657.312 99.9141 657.195 99.5469 657.195 99.1641C657.195 98.6797 657.332 98.2695 657.605 97.9336C657.879 97.5977 658.285 97.2656 658.824 96.9375C658.152 96.6484 657.605 96.1797 657.184 95.5312C656.77 94.875 656.562 94.1094 656.562 93.2344C656.562 91.8281 657.004 90.7383 657.887 89.9648C658.777 89.1914 660.043 88.8047 661.684 88.8047C662.051 88.8047 662.434 88.832 662.832 88.8867C663.238 88.9336 663.543 88.9844 663.746 89.0391H668.234ZM658.051 104.016C658.051 104.609 658.316 105.066 658.848 105.387C659.387 105.707 660.141 105.867 661.109 105.867C662.609 105.867 663.727 105.652 664.461 105.223C665.195 104.793 665.562 104.223 665.562 103.512C665.562 102.949 665.359 102.547 664.953 102.305C664.555 102.07 663.809 101.953 662.715 101.953H660.629C659.84 101.953 659.211 102.137 658.742 102.504C658.281 102.879 658.051 103.383 658.051 104.016ZM659.234 93.2344C659.234 94.0469 659.441 94.6719 659.855 95.1094C660.277 95.5469 660.879 95.7656 661.66 95.7656C663.254 95.7656 664.051 94.9141 664.051 93.2109C664.051 92.3672 663.852 91.7188 663.453 91.2656C663.062 90.8047 662.465 90.5742 661.66 90.5742C660.863 90.5742 660.258 90.8008 659.844 91.2539C659.438 91.707 659.234 92.3672 659.234 93.2344ZM682.109 102.234C680.148 102.234 678.656 101.664 677.633 100.523C676.617 99.375 676.109 97.7305 676.109 95.5898C676.109 93.4102 676.641 91.7344 677.703 90.5625C678.773 89.3906 680.316 88.8047 682.332 88.8047C683.699 88.8047 684.93 89.0586 686.023 89.5664L685.191 91.7812C684.027 91.3281 683.066 91.1016 682.309 91.1016C680.066 91.1016 678.945 92.5898 678.945 95.5664C678.945 97.0195 679.223 98.1133 679.777 98.8477C680.34 99.5742 681.16 99.9375 682.238 99.9375C683.465 99.9375 684.625 99.6328 685.719 99.0234V101.426C685.227 101.715 684.699 101.922 684.137 102.047C683.582 102.172 682.906 102.234 682.109 102.234ZM696.875 102L696.324 100.195H696.23C695.605 100.984 694.977 101.523 694.344 101.812C693.711 102.094 692.898 102.234 691.906 102.234C690.633 102.234 689.637 101.891 688.918 101.203C688.207 100.516 687.852 99.543 687.852 98.2852C687.852 96.9492 688.348 95.9414 689.34 95.2617C690.332 94.582 691.844 94.2109 693.875 94.1484L696.113 94.0781V93.3867C696.113 92.5586 695.918 91.9414 695.527 91.5352C695.145 91.1211 694.547 90.9141 693.734 90.9141C693.07 90.9141 692.434 91.0117 691.824 91.207C691.215 91.4023 690.629 91.6328 690.066 91.8984L689.176 89.9297C689.879 89.5625 690.648 89.2852 691.484 89.0977C692.32 88.9023 693.109 88.8047 693.852 88.8047C695.5 88.8047 696.742 89.1641 697.578 89.8828C698.422 90.6016 698.844 91.7305 698.844 93.2695V102H696.875ZM692.773 100.125C693.773 100.125 694.574 99.8477 695.176 99.293C695.785 98.7305 696.09 97.9453 696.09 96.9375V95.8125L694.426 95.8828C693.129 95.9297 692.184 96.1484 691.59 96.5391C691.004 96.9219 690.711 97.5117 690.711 98.3086C690.711 98.8867 690.883 99.3359 691.227 99.6562C691.57 99.9688 692.086 100.125 692.773 100.125ZM705.441 102H702.688V83.7656H705.441V102ZM712.145 102H709.391V83.7656H712.145V102ZM724.801 98.3086C724.801 99.5742 724.34 100.547 723.418 101.227C722.496 101.898 721.176 102.234 719.457 102.234C717.73 102.234 716.344 101.973 715.297 101.449V99.0703C716.82 99.7734 718.238 100.125 719.551 100.125C721.246 100.125 722.094 99.6133 722.094 98.5898C722.094 98.2617 722 97.9883 721.812 97.7695C721.625 97.5508 721.316 97.3242 720.887 97.0898C720.457 96.8555 719.859 96.5898 719.094 96.293C717.602 95.7148 716.59 95.1367 716.059 94.5586C715.535 93.9805 715.273 93.2305 715.273 92.3086C715.273 91.1992 715.719 90.3398 716.609 89.7305C717.508 89.1133 718.727 88.8047 720.266 88.8047C721.789 88.8047 723.23 89.1133 724.59 89.7305L723.699 91.8047C722.301 91.2266 721.125 90.9375 720.172 90.9375C718.719 90.9375 717.992 91.3516 717.992 92.1797C717.992 92.5859 718.18 92.9297 718.555 93.2109C718.938 93.4922 719.766 93.8789 721.039 94.3711C722.109 94.7852 722.887 95.1641 723.371 95.5078C723.855 95.8516 724.215 96.25 724.449 96.7031C724.684 97.1484 724.801 97.6836 724.801 98.3086ZM737.34 88.5586C737.34 89.0508 737.469 89.5156 737.727 89.9531C737.992 90.3906 738.359 90.8555 738.828 91.3477C739.711 90.8477 740.328 90.3828 740.68 89.9531C741.039 89.5156 741.219 89.0273 741.219 88.4883C741.219 87.9805 741.047 87.5742 740.703 87.2695C740.367 86.9648 739.918 86.8125 739.355 86.8125C738.738 86.8125 738.246 86.9727 737.879 87.293C737.52 87.6055 737.34 88.0273 737.34 88.5586ZM739.086 99.8672C740.516 99.8672 741.738 99.4492 742.754 98.6133L738.266 94.1953C737.438 94.7266 736.867 95.2266 736.555 95.6953C736.242 96.1562 736.086 96.6836 736.086 97.2773C736.086 98.043 736.355 98.668 736.895 99.1523C737.441 99.6289 738.172 99.8672 739.086 99.8672ZM733.18 97.4648C733.18 96.4414 733.43 95.5508 733.93 94.793C734.43 94.0273 735.332 93.2695 736.637 92.5195C735.895 91.6523 735.387 90.9219 735.113 90.3281C734.848 89.7266 734.715 89.1055 734.715 88.4648C734.715 87.2773 735.137 86.3398 735.98 85.6523C736.832 84.9648 737.973 84.6211 739.402 84.6211C740.785 84.6211 741.871 84.957 742.66 85.6289C743.449 86.293 743.844 87.1914 743.844 88.3242C743.844 89.2148 743.578 90.0234 743.047 90.75C742.523 91.4766 741.645 92.2031 740.41 92.9297L744.465 96.8438C745.098 96.0078 745.625 94.7812 746.047 93.1641H748.883C748.336 95.3828 747.461 97.1914 746.258 98.5898L749.785 102H746.234L744.488 100.301C743.691 100.941 742.84 101.426 741.934 101.754C741.035 102.074 740.039 102.234 738.945 102.234C737.148 102.234 735.738 101.809 734.715 100.957C733.691 100.105 733.18 98.9414 733.18 97.4648ZM763.25 102.234C761.289 102.234 759.797 101.664 758.773 100.523C757.758 99.375 757.25 97.7305 757.25 95.5898C757.25 93.4102 757.781 91.7344 758.844 90.5625C759.914 89.3906 761.457 88.8047 763.473 88.8047C764.84 88.8047 766.07 89.0586 767.164 89.5664L766.332 91.7812C765.168 91.3281 764.207 91.1016 763.449 91.1016C761.207 91.1016 760.086 92.5898 760.086 95.5664C760.086 97.0195 760.363 98.1133 760.918 98.8477C761.48 99.5742 762.301 99.9375 763.379 99.9375C764.605 99.9375 765.766 99.6328 766.859 99.0234V101.426C766.367 101.715 765.84 101.922 765.277 102.047C764.723 102.172 764.047 102.234 763.25 102.234ZM781.402 95.4961C781.402 97.6133 780.859 99.2656 779.773 100.453C778.688 101.641 777.176 102.234 775.238 102.234C774.027 102.234 772.957 101.961 772.027 101.414C771.098 100.867 770.383 100.082 769.883 99.0586C769.383 98.0352 769.133 96.8477 769.133 95.4961C769.133 93.3945 769.672 91.7539 770.75 90.5742C771.828 89.3945 773.348 88.8047 775.309 88.8047C777.184 88.8047 778.668 89.4102 779.762 90.6211C780.855 91.8242 781.402 93.4492 781.402 95.4961ZM771.969 95.4961C771.969 98.4883 773.074 99.9844 775.285 99.9844C777.473 99.9844 778.566 98.4883 778.566 95.4961C778.566 92.5352 777.465 91.0547 775.262 91.0547C774.105 91.0547 773.266 91.4375 772.742 92.2031C772.227 92.9688 771.969 94.0664 771.969 95.4961ZM792.688 102L792.137 100.195H792.043C791.418 100.984 790.789 101.523 790.156 101.812C789.523 102.094 788.711 102.234 787.719 102.234C786.445 102.234 785.449 101.891 784.73 101.203C784.02 100.516 783.664 99.543 783.664 98.2852C783.664 96.9492 784.16 95.9414 785.152 95.2617C786.145 94.582 787.656 94.2109 789.688 94.1484L791.926 94.0781V93.3867C791.926 92.5586 791.73 91.9414 791.34 91.5352C790.957 91.1211 790.359 90.9141 789.547 90.9141C788.883 90.9141 788.246 91.0117 787.637 91.207C787.027 91.4023 786.441 91.6328 785.879 91.8984L784.988 89.9297C785.691 89.5625 786.461 89.2852 787.297 89.0977C788.133 88.9023 788.922 88.8047 789.664 88.8047C791.312 88.8047 792.555 89.1641 793.391 89.8828C794.234 90.6016 794.656 91.7305 794.656 93.2695V102H792.688ZM788.586 100.125C789.586 100.125 790.387 99.8477 790.988 99.293C791.598 98.7305 791.902 97.9453 791.902 96.9375V95.8125L790.238 95.8828C788.941 95.9297 787.996 96.1484 787.402 96.5391C786.816 96.9219 786.523 97.5117 786.523 98.3086C786.523 98.8867 786.695 99.3359 787.039 99.6562C787.383 99.9688 787.898 100.125 788.586 100.125ZM803.727 102.234C801.766 102.234 800.273 101.664 799.25 100.523C798.234 99.375 797.727 97.7305 797.727 95.5898C797.727 93.4102 798.258 91.7344 799.32 90.5625C800.391 89.3906 801.934 88.8047 803.949 88.8047C805.316 88.8047 806.547 89.0586 807.641 89.5664L806.809 91.7812C805.645 91.3281 804.684 91.1016 803.926 91.1016C801.684 91.1016 800.562 92.5898 800.562 95.5664C800.562 97.0195 800.84 98.1133 801.395 98.8477C801.957 99.5742 802.777 99.9375 803.855 99.9375C805.082 99.9375 806.242 99.6328 807.336 99.0234V101.426C806.844 101.715 806.316 101.922 805.754 102.047C805.199 102.172 804.523 102.234 803.727 102.234ZM821.785 102H819.02V94.0312C819.02 93.0312 818.816 92.2852 818.41 91.793C818.012 91.3008 817.375 91.0547 816.5 91.0547C815.344 91.0547 814.492 91.4023 813.945 92.0977C813.406 92.7852 813.137 93.9414 813.137 95.5664V102H810.383V83.7656H813.137V88.3945C813.137 89.1367 813.09 89.9297 812.996 90.7734H813.172C813.547 90.1484 814.066 89.6641 814.73 89.3203C815.402 88.9766 816.184 88.8047 817.074 88.8047C820.215 88.8047 821.785 90.3867 821.785 93.5508V102ZM828.371 102H825.617V89.0391H828.371V102ZM825.453 85.6055C825.453 85.1133 825.586 84.7344 825.852 84.4688C826.125 84.2031 826.512 84.0703 827.012 84.0703C827.496 84.0703 827.871 84.2031 828.137 84.4688C828.41 84.7344 828.547 85.1133 828.547 85.6055C828.547 86.0742 828.41 86.4453 828.137 86.7188C827.871 86.9844 827.496 87.1172 827.012 87.1172C826.512 87.1172 826.125 86.9844 825.852 86.7188C825.586 86.4453 825.453 86.0742 825.453 85.6055ZM843.723 102H840.957V94.0312C840.957 93.0312 840.754 92.2852 840.348 91.793C839.949 91.3008 839.312 91.0547 838.438 91.0547C837.273 91.0547 836.422 91.3984 835.883 92.0859C835.344 92.7734 835.074 93.9258 835.074 95.543V102H832.32V89.0391H834.477L834.863 90.7383H835.004C835.395 90.1211 835.949 89.6445 836.668 89.3086C837.387 88.9727 838.184 88.8047 839.059 88.8047C842.168 88.8047 843.723 90.3867 843.723 93.5508V102ZM858.5 89.0391V90.5508L856.285 90.9609C856.488 91.2344 856.656 91.5703 856.789 91.9688C856.922 92.3672 856.988 92.7891 856.988 93.2344C856.988 94.5703 856.527 95.6211 855.605 96.3867C854.684 97.1523 853.414 97.5352 851.797 97.5352C851.383 97.5352 851.008 97.5039 850.672 97.4414C850.078 97.8086 849.781 98.2383 849.781 98.7305C849.781 99.0273 849.918 99.25 850.191 99.3984C850.473 99.5469 850.984 99.6211 851.727 99.6211H853.988C855.418 99.6211 856.504 99.9258 857.246 100.535C857.988 101.145 858.359 102.023 858.359 103.172C858.359 104.641 857.754 105.773 856.543 106.57C855.332 107.367 853.582 107.766 851.293 107.766C849.527 107.766 848.18 107.453 847.25 106.828C846.32 106.203 845.855 105.312 845.855 104.156C845.855 103.359 846.105 102.688 846.605 102.141C847.113 101.602 847.82 101.227 848.727 101.016C848.359 100.859 848.055 100.609 847.812 100.266C847.578 99.9141 847.461 99.5469 847.461 99.1641C847.461 98.6797 847.598 98.2695 847.871 97.9336C848.145 97.5977 848.551 97.2656 849.09 96.9375C848.418 96.6484 847.871 96.1797 847.449 95.5312C847.035 94.875 846.828 94.1094 846.828 93.2344C846.828 91.8281 847.27 90.7383 848.152 89.9648C849.043 89.1914 850.309 88.8047 851.949 88.8047C852.316 88.8047 852.699 88.832 853.098 88.8867C853.504 88.9336 853.809 88.9844 854.012 89.0391H858.5ZM848.316 104.016C848.316 104.609 848.582 105.066 849.113 105.387C849.652 105.707 850.406 105.867 851.375 105.867C852.875 105.867 853.992 105.652 854.727 105.223C855.461 104.793 855.828 104.223 855.828 103.512C855.828 102.949 855.625 102.547 855.219 102.305C854.82 102.07 854.074 101.953 852.98 101.953H850.895C850.105 101.953 849.477 102.137 849.008 102.504C848.547 102.879 848.316 103.383 848.316 104.016ZM849.5 93.2344C849.5 94.0469 849.707 94.6719 850.121 95.1094C850.543 95.5469 851.145 95.7656 851.926 95.7656C853.52 95.7656 854.316 94.9141 854.316 93.2109C854.316 92.3672 854.117 91.7188 853.719 91.2656C853.328 90.8047 852.73 90.5742 851.926 90.5742C851.129 90.5742 850.523 90.8008 850.109 91.2539C849.703 91.707 849.5 92.3672 849.5 93.2344ZM878.328 95.5664C878.328 97.6602 877.801 99.2969 876.746 100.477C875.691 101.648 874.234 102.234 872.375 102.234C871.227 102.234 870.207 101.965 869.316 101.426C868.426 100.887 867.738 100.113 867.254 99.1055C866.77 98.0977 866.527 96.918 866.527 95.5664C866.527 93.4727 867.051 91.8438 868.098 90.6797C869.145 89.5078 870.598 88.9219 872.457 88.9219C874.254 88.9219 875.68 89.5195 876.734 90.7148C877.797 91.9102 878.328 93.5273 878.328 95.5664ZM868.543 95.5664C868.543 97.207 868.871 98.457 869.527 99.3164C870.184 100.176 871.148 100.605 872.422 100.605C873.695 100.605 874.66 100.18 875.316 99.3281C875.98 98.4688 876.312 97.2148 876.312 95.5664C876.312 93.9336 875.98 92.6953 875.316 91.8516C874.66 91 873.688 90.5742 872.398 90.5742C871.125 90.5742 870.164 90.9922 869.516 91.8281C868.867 92.6641 868.543 93.9102 868.543 95.5664ZM890.539 102V93.6914C890.539 92.6445 890.301 91.8633 889.824 91.3477C889.348 90.832 888.602 90.5742 887.586 90.5742C886.242 90.5742 885.258 90.9375 884.633 91.6641C884.008 92.3906 883.695 93.5898 883.695 95.2617V102H881.75V89.1562H883.332L883.648 90.9141H883.742C884.141 90.2812 884.699 89.793 885.418 89.4492C886.137 89.0977 886.938 88.9219 887.82 88.9219C889.367 88.9219 890.531 89.2969 891.312 90.0469C892.094 90.7891 892.484 91.9805 892.484 93.6211V102H890.539ZM906.875 100.629C907.219 100.629 907.551 100.605 907.871 100.559C908.191 100.504 908.445 100.449 908.633 100.395V101.883C908.422 101.984 908.109 102.066 907.695 102.129C907.289 102.199 906.922 102.234 906.594 102.234C904.109 102.234 902.867 100.926 902.867 98.3086V90.668H901.027V89.7305L902.867 88.9219L903.688 86.1797H904.812V89.1562H908.539V90.668H904.812V98.2266C904.812 99 904.996 99.5938 905.363 100.008C905.73 100.422 906.234 100.629 906.875 100.629ZM920 102V93.6914C920 92.6445 919.762 91.8633 919.285 91.3477C918.809 90.832 918.062 90.5742 917.047 90.5742C915.695 90.5742 914.707 90.9414 914.082 91.6758C913.465 92.4102 913.156 93.6133 913.156 95.2852V102H911.211V83.7656H913.156V89.2852C913.156 89.9492 913.125 90.5 913.062 90.9375H913.18C913.562 90.3203 914.105 89.8359 914.809 89.4844C915.52 89.125 916.328 88.9453 917.234 88.9453C918.805 88.9453 919.98 89.3203 920.762 90.0703C921.551 90.8125 921.945 91.9961 921.945 93.6211V102H920ZM931.379 102.234C929.48 102.234 927.98 101.656 926.879 100.5C925.785 99.3438 925.238 97.7383 925.238 95.6836C925.238 93.6133 925.746 91.9688 926.762 90.75C927.785 89.5312 929.156 88.9219 930.875 88.9219C932.484 88.9219 933.758 89.4531 934.695 90.5156C935.633 91.5703 936.102 92.9648 936.102 94.6992V95.9297H927.254C927.293 97.4375 927.672 98.582 928.391 99.3633C929.117 100.145 930.137 100.535 931.449 100.535C932.832 100.535 934.199 100.246 935.551 99.668V101.402C934.863 101.699 934.211 101.91 933.594 102.035C932.984 102.168 932.246 102.234 931.379 102.234ZM930.852 90.5508C929.82 90.5508 928.996 90.8867 928.379 91.5586C927.77 92.2305 927.41 93.1602 927.301 94.3477H934.016C934.016 93.1211 933.742 92.1836 933.195 91.5352C932.648 90.8789 931.867 90.5508 930.852 90.5508ZM962.035 102V93.6445C962.035 92.6211 961.816 91.8555 961.379 91.3477C960.941 90.832 960.262 90.5742 959.34 90.5742C958.129 90.5742 957.234 90.9219 956.656 91.6172C956.078 92.3125 955.789 93.3828 955.789 94.8281V102H953.844V93.6445C953.844 92.6211 953.625 91.8555 953.188 91.3477C952.75 90.832 952.066 90.5742 951.137 90.5742C949.918 90.5742 949.023 90.9414 948.453 91.6758C947.891 92.4023 947.609 93.5977 947.609 95.2617V102H945.664V89.1562H947.246L947.562 90.9141H947.656C948.023 90.2891 948.539 89.8008 949.203 89.4492C949.875 89.0977 950.625 88.9219 951.453 88.9219C953.461 88.9219 954.773 89.6484 955.391 91.1016H955.484C955.867 90.4297 956.422 89.8984 957.148 89.5078C957.875 89.1172 958.703 88.9219 959.633 88.9219C961.086 88.9219 962.172 89.2969 962.891 90.0469C963.617 90.7891 963.98 91.9805 963.98 93.6211V102H962.035ZM979.086 95.5664C979.086 97.6602 978.559 99.2969 977.504 100.477C976.449 101.648 974.992 102.234 973.133 102.234C971.984 102.234 970.965 101.965 970.074 101.426C969.184 100.887 968.496 100.113 968.012 99.1055C967.527 98.0977 967.285 96.918 967.285 95.5664C967.285 93.4727 967.809 91.8438 968.855 90.6797C969.902 89.5078 971.355 88.9219 973.215 88.9219C975.012 88.9219 976.438 89.5195 977.492 90.7148C978.555 91.9102 979.086 93.5273 979.086 95.5664ZM969.301 95.5664C969.301 97.207 969.629 98.457 970.285 99.3164C970.941 100.176 971.906 100.605 973.18 100.605C974.453 100.605 975.418 100.18 976.074 99.3281C976.738 98.4688 977.07 97.2148 977.07 95.5664C977.07 93.9336 976.738 92.6953 976.074 91.8516C975.418 91 974.445 90.5742 973.156 90.5742C971.883 90.5742 970.922 90.9922 970.273 91.8281C969.625 92.6641 969.301 93.9102 969.301 95.5664ZM988.484 88.9453C990.172 88.9453 991.48 89.5234 992.41 90.6797C993.348 91.8281 993.816 93.457 993.816 95.5664C993.816 97.6758 993.344 99.3164 992.398 100.488C991.461 101.652 990.156 102.234 988.484 102.234C987.648 102.234 986.883 102.082 986.188 101.777C985.5 101.465 984.922 100.988 984.453 100.348H984.312L983.902 102H982.508V83.7656H984.453V88.1953C984.453 89.1875 984.422 90.0781 984.359 90.8672H984.453C985.359 89.5859 986.703 88.9453 988.484 88.9453ZM988.203 90.5742C986.875 90.5742 985.918 90.957 985.332 91.7227C984.746 92.4805 984.453 93.7617 984.453 95.5664C984.453 97.3711 984.754 98.6641 985.355 99.4453C985.957 100.219 986.922 100.605 988.25 100.605C989.445 100.605 990.336 100.172 990.922 99.3047C991.508 98.4297 991.801 97.1758 991.801 95.543C991.801 93.8711 991.508 92.625 990.922 91.8047C990.336 90.9844 989.43 90.5742 988.203 90.5742ZM999.172 102H997.227V89.1562H999.172V102ZM997.062 85.6758C997.062 85.2305 997.172 84.9062 997.391 84.7031C997.609 84.4922 997.883 84.3867 998.211 84.3867C998.523 84.3867 998.793 84.4922 999.02 84.7031C999.246 84.9141 999.359 85.2383 999.359 85.6758C999.359 86.1133 999.246 86.4414 999.02 86.6602C998.793 86.8711 998.523 86.9766 998.211 86.9766C997.883 86.9766 997.609 86.8711 997.391 86.6602C997.172 86.4414 997.062 86.1133 997.062 85.6758ZM1005.24 102H1003.3V83.7656H1005.24V102ZM1014.79 102.234C1012.89 102.234 1011.39 101.656 1010.29 100.5C1009.2 99.3438 1008.65 97.7383 1008.65 95.6836C1008.65 93.6133 1009.16 91.9688 1010.18 90.75C1011.2 89.5312 1012.57 88.9219 1014.29 88.9219C1015.9 88.9219 1017.17 89.4531 1018.11 90.5156C1019.05 91.5703 1019.52 92.9648 1019.52 94.6992V95.9297H1010.67C1010.71 97.4375 1011.09 98.582 1011.8 99.3633C1012.53 100.145 1013.55 100.535 1014.86 100.535C1016.25 100.535 1017.61 100.246 1018.96 99.668V101.402C1018.28 101.699 1017.62 101.91 1017.01 102.035C1016.4 102.168 1015.66 102.234 1014.79 102.234ZM1014.27 90.5508C1013.23 90.5508 1012.41 90.8867 1011.79 91.5586C1011.18 92.2305 1010.82 93.1602 1010.71 94.3477H1017.43C1017.43 93.1211 1017.16 92.1836 1016.61 91.5352C1016.06 90.8789 1015.28 90.5508 1014.27 90.5508ZM1036.98 102L1036.59 100.172H1036.5C1035.86 100.977 1035.21 101.523 1034.57 101.812C1033.94 102.094 1033.15 102.234 1032.2 102.234C1030.92 102.234 1029.92 101.906 1029.2 101.25C1028.48 100.594 1028.12 99.6602 1028.12 98.4492C1028.12 95.8555 1030.19 94.4961 1034.34 94.3711L1036.52 94.3008V93.5039C1036.52 92.4961 1036.3 91.7539 1035.86 91.2773C1035.43 90.793 1034.74 90.5508 1033.79 90.5508C1032.72 90.5508 1031.51 90.8789 1030.16 91.5352L1029.56 90.0469C1030.19 89.7031 1030.88 89.4336 1031.63 89.2383C1032.39 89.043 1033.15 88.9453 1033.91 88.9453C1035.44 88.9453 1036.57 89.2852 1037.3 89.9648C1038.05 90.6445 1038.42 91.7344 1038.42 93.2344V102H1036.98ZM1032.58 100.629C1033.79 100.629 1034.74 100.297 1035.43 99.6328C1036.12 98.9688 1036.47 98.0391 1036.47 96.8438V95.6836L1034.53 95.7656C1032.98 95.8203 1031.86 96.0625 1031.18 96.4922C1030.5 96.9141 1030.16 97.5742 1030.16 98.4727C1030.16 99.1758 1030.37 99.7109 1030.79 100.078C1031.22 100.445 1031.82 100.629 1032.58 100.629ZM1048.41 102.234C1047.58 102.234 1046.81 102.082 1046.12 101.777C1045.43 101.465 1044.85 100.988 1044.38 100.348H1044.24C1044.34 101.098 1044.38 101.809 1044.38 102.48V107.766H1042.44V89.1562H1044.02L1044.29 90.9141H1044.38C1044.88 90.2109 1045.46 89.7031 1046.13 89.3906C1046.79 89.0781 1047.55 88.9219 1048.41 88.9219C1050.12 88.9219 1051.43 89.5039 1052.35 90.668C1053.28 91.832 1053.75 93.4648 1053.75 95.5664C1053.75 97.6758 1053.27 99.3164 1052.33 100.488C1051.39 101.652 1050.09 102.234 1048.41 102.234ZM1048.13 90.5742C1046.82 90.5742 1045.87 90.9375 1045.29 91.6641C1044.7 92.3906 1044.4 93.5469 1044.38 95.1328V95.5664C1044.38 97.3711 1044.68 98.6641 1045.29 99.4453C1045.89 100.219 1046.85 100.605 1048.18 100.605C1049.29 100.605 1050.16 100.156 1050.78 99.2578C1051.41 98.3594 1051.73 97.1211 1051.73 95.543C1051.73 93.9414 1051.41 92.7148 1050.78 91.8633C1050.16 91.0039 1049.27 90.5742 1048.13 90.5742ZM1063.13 102.234C1062.3 102.234 1061.53 102.082 1060.84 101.777C1060.15 101.465 1059.57 100.988 1059.1 100.348H1058.96C1059.05 101.098 1059.1 101.809 1059.1 102.48V107.766H1057.16V89.1562H1058.74L1059.01 90.9141H1059.1C1059.6 90.2109 1060.18 89.7031 1060.85 89.3906C1061.51 89.0781 1062.27 88.9219 1063.13 88.9219C1064.84 88.9219 1066.15 89.5039 1067.07 90.668C1068 91.832 1068.46 93.4648 1068.46 95.5664C1068.46 97.6758 1067.99 99.3164 1067.05 100.488C1066.11 101.652 1064.8 102.234 1063.13 102.234ZM1062.85 90.5742C1061.54 90.5742 1060.59 90.9375 1060 91.6641C1059.42 92.3906 1059.12 93.5469 1059.1 95.1328V95.5664C1059.1 97.3711 1059.4 98.6641 1060 99.4453C1060.61 100.219 1061.57 100.605 1062.9 100.605C1064.01 100.605 1064.88 100.156 1065.5 99.2578C1066.13 98.3594 1066.45 97.1211 1066.45 95.543C1066.45 93.9414 1066.13 92.7148 1065.5 91.8633C1064.88 91.0039 1063.99 90.5742 1062.85 90.5742ZM1071.59 100.758C1071.59 100.234 1071.71 99.8398 1071.95 99.5742C1072.19 99.3008 1072.53 99.1641 1072.98 99.1641C1073.43 99.1641 1073.78 99.3008 1074.03 99.5742C1074.29 99.8398 1074.42 100.234 1074.42 100.758C1074.42 101.266 1074.29 101.656 1074.03 101.93C1073.77 102.203 1073.42 102.34 1072.98 102.34C1072.58 102.34 1072.25 102.219 1071.98 101.977C1071.72 101.727 1071.59 101.32 1071.59 100.758Z" fill="black"/>
<g clip-path="url(#clip0)">
<path d="M56.0938 72.2656C59.5455 72.2656 62.3438 69.4674 62.3438 66.0156C62.3438 62.5638 59.5455 59.7656 56.0938 59.7656C52.642 59.7656 49.8438 62.5638 49.8438 66.0156C49.8438 69.4674 52.642 72.2656 56.0938 72.2656Z" fill="black"/>
<path d="M67.0313 88.8281V93.3594C68.2031 93.6719 69.2969 94.2187 70.1563 95V88.8281C70.1563 81.6406 64.1406 75.8594 56.7188 75.8594H55.3906C48.0469 75.8594 42.0312 81.6406 42.0312 88.8281V95.3125C42.8906 94.6875 43.9844 94.2187 45.1563 94.1406V88.8281C45.1563 83.3594 49.7656 78.9844 55.4688 78.9844H56.7969C62.4219 78.9844 67.0313 83.3594 67.0313 88.8281Z" fill="black"/>
<path d="M104.453 106.406C107.085 106.406 109.219 104.273 109.219 101.641C109.219 99.0086 107.085 96.875 104.453 96.875C101.821 96.875 99.6875 99.0086 99.6875 101.641C99.6875 104.273 101.821 106.406 104.453 106.406Z" fill="black"/>
<path d="M115.625 120.312H112.5V119.141C112.5 115.156 109.141 111.953 104.922 111.953H103.906C99.7656 111.953 96.3281 115.156 96.3281 119.141V120.312H93.2031V119.141C93.2031 113.437 97.9687 108.828 103.906 108.828H104.922C110.781 108.828 115.625 113.437 115.625 119.141V120.312Z" fill="black"/>
<path d="M123.828 106.406C126.46 106.406 128.594 104.273 128.594 101.641C128.594 99.0086 126.46 96.875 123.828 96.875C121.196 96.875 119.062 99.0086 119.062 101.641C119.062 104.273 121.196 106.406 123.828 106.406Z" fill="black"/>
<path d="M135 120.234H131.875V119.062C131.875 115.078 128.984 111.953 124.844 111.953H123.828C119.687 111.953 116.25 115.156 116.25 119.141V120.312H113.125V119.141C113.125 113.437 117.891 108.828 123.828 108.828H124.844C130.703 108.828 135 113.359 135 119.062V120.234Z" fill="black"/>
<path d="M85 106.406C87.632 106.406 89.7656 104.273 89.7656 101.641C89.7656 99.0086 87.632 96.875 85 96.875C82.368 96.875 80.2344 99.0086 80.2344 101.641C80.2344 104.273 82.368 106.406 85 106.406Z" fill="black"/>
<path d="M96.1719 120.312H93.0469V119.141C93.0469 115.156 89.6875 111.953 85.4688 111.953H84.4531C80.3125 111.953 76.875 115.156 76.875 119.141V120.312H73.75V119.141C73.75 113.437 78.5156 108.828 84.4531 108.828H85.4688C91.3281 108.828 96.1719 113.437 96.1719 119.141V120.312Z" fill="black"/>
<path d="M65.5469 106.406C68.1789 106.406 70.3125 104.273 70.3125 101.641C70.3125 99.0086 68.1789 96.875 65.5469 96.875C62.9149 96.875 60.7812 99.0086 60.7812 101.641C60.7812 104.273 62.9149 106.406 65.5469 106.406Z" fill="black"/>
<path d="M76.7188 120.312H73.5938V119.141C73.5938 115.156 70.2344 111.953 66.0156 111.953H65C60.8594 111.953 57.4219 115.156 57.4219 119.141V120.312H54.2969V119.141C54.2969 113.437 59.0625 108.828 65 108.828H66.0156C71.875 108.828 76.7188 113.437 76.7188 119.141V120.312Z" fill="black"/>
<path d="M46.1719 106.406C48.8039 106.406 50.9375 104.273 50.9375 101.641C50.9375 99.0086 48.8039 96.875 46.1719 96.875C43.5399 96.875 41.4062 99.0086 41.4062 101.641C41.4062 104.273 43.5399 106.406 46.1719 106.406Z" fill="black"/>
<path d="M57.0313 120.156H53.9063V119.141C53.9063 115.312 50.625 112.109 46.5625 112.109H45.5469C41.4844 112.109 38.2031 115.234 38.2031 119.141V120.156H35.0781V119.141C35.0781 113.594 39.7656 108.984 45.5469 108.984H46.5625C52.3437 108.984 57.0313 113.516 57.0313 119.141V120.156Z" fill="black"/>
<path d="M129.531 53.125H78.75C77.8906 53.125 77.1875 52.4219 77.1875 51.5625C77.1875 50.7031 77.8906 50 78.75 50H129.531C130.391 50 131.094 50.7031 131.094 51.5625C131.094 52.4219 130.391 53.125 129.531 53.125Z" fill="black"/>
<path d="M129.531 83.5938H78.75C77.8906 83.5938 77.1875 82.8906 77.1875 82.0312C77.1875 81.1719 77.8906 80.4688 78.75 80.4688H129.531C130.391 80.4688 131.094 81.1719 131.094 82.0312C131.094 82.8906 130.391 83.5938 129.531 83.5938Z" fill="black"/>
<path d="M80.3125 82.8125C79.8437 82.8125 79.5312 82.5 79.5312 82.0312V51.5625C79.5312 51.0937 79.8437 50.7812 80.3125 50.7812C80.7813 50.7812 81.0938 51.0937 81.0938 51.5625V82.0312C81.0938 82.5 80.7813 82.8125 80.3125 82.8125Z" fill="black"/>
<path d="M127.969 82.8125C127.5 82.8125 127.188 82.5 127.188 82.0312V51.5625C127.188 51.0937 127.5 50.7812 127.969 50.7812C128.438 50.7812 128.75 51.0937 128.75 51.5625V82.0312C128.75 82.5 128.438 82.8125 127.969 82.8125Z" fill="black"/>
<path d="M100.781 64.6094C98.5938 63.8281 97.7344 62.0313 97.8906 59.8438C97.9688 58.6719 96.0156 58.9844 95.625 59.7656C94.4531 62.4219 91.6406 63.5156 88.9063 64.0625C87.5 64.375 87.8906 65.9375 89.375 65.7031C91.1719 65.3125 93.0469 64.6875 94.6094 63.75C93.75 70 92.2656 75.1563 84.9219 76.7969C83.5938 77.1094 83.75 77.8125 85.0781 77.5C88.6719 76.6406 92.1094 75.2344 94.2969 72.1875C95.9375 70 96.4063 67.1094 96.7188 64.375C97.3438 65.2344 98.2813 65.8594 99.4531 66.25C100.469 66.4844 102.109 65.0781 100.781 64.6094Z" fill="black"/>
<path d="M121.953 61.4844H107.656C107.187 61.4844 106.875 61.0938 106.875 60.7031V60.5469C106.875 60.1563 107.187 59.7656 107.656 59.7656H121.953C122.344 59.7656 122.734 60.1563 122.734 60.5469V60.7031C122.734 61.0938 122.422 61.4844 121.953 61.4844Z" fill="black"/>
<path d="M121.953 71.0938H107.656C107.187 71.0938 106.875 70.7031 106.875 70.3125V70.1563C106.875 69.6875 107.187 69.375 107.656 69.375H121.953C122.344 69.375 122.734 69.6875 122.734 70.1563V70.3125C122.734 70.7813 122.422 71.0938 121.953 71.0938Z" fill="black"/>
<path d="M121.953 66.0156H107.656C107.187 66.0156 106.875 65.625 106.875 65.2344V65.0781C106.875 64.6094 107.187 64.2969 107.656 64.2969H121.953C122.344 64.2969 122.734 64.6094 122.734 65.0781V65.2344C122.734 65.7031 122.422 66.0156 121.953 66.0156Z" fill="black"/>
</g>
<rect x="552" y="69" width="312" height="46" fill="#0C80EB" fill-opacity="0.2"/>
<defs>
<clipPath id="clip0">
<rect width="100" height="70.3125" fill="white" transform="translate(35 50)"/>
</clipPath>
</defs>
</svg>
