<?xml version="1.0" encoding="UTF-8"?>
<svg width="50px" height="50px" viewBox="0 0 50 50" version="1.1" xmlns="http://www.w3.org/2000/svg" xmlns:xlink="http://www.w3.org/1999/xlink">
    <!-- Generator: Sketch 64 (93537) - https://sketch.com -->
    <title>bg-white copy 9</title>
    <desc>Created with Sketch.</desc>
    <defs>
        <polygon id="path-1" points="0 0 40.234375 0 40.234375 40.234375 0 40.234375"></polygon>
        <radialGradient cx="100%" cy="50%" fx="100%" fy="50%" r="100.122549%" gradientTransform="translate(1.000000,0.500000),scale(0.998776,1.000000),rotate(180.000000),translate(-1.000000,-0.500000)" id="radialGradient-3">
            <stop stop-color="#3C82E9" offset="0%"></stop>
            <stop stop-color="#33568B" offset="100%"></stop>
        </radialGradient>
    </defs>
    <g id="Branding" stroke="none" stroke-width="1" fill="none" fill-rule="evenodd">
        <g id="bg-white-copy-9">
            <rect id="Rectangle" stroke="#979797" stroke-width="0.5" fill="#FFFFFF" x="0.25" y="0.25" width="49.5" height="49.5" rx="8"></rect>
            <g id="Chorus_Mark_Blue_RGB" transform="translate(4.882812, 4.882812)">
                <mask id="mask-2" fill="white">
                    <use xlink:href="#path-1"></use>
                </mask>
                <use id="Clip-2" fill="#FFFFFF" xlink:href="#path-1"></use>
                <path d="M34.6767048,22.4814626 C34.6767048,23.3459273 33.9763844,24.0453904 33.1108604,24.0453904 C32.2462341,24.0453904 31.5459138,23.3459273 31.5459138,22.4814626 L31.5459138,17.7520157 C31.5459138,16.8884477 32.2462341,16.1880878 33.1108604,16.1880878 C33.9763844,16.1880878 34.6767048,16.8884477 34.6767048,17.7520157 L34.6767048,22.4814626 Z M29.5823234,30.1441709 C29.5823234,31.0077388 28.8811052,31.7080987 28.0164789,31.7080987 C27.1518527,31.7080987 26.4506345,31.0077388 26.4506345,30.1441709 L26.4506345,10.0902041 C26.4506345,9.22573941 27.1518527,8.52537952 28.0164789,8.52537952 C28.8811052,8.52537952 29.5823234,9.22573941 29.5823234,10.0902041 L29.5823234,30.1441709 Z M24.4870441,27.766893 C24.4870441,28.6304609 23.7867238,29.3317176 22.9220975,29.3317176 C22.0565734,29.3317176 21.3562531,28.6304609 21.3562531,27.766893 L21.3562531,12.4665853 C21.3562531,11.6030173 22.0565734,10.9026574 22.9220975,10.9026574 C23.7867238,10.9026574 24.4870441,11.6030173 24.4870441,12.4665853 L24.4870441,27.766893 Z M19.3926627,32.5402805 C19.3926627,33.4038485 18.6923424,34.1042083 17.8268183,34.1042083 C16.962192,34.1042083 16.2618717,33.4038485 16.2618717,32.5402805 L16.2618717,7.69409449 C16.2618717,6.83052654 16.962192,6.13016666 17.8268183,6.13016666 C18.6923424,6.13016666 19.3926627,6.83052654 19.3926627,7.69409449 L19.3926627,32.5402805 Z M14.2982813,27.9570035 C14.2982813,28.8205714 13.5970631,29.5209313 12.7324369,29.5209313 C11.8678106,29.5209313 11.1665925,28.8205714 11.1665925,27.9570035 L11.1665925,12.2773715 C11.1665925,11.4138036 11.8678106,10.7125469 12.7324369,10.7125469 C13.5970631,10.7125469 14.2982813,11.4138036 14.2982813,12.2773715 L14.2982813,27.9570035 Z M9.20389987,22.6904048 C9.20389987,23.5539727 8.5026817,24.2543326 7.63805546,24.2543326 C6.77342922,24.2543326 6.07221105,23.5539727 6.07221105,22.6904048 L6.07221105,17.5439702 C6.07221105,16.6804023 6.77342922,15.9791457 7.63805546,15.9791457 C8.5026817,15.9791457 9.20389987,16.6804023 9.20389987,17.5439702 L9.20389987,22.6904048 Z M20.092983,0 C8.96866407,0 -0.0493068321,9.00603624 -0.0493068321,20.1167391 C-0.0493068321,31.227442 8.96866407,40.234375 20.092983,40.234375 C31.2164041,40.234375 40.234375,31.227442 40.234375,20.1167391 C40.234375,9.00603624 31.2164041,0 20.092983,0 L20.092983,0 Z" id="Fill-1" fill="url(#radialGradient-3)" mask="url(#mask-2)"></path>
            </g>
        </g>
    </g>
</svg>