<?xml version="1.0" encoding="UTF-8"?>
<svg width="50px" height="50px" viewBox="0 0 50 50" version="1.1" xmlns="http://www.w3.org/2000/svg" xmlns:xlink="http://www.w3.org/1999/xlink">
    <!-- Generator: Sketch 54.1 (76490) - https://sketchapp.com -->
    <title>DS-App-Icon</title>
    <desc>Created with Sketch.</desc>
    <defs>
        <linearGradient x1="100%" y1="100%" x2="-12.1124268%" y2="-12.0903015%" id="linearGradient-1">
            <stop stop-color="#1B3253" offset="0%"></stop>
            <stop stop-color="#026DAF" offset="73.614502%"></stop>
            <stop stop-color="#009CFC" offset="98.9812723%"></stop>
            <stop stop-color="#009CFC" offset="98.9812723%"></stop>
            <stop stop-color="#009EFF" offset="100%"></stop>
        </linearGradient>
    </defs>
    <g id="Surveys-Front" stroke="none" stroke-width="1" fill="none" fill-rule="evenodd">
        <g id="DS-App-Icon" fill-rule="nonzero">
            <rect id="Rectangle-26" fill="url(#linearGradient-1)" x="0" y="0" width="50" height="50" rx="11"></rect>
            <path d="M23.780843,10.4347826 L16.4341736,10.4347826 C16.0509579,10.4347826 15.7088274,10.675555 15.5785229,11.0368531 L14.666577,13.5654749 C14.4520615,14.1602916 14.8914797,14.7881227 15.5222277,14.7881227 L23.780843,14.7881227 C28.9704861,14.7881227 34.5716316,18.6834464 34.5716316,24.9765435 C34.5716316,29.9418119 30.4461265,35.3007418 23.780843,35.3007418 L19.3879586,35.3007418 C19.0142954,35.3007418 18.7537791,34.9291208 18.8800956,34.5765646 L21.1233733,28.3170398 C21.3351065,27.7263151 20.8985632,27.103878 20.2725452,27.103878 L17.6313983,27.103878 C17.2749854,27.103878 17.0267113,26.7489037 17.1482052,26.4129011 L19.5563806,19.7506941 C19.6825116,19.4018577 19.424685,19.0333988 19.0546387,19.0335847 L15.5270503,19.0354447 C15.3024258,19.0355377 15.1020073,19.176709 15.0256795,19.388559 L11.1414926,30.1708665 C10.9286465,30.7618703 11.3652825,31.3854234 11.991857,31.3854234 L14.6251207,31.3854234 C14.9807916,31.3854234 15.228973,31.7390956 15.108963,32.0748192 L12.8343381,38.43441 C12.621863,39.0284827 13.061003,39.6540818 13.6903598,39.6540818 L23.780843,39.6540818 C27.5645887,39.6540818 31.3573305,38.173829 34.1866537,35.5932212 C37.2344805,32.8129462 38.9130435,29.042612 38.9130435,24.9765435 C38.9130435,15.9944027 31.0584185,10.4347826 23.780843,10.4347826" id="Fill-4" fill="#FFFFFE"></path>
        </g>
    </g>
</svg>