<?xml version="1.0" encoding="UTF-8"?>
<svg width="739px" height="258px" viewBox="0 0 739 258" version="1.1" xmlns="http://www.w3.org/2000/svg" xmlns:xlink="http://www.w3.org/1999/xlink">
    <!-- Generator: Sketch 53.2 (72643) - https://sketchapp.com -->
    <title>DS-Managers</title>
    <desc>Created with Sketch.</desc>
    <defs>
        <circle id="path-1" cx="50" cy="50" r="50"></circle>
        <linearGradient x1="50%" y1="0%" x2="50%" y2="100%" id="linearGradient-3">
            <stop stop-color="#806A6A" offset="0%"></stop>
            <stop stop-color="#665654" offset="100%"></stop>
        </linearGradient>
        <path d="M65,16 C66.6296296,19.1111111 67.8518519,26.3333333 68.6666667,37.6666667 L0,37.6666667 C0.814814815,26.3333333 2.03703704,19.1111111 3.66666667,16 C6.11111111,11.3333333 16.3333333,6 34.3333333,0 C52.3333333,6 62.5555556,11.3333333 65,16 Z" id="path-4"></path>
        <linearGradient x1="50%" y1="100%" x2="50%" y2="0%" id="linearGradient-6">
            <stop stop-color="#E6864E" offset="0%"></stop>
            <stop stop-color="#E67240" offset="100%"></stop>
        </linearGradient>
        <path d="M20.0597162,8.23498847 C21.3930495,2.40165513 15.0706843,-2.07470343 8.55971615,0.998229598 C-6.77361718,8.23498847 2.34780634,18.3333333 8.014473,17.6666667 C13.6811397,17 18.7263828,14.0683218 20.0597162,8.23498847 Z" id="path-7"></path>
        <linearGradient x1="50%" y1="100%" x2="50%" y2="0%" id="linearGradient-9">
            <stop stop-color="#E6864E" offset="0%"></stop>
            <stop stop-color="#E67240" offset="100%"></stop>
        </linearGradient>
        <linearGradient x1="50%" y1="0%" x2="50%" y2="100%" id="linearGradient-10">
            <stop stop-color="#FFD4B3" offset="0%"></stop>
            <stop stop-color="#FFDCC2" offset="100%"></stop>
        </linearGradient>
        <linearGradient x1="50%" y1="100%" x2="50%" y2="0%" id="linearGradient-11">
            <stop stop-color="#E6864E" offset="0%"></stop>
            <stop stop-color="#E57442" offset="100%"></stop>
        </linearGradient>
    </defs>
    <g id="DS-Managers" stroke="none" stroke-width="1" fill="none" fill-rule="evenodd">
        <rect fill="#FFFFFF" x="0" y="0" width="739" height="258"></rect>
        <g id="Manager" transform="translate(50.000000, 29.000000)">
            <rect id="Rectangle" fill-opacity="0.1" fill="#026DAF" x="50" y="0" width="589" height="200" rx="4"></rect>
            <text id="MANAGER-|-COMMUNICAT" font-family="OpenSans-SemiBold, Open Sans" font-size="18" font-weight="500" fill="#026DAF">
                <tspan x="120" y="181">MANAGER | COMMUNICATOR | MARKETER</tspan>
            </text>
            <text id="“I-want-to-connect-w" font-family="OpenSans-Regular, Open Sans" font-size="20" font-weight="normal" fill="#888888">
                <tspan x="120" y="34">“I want to connect with employees so that they </tspan>
                <tspan x="120" y="61">receive important, relevant, and interesting content </tspan>
                <tspan x="120" y="88">using the Community App. For me, it’s important to </tspan>
                <tspan x="120" y="115">keep employees informed and engaged, so that </tspan>
                <tspan x="120" y="142">they are productive members of the team.”</tspan>
            </text>
            <g id="User-06a" transform="translate(50.000000, 100.000000) scale(-1, 1) translate(-50.000000, -100.000000) translate(0.000000, 50.000000)">
                <mask id="mask-2" fill="white">
                    <use xlink:href="#path-1"></use>
                </mask>
                <circle stroke="#E8E8E8" cx="50" cy="50" r="49.5"></circle>
                <g id="body" mask="url(#mask-2)">
                    <g transform="translate(15.666667, 65.000000)">
                        <mask id="mask-5" fill="white">
                            <use xlink:href="#path-4"></use>
                        </mask>
                        <use id="Mask" stroke="none" fill="url(#linearGradient-3)" fill-rule="nonzero" xlink:href="#path-4"></use>
                        <path d="M7.66666667,16.6666667 C6.56209717,16.6666667 5.66666667,15.7712362 5.66666667,14.6666667 C5.66666667,13.5620972 6.56209717,12.6666667 7.66666667,12.6666667 C8.77123617,12.6666667 9.66666667,13.5620972 9.66666667,14.6666667 C9.66666667,15.7712362 8.77123617,16.6666667 7.66666667,16.6666667 Z M21,16.6666667 C19.8954305,16.6666667 19,15.7712362 19,14.6666667 C19,13.5620972 19.8954305,12.6666667 21,12.6666667 C22.1045695,12.6666667 23,13.5620972 23,14.6666667 C23,15.7712362 22.1045695,16.6666667 21,16.6666667 Z M34.3333333,16.6666667 C33.2287638,16.6666667 32.3333333,15.7712362 32.3333333,14.6666667 C32.3333333,13.5620972 33.2287638,12.6666667 34.3333333,12.6666667 C35.4379028,12.6666667 36.3333333,13.5620972 36.3333333,14.6666667 C36.3333333,15.7712362 35.4379028,16.6666667 34.3333333,16.6666667 Z M47.6666667,16.6666667 C46.5620972,16.6666667 45.6666667,15.7712362 45.6666667,14.6666667 C45.6666667,13.5620972 46.5620972,12.6666667 47.6666667,12.6666667 C48.7712362,12.6666667 49.6666667,13.5620972 49.6666667,14.6666667 C49.6666667,15.7712362 48.7712362,16.6666667 47.6666667,16.6666667 Z M61,16.6666667 C59.8954305,16.6666667 59,15.7712362 59,14.6666667 C59,13.5620972 59.8954305,12.6666667 61,12.6666667 C62.1045695,12.6666667 63,13.5620972 63,14.6666667 C63,15.7712362 62.1045695,16.6666667 61,16.6666667 Z M1,10 C-0.1045695,10 -1,9.1045695 -1,8 C-1,6.8954305 -0.1045695,6 1,6 C2.1045695,6 3,6.8954305 3,8 C3,9.1045695 2.1045695,10 1,10 Z M14.3333333,10 C13.2287638,10 12.3333333,9.1045695 12.3333333,8 C12.3333333,6.8954305 13.2287638,6 14.3333333,6 C15.4379028,6 16.3333333,6.8954305 16.3333333,8 C16.3333333,9.1045695 15.4379028,10 14.3333333,10 Z M54.3333333,10 C53.2287638,10 52.3333333,9.1045695 52.3333333,8 C52.3333333,6.8954305 53.2287638,6 54.3333333,6 C55.4379028,6 56.3333333,6.8954305 56.3333333,8 C56.3333333,9.1045695 55.4379028,10 54.3333333,10 Z M67.6666667,10 C66.5620972,10 65.6666667,9.1045695 65.6666667,8 C65.6666667,6.8954305 66.5620972,6 67.6666667,6 C68.7712362,6 69.6666667,6.8954305 69.6666667,8 C69.6666667,9.1045695 68.7712362,10 67.6666667,10 Z M7.66666667,30 C6.56209717,30 5.66666667,29.1045695 5.66666667,28 C5.66666667,26.8954305 6.56209717,26 7.66666667,26 C8.77123617,26 9.66666667,26.8954305 9.66666667,28 C9.66666667,29.1045695 8.77123617,30 7.66666667,30 Z M21,30 C19.8954305,30 19,29.1045695 19,28 C19,26.8954305 19.8954305,26 21,26 C22.1045695,26 23,26.8954305 23,28 C23,29.1045695 22.1045695,30 21,30 Z M34.3333333,30 C33.2287638,30 32.3333333,29.1045695 32.3333333,28 C32.3333333,26.8954305 33.2287638,26 34.3333333,26 C35.4379028,26 36.3333333,26.8954305 36.3333333,28 C36.3333333,29.1045695 35.4379028,30 34.3333333,30 Z M47.6666667,30 C46.5620972,30 45.6666667,29.1045695 45.6666667,28 C45.6666667,26.8954305 46.5620972,26 47.6666667,26 C48.7712362,26 49.6666667,26.8954305 49.6666667,28 C49.6666667,29.1045695 48.7712362,30 47.6666667,30 Z M61,30 C59.8954305,30 59,29.1045695 59,28 C59,26.8954305 59.8954305,26 61,26 C62.1045695,26 63,26.8954305 63,28 C63,29.1045695 62.1045695,30 61,30 Z M1,23.3333333 C-0.1045695,23.3333333 -1,22.4379028 -1,21.3333333 C-1,20.2287638 -0.1045695,19.3333333 1,19.3333333 C2.1045695,19.3333333 3,20.2287638 3,21.3333333 C3,22.4379028 2.1045695,23.3333333 1,23.3333333 Z M14.3333333,23.3333333 C13.2287638,23.3333333 12.3333333,22.4379028 12.3333333,21.3333333 C12.3333333,20.2287638 13.2287638,19.3333333 14.3333333,19.3333333 C15.4379028,19.3333333 16.3333333,20.2287638 16.3333333,21.3333333 C16.3333333,22.4379028 15.4379028,23.3333333 14.3333333,23.3333333 Z M27.6666667,23.3333333 C26.5620972,23.3333333 25.6666667,22.4379028 25.6666667,21.3333333 C25.6666667,20.2287638 26.5620972,19.3333333 27.6666667,19.3333333 C28.7712362,19.3333333 29.6666667,20.2287638 29.6666667,21.3333333 C29.6666667,22.4379028 28.7712362,23.3333333 27.6666667,23.3333333 Z M41,23.3333333 C39.8954305,23.3333333 39,22.4379028 39,21.3333333 C39,20.2287638 39.8954305,19.3333333 41,19.3333333 C42.1045695,19.3333333 43,20.2287638 43,21.3333333 C43,22.4379028 42.1045695,23.3333333 41,23.3333333 Z M54.3333333,23.3333333 C53.2287638,23.3333333 52.3333333,22.4379028 52.3333333,21.3333333 C52.3333333,20.2287638 53.2287638,19.3333333 54.3333333,19.3333333 C55.4379028,19.3333333 56.3333333,20.2287638 56.3333333,21.3333333 C56.3333333,22.4379028 55.4379028,23.3333333 54.3333333,23.3333333 Z M67.6666667,23.3333333 C66.5620972,23.3333333 65.6666667,22.4379028 65.6666667,21.3333333 C65.6666667,20.2287638 66.5620972,19.3333333 67.6666667,19.3333333 C68.7712362,19.3333333 69.6666667,20.2287638 69.6666667,21.3333333 C69.6666667,22.4379028 68.7712362,23.3333333 67.6666667,23.3333333 Z M1,36.6666667 C-0.1045695,36.6666667 -1,35.7712362 -1,34.6666667 C-1,33.5620972 -0.1045695,32.6666667 1,32.6666667 C2.1045695,32.6666667 3,33.5620972 3,34.6666667 C3,35.7712362 2.1045695,36.6666667 1,36.6666667 Z M14.3333333,36.6666667 C13.2287638,36.6666667 12.3333333,35.7712362 12.3333333,34.6666667 C12.3333333,33.5620972 13.2287638,32.6666667 14.3333333,32.6666667 C15.4379028,32.6666667 16.3333333,33.5620972 16.3333333,34.6666667 C16.3333333,35.7712362 15.4379028,36.6666667 14.3333333,36.6666667 Z M27.6666667,36.6666667 C26.5620972,36.6666667 25.6666667,35.7712362 25.6666667,34.6666667 C25.6666667,33.5620972 26.5620972,32.6666667 27.6666667,32.6666667 C28.7712362,32.6666667 29.6666667,33.5620972 29.6666667,34.6666667 C29.6666667,35.7712362 28.7712362,36.6666667 27.6666667,36.6666667 Z M41,36.6666667 C39.8954305,36.6666667 39,35.7712362 39,34.6666667 C39,33.5620972 39.8954305,32.6666667 41,32.6666667 C42.1045695,32.6666667 43,33.5620972 43,34.6666667 C43,35.7712362 42.1045695,36.6666667 41,36.6666667 Z M54.3333333,36.6666667 C53.2287638,36.6666667 52.3333333,35.7712362 52.3333333,34.6666667 C52.3333333,33.5620972 53.2287638,32.6666667 54.3333333,32.6666667 C55.4379028,32.6666667 56.3333333,33.5620972 56.3333333,34.6666667 C56.3333333,35.7712362 55.4379028,36.6666667 54.3333333,36.6666667 Z M67.6666667,36.6666667 C66.5620972,36.6666667 65.6666667,35.7712362 65.6666667,34.6666667 C65.6666667,33.5620972 66.5620972,32.6666667 67.6666667,32.6666667 C68.7712362,32.6666667 69.6666667,33.5620972 69.6666667,34.6666667 C69.6666667,35.7712362 68.7712362,36.6666667 67.6666667,36.6666667 Z" id="Combined-Shape" stroke="none" fill="#13001E" fill-rule="nonzero" opacity="0.400000006" mask="url(#mask-5)"></path>
                    </g>
                </g>
                <g id="bun" mask="url(#mask-2)">
                    <g transform="translate(53.333333, 9.333333)">
                        <mask id="mask-8" fill="white">
                            <use xlink:href="#path-7"></use>
                        </mask>
                        <use id="Mask" stroke="none" fill="url(#linearGradient-6)" fill-rule="evenodd" transform="translate(10.173903, 8.849024) scale(-1, 1) translate(-10.173903, -8.849024) " xlink:href="#path-7"></use>
                        <path d="M5.83333333,9.16666667 C13.3888889,14.0555556 18.1111111,15.1666667 20,12.5 C20.2922958,14.1702619 18.9479436,18.8883644 16.8333333,18.8333333 C12.6162505,18.723587 8.94958385,15.5013648 5.83333333,9.16666667 Z" id="Path-3" stroke="none" fill="#E0713F" fill-rule="evenodd" opacity="0.600000024" style="mix-blend-mode: multiply;" mask="url(#mask-8)"></path>
                    </g>
                </g>
                <path d="M57.3333333,54.3333333 C50.172167,57.7735015 49.127577,57.5892296 33.3333333,44.6666667 C9.5,25.1666667 32,7.33333333 56.1666667,16.8333333 C82.3333333,28.3333333 73.5667766,46.5349145 57.3333333,54.3333333 Z" id="hair" fill="url(#linearGradient-9)" mask="url(#mask-2)"></path>
                <path d="M58,68 C55.5555556,72 44.4444444,72 42,68 L42,61.3333333 C41.274976,61.3546429 40.6638649,61.3546429 40.1666667,61.3333333 C32.3702304,60.9991844 29.7648624,48.4577439 30.988383,35.9125814 C31.8844045,26.7253756 39.6666667,39.3333333 52.3333333,30.5 C51.8333333,40.1666667 56,39.1666667 57.8333333,38 C66.1666667,34.1666667 66.2363045,49.8807191 58,48.6666667 L58,68 Z" id="face" fill="url(#linearGradient-10)" mask="url(#mask-2)"></path>
                <path d="M41.9679303,61.1370805 C44.9738582,61.0196921 48.7672209,59.4732945 53.3480183,56.4978876 C51.0487224,60.9982912 47.2204602,63.5440796 41.8632318,64.1352529 L41.9679303,61.1370805 Z" id="shade" fill="#FFBB94" fill-rule="nonzero" mask="url(#mask-2)" transform="translate(47.605625, 60.316570) rotate(-2.000000) translate(-47.605625, -60.316570) "></path>
                <path d="M58,67.1534346 L58,65 C58.6113454,65 60.3618007,66.4441182 61.2619725,67.6666667 C64.8207931,72.5 60.873318,76.8333333 57.6541265,76.8333333 C53.5919078,76.8333333 50.9006229,73.4394922 50,71.8065664 C49.0993771,73.4394922 46.4080922,76.8333333 42.3458735,76.8333333 C39.126682,76.8333333 35.1792069,72.5 38.7380275,67.6666667 C39.6381993,66.4441182 41.3886546,65 42,65 L42,67.1534346 C42,69.7026359 47.5798428,70.8826052 49.9889689,70.9916352 C52.2693524,70.8826048 58,69.7026355 58,67.1534346 Z" id="collar" fill="#FFF9F5" fill-rule="nonzero" mask="url(#mask-2)"></path>
                <path d="M59.131412,23.8092718 C64.4647453,37.1426051 61.4647453,43.6426051 57.2980787,51.4759384 C54.5203009,56.6981606 54.8536342,61.7537162 58.2980787,66.6426051 C54.2980787,64.0870495 52.2980787,59.9759384 52.2980787,54.3092718 C52.2980787,45.8092718 58.2980787,40.4759384 53.2980787,33.4759384 C48.2980787,26.4759384 53.7980787,10.4759384 59.131412,23.8092718 Z" id="hair" fill="url(#linearGradient-11)" mask="url(#mask-2)" transform="translate(56.664079, 42.654636) scale(-1, 1) translate(-56.664079, -42.654636) "></path>
            </g>
        </g>
    </g>
</svg>