<?xml version="1.0" encoding="UTF-8"?>
<svg width="1440px" height="258px" viewBox="0 0 1440 258" version="1.1" xmlns="http://www.w3.org/2000/svg" xmlns:xlink="http://www.w3.org/1999/xlink">
    <!-- Generator: Sketch 53.2 (72643) - https://sketchapp.com -->
    <title>DS-Users</title>
    <desc>Created with Sketch.</desc>
    <defs>
        <circle id="path-1" cx="50" cy="50" r="50"></circle>
        <linearGradient x1="50%" y1="0%" x2="50%" y2="100%" id="linearGradient-3">
            <stop stop-color="#806A6A" offset="0%"></stop>
            <stop stop-color="#665654" offset="100%"></stop>
        </linearGradient>
        <path d="M65,16 C66.6296296,19.1111111 67.8518519,26.3333333 68.6666667,37.6666667 L0,37.6666667 C0.814814815,26.3333333 2.03703704,19.1111111 3.66666667,16 C6.11111111,11.3333333 16.3333333,6 34.3333333,0 C52.3333333,6 62.5555556,11.3333333 65,16 Z" id="path-4"></path>
        <linearGradient x1="50%" y1="100%" x2="50%" y2="0%" id="linearGradient-6">
            <stop stop-color="#E6864E" offset="0%"></stop>
            <stop stop-color="#E67240" offset="100%"></stop>
        </linearGradient>
        <path d="M20.0597162,8.23498847 C21.3930495,2.40165513 15.0706843,-2.07470343 8.55971615,0.998229598 C-6.77361718,8.23498847 2.34780634,18.3333333 8.014473,17.6666667 C13.6811397,17 18.7263828,14.0683218 20.0597162,8.23498847 Z" id="path-7"></path>
        <linearGradient x1="50%" y1="100%" x2="50%" y2="0%" id="linearGradient-9">
            <stop stop-color="#E6864E" offset="0%"></stop>
            <stop stop-color="#E67240" offset="100%"></stop>
        </linearGradient>
        <linearGradient x1="50%" y1="0%" x2="50%" y2="100%" id="linearGradient-10">
            <stop stop-color="#FFD4B3" offset="0%"></stop>
            <stop stop-color="#FFDCC2" offset="100%"></stop>
        </linearGradient>
        <linearGradient x1="50%" y1="100%" x2="50%" y2="0%" id="linearGradient-11">
            <stop stop-color="#E6864E" offset="0%"></stop>
            <stop stop-color="#E57442" offset="100%"></stop>
        </linearGradient>
        <circle id="path-12" cx="25" cy="25" r="25"></circle>
        <linearGradient x1="50%" y1="0%" x2="50%" y2="100%" id="linearGradient-14">
            <stop stop-color="#F7B186" offset="0%"></stop>
            <stop stop-color="#FFC299" offset="100%"></stop>
        </linearGradient>
        <path d="M37.5,8.71797208 C38.5578032,10.8687277 39.3911365,14.4242832 40,19.3846387 L0,19.3846387 C0.609154628,14.4237274 1.44248796,10.8681718 2.5,8.71797208 C3.20268771,7.2892234 6.81379882,5.19983973 13.3333333,2.44982107 C13.4631582,1.19274726 13.6853804,0.474120036 14,0.293939394 C14.4719293,0.0236684302 25.4378246,0.0236976042 26,0.293939394 C26.3747836,0.474100587 26.5970058,1.19235232 26.6666667,2.44869459 C33.1875928,5.20231775 36.7987039,7.29207691 37.5,8.71797208 Z" id="path-15"></path>
        <circle id="path-17" cx="25" cy="25" r="25"></circle>
        <filter x="-155.3%" y="-109.0%" width="412.8%" height="319.4%" filterUnits="objectBoundingBox" id="filter-19">
            <feOffset dx="0" dy="7" in="SourceAlpha" result="shadowOffsetOuter1"></feOffset>
            <feGaussianBlur stdDeviation="6" in="shadowOffsetOuter1" result="shadowBlurOuter1"></feGaussianBlur>
            <feColorMatrix values="0 0 0 0 0   0 0 0 0 0   0 0 0 0 0.145098039  0 0 0 0.04 0" type="matrix" in="shadowBlurOuter1" result="shadowMatrixOuter1"></feColorMatrix>
            <feMerge>
                <feMergeNode in="shadowMatrixOuter1"></feMergeNode>
                <feMergeNode in="SourceGraphic"></feMergeNode>
            </feMerge>
        </filter>
        <linearGradient x1="50%" y1="0%" x2="50%" y2="100%" id="linearGradient-20">
            <stop stop-color="#F7B186" offset="0%"></stop>
            <stop stop-color="#FFC299" offset="100%"></stop>
        </linearGradient>
        <path d="M18.3333333,26.7973003 C15.2777778,29.0195226 12.2222222,30.7973003 9.16666667,30.7973003 C6.11111111,30.7973003 3.05555556,29.0195226 -1.45519152e-11,26.7973003 C2.51860881,26.0307672 3.79611951,24.8865086 3.8325321,23.3645245 C3.83178637,23.0931962 3.8305201,22.7079261 3.82873328,21.9843692 C3.82844958,21.8694875 3.82815275,21.7517832 3.82784281,21.631414 C3.82282679,19.6913372 3.81465522,17.1320364 3.80323272,14.5313124 C1.41455463,11.4351976 2.2920107,7.80532319 3.0406196,7.89584794 C3.95905329,8.00690857 11.9095505,0.462307636 13.434563,0.0762782113 C14.9595755,-0.309751214 18.8333333,0.937485394 19.5,4.41666667 C20.1666667,7.89584794 20.4453281,16.6654432 17.9166667,20.1666667 C17.1970939,21.1629982 16.063906,21.552694 14.5171029,21.3357543 C14.5150112,22.0638914 14.5106396,22.4725457 14.5,23.2973003 C14.5197568,24.8888406 15.7975346,26.0315485 18.3333333,26.7973003 Z" id="path-21"></path>
        <linearGradient x1="50%" y1="0%" x2="50%" y2="100%" id="linearGradient-23">
            <stop stop-color="#1D0024" offset="0%"></stop>
            <stop stop-color="#100014" offset="100%"></stop>
        </linearGradient>
        <linearGradient x1="50%" y1="0%" x2="50%" y2="100%" id="linearGradient-24">
            <stop stop-color="#1D0024" offset="0%"></stop>
            <stop stop-color="#100014" offset="100%"></stop>
        </linearGradient>
        <linearGradient x1="50%" y1="0%" x2="50%" y2="100%" id="linearGradient-25">
            <stop stop-color="#806A6A" offset="0%"></stop>
            <stop stop-color="#665654" offset="100%"></stop>
        </linearGradient>
        <path d="M3.16666667,0.833333333 L4,16.1666667 L0,16.1666667 L0.833333333,0.833333333 C1.35185185,0.277777778 1.74074074,0 2,0 C2.25925926,0 2.64814815,0.277777778 3.16666667,0.833333333 Z" id="path-26"></path>
        <path d="M3.35662453,3.94864232 L0.735711169,2.43433682 L0.833333333,0.833333333 C1.35185185,0.277777778 1.74074074,0 2,0 C2.25925926,0 2.64814815,0.277777778 3.16666667,0.833333333 L3.35662453,3.94864232 L3.35662453,3.94864232 Z" id="path-28"></path>
        <circle id="path-30" cx="25" cy="25" r="25"></circle>
        <linearGradient x1="50%" y1="0%" x2="50%" y2="100%" id="linearGradient-32">
            <stop stop-color="#E6864E" offset="0%"></stop>
            <stop stop-color="#EB965E" offset="100%"></stop>
        </linearGradient>
        <linearGradient x1="81.0579221%" y1="35.3316994%" x2="46.4183066%" y2="77.7048739%" id="linearGradient-33">
            <stop stop-color="#E07A3F" offset="0%"></stop>
            <stop stop-color="#EB9154" offset="100%"></stop>
        </linearGradient>
        <linearGradient x1="50%" y1="0%" x2="50%" y2="100%" id="linearGradient-34">
            <stop stop-color="#1D0024" offset="0%"></stop>
            <stop stop-color="#100014" offset="100%"></stop>
        </linearGradient>
        <circle id="path-35" cx="25" cy="25" r="25"></circle>
        <linearGradient x1="50%" y1="0%" x2="50%" y2="100%" id="linearGradient-37">
            <stop stop-color="#130027" offset="0%"></stop>
            <stop stop-color="#130017" offset="100%"></stop>
        </linearGradient>
        <linearGradient x1="50%" y1="0%" x2="50%" y2="100%" id="linearGradient-38">
            <stop stop-color="#FFE0CC" offset="0%"></stop>
            <stop stop-color="#FFEADB" offset="100%"></stop>
        </linearGradient>
        <path d="M21.1666667,18.8333333 C19.7482706,19.6111111 18.386583,20 17.0816039,20 C15.7766249,20 14.4716458,19.6111111 13.1666667,18.8333333 L13.1666667,15.1666667 C12.6679392,15.2556566 12.2854996,15.2423883 11.8929657,15.2423472 C7.89508952,15.2419294 6.38746864,9.4184796 7.16666667,2.33333333 C7.66666667,2.33333333 8.83333333,2.33333333 10.5,0 C10.0833333,3.25 14.9166667,2.75 16.75,0.166666667 C15.8333333,3.25 18.25,5.33333333 20.3333333,4.08333333 C24.4185579,1.63219858 25.3367921,9.10430181 21.1666667,9.16666667 L21.1666667,18.8333333 Z" id="path-39"></path>
        <linearGradient x1="50%" y1="0%" x2="50%" y2="100%" id="linearGradient-41">
            <stop stop-color="#130027" offset="0%"></stop>
            <stop stop-color="#130017" offset="100%"></stop>
        </linearGradient>
    </defs>
    <g id="DS-Users" stroke="none" stroke-width="1" fill="none" fill-rule="evenodd">
        <rect fill="#FFFFFF" x="0" y="0" width="1440" height="258"></rect>
        <g id="Manager" transform="translate(50.000000, 29.000000)">
            <rect id="Rectangle" fill-opacity="0.1" fill="#026DAF" x="50" y="0" width="589" height="200" rx="4"></rect>
            <text id="MANAGER-|-COMMUNICAT" font-family="OpenSans-SemiBold, Open Sans" font-size="18" font-weight="500" fill="#026DAF">
                <tspan x="120" y="181">MANAGER | COMMUNICATOR | MARKETER</tspan>
            </text>
            <text id="“I-want-to-connect-w" font-family="OpenSans-Regular, Open Sans" font-size="20" font-weight="normal" fill="#888888">
                <tspan x="120" y="34">“I want to connect with employees so that they </tspan>
                <tspan x="120" y="61">receive important, relevant, and interesting content </tspan>
                <tspan x="120" y="88">using the Community App. For me, it’s important to </tspan>
                <tspan x="120" y="115">keep employees informed and engaged, so that </tspan>
                <tspan x="120" y="142">they are productive members of the team.”</tspan>
            </text>
            <g id="User-06a" transform="translate(50.000000, 100.000000) scale(-1, 1) translate(-50.000000, -100.000000) translate(0.000000, 50.000000)">
                <mask id="mask-2" fill="white">
                    <use xlink:href="#path-1"></use>
                </mask>
                <circle stroke="#E8E8E8" cx="50" cy="50" r="49.5"></circle>
                <g id="body" mask="url(#mask-2)">
                    <g transform="translate(15.666667, 65.000000)">
                        <mask id="mask-5" fill="white">
                            <use xlink:href="#path-4"></use>
                        </mask>
                        <use id="Mask" stroke="none" fill="url(#linearGradient-3)" fill-rule="nonzero" xlink:href="#path-4"></use>
                        <path d="M7.66666667,16.6666667 C6.56209717,16.6666667 5.66666667,15.7712362 5.66666667,14.6666667 C5.66666667,13.5620972 6.56209717,12.6666667 7.66666667,12.6666667 C8.77123617,12.6666667 9.66666667,13.5620972 9.66666667,14.6666667 C9.66666667,15.7712362 8.77123617,16.6666667 7.66666667,16.6666667 Z M21,16.6666667 C19.8954305,16.6666667 19,15.7712362 19,14.6666667 C19,13.5620972 19.8954305,12.6666667 21,12.6666667 C22.1045695,12.6666667 23,13.5620972 23,14.6666667 C23,15.7712362 22.1045695,16.6666667 21,16.6666667 Z M34.3333333,16.6666667 C33.2287638,16.6666667 32.3333333,15.7712362 32.3333333,14.6666667 C32.3333333,13.5620972 33.2287638,12.6666667 34.3333333,12.6666667 C35.4379028,12.6666667 36.3333333,13.5620972 36.3333333,14.6666667 C36.3333333,15.7712362 35.4379028,16.6666667 34.3333333,16.6666667 Z M47.6666667,16.6666667 C46.5620972,16.6666667 45.6666667,15.7712362 45.6666667,14.6666667 C45.6666667,13.5620972 46.5620972,12.6666667 47.6666667,12.6666667 C48.7712362,12.6666667 49.6666667,13.5620972 49.6666667,14.6666667 C49.6666667,15.7712362 48.7712362,16.6666667 47.6666667,16.6666667 Z M61,16.6666667 C59.8954305,16.6666667 59,15.7712362 59,14.6666667 C59,13.5620972 59.8954305,12.6666667 61,12.6666667 C62.1045695,12.6666667 63,13.5620972 63,14.6666667 C63,15.7712362 62.1045695,16.6666667 61,16.6666667 Z M1,10 C-0.1045695,10 -1,9.1045695 -1,8 C-1,6.8954305 -0.1045695,6 1,6 C2.1045695,6 3,6.8954305 3,8 C3,9.1045695 2.1045695,10 1,10 Z M14.3333333,10 C13.2287638,10 12.3333333,9.1045695 12.3333333,8 C12.3333333,6.8954305 13.2287638,6 14.3333333,6 C15.4379028,6 16.3333333,6.8954305 16.3333333,8 C16.3333333,9.1045695 15.4379028,10 14.3333333,10 Z M54.3333333,10 C53.2287638,10 52.3333333,9.1045695 52.3333333,8 C52.3333333,6.8954305 53.2287638,6 54.3333333,6 C55.4379028,6 56.3333333,6.8954305 56.3333333,8 C56.3333333,9.1045695 55.4379028,10 54.3333333,10 Z M67.6666667,10 C66.5620972,10 65.6666667,9.1045695 65.6666667,8 C65.6666667,6.8954305 66.5620972,6 67.6666667,6 C68.7712362,6 69.6666667,6.8954305 69.6666667,8 C69.6666667,9.1045695 68.7712362,10 67.6666667,10 Z M7.66666667,30 C6.56209717,30 5.66666667,29.1045695 5.66666667,28 C5.66666667,26.8954305 6.56209717,26 7.66666667,26 C8.77123617,26 9.66666667,26.8954305 9.66666667,28 C9.66666667,29.1045695 8.77123617,30 7.66666667,30 Z M21,30 C19.8954305,30 19,29.1045695 19,28 C19,26.8954305 19.8954305,26 21,26 C22.1045695,26 23,26.8954305 23,28 C23,29.1045695 22.1045695,30 21,30 Z M34.3333333,30 C33.2287638,30 32.3333333,29.1045695 32.3333333,28 C32.3333333,26.8954305 33.2287638,26 34.3333333,26 C35.4379028,26 36.3333333,26.8954305 36.3333333,28 C36.3333333,29.1045695 35.4379028,30 34.3333333,30 Z M47.6666667,30 C46.5620972,30 45.6666667,29.1045695 45.6666667,28 C45.6666667,26.8954305 46.5620972,26 47.6666667,26 C48.7712362,26 49.6666667,26.8954305 49.6666667,28 C49.6666667,29.1045695 48.7712362,30 47.6666667,30 Z M61,30 C59.8954305,30 59,29.1045695 59,28 C59,26.8954305 59.8954305,26 61,26 C62.1045695,26 63,26.8954305 63,28 C63,29.1045695 62.1045695,30 61,30 Z M1,23.3333333 C-0.1045695,23.3333333 -1,22.4379028 -1,21.3333333 C-1,20.2287638 -0.1045695,19.3333333 1,19.3333333 C2.1045695,19.3333333 3,20.2287638 3,21.3333333 C3,22.4379028 2.1045695,23.3333333 1,23.3333333 Z M14.3333333,23.3333333 C13.2287638,23.3333333 12.3333333,22.4379028 12.3333333,21.3333333 C12.3333333,20.2287638 13.2287638,19.3333333 14.3333333,19.3333333 C15.4379028,19.3333333 16.3333333,20.2287638 16.3333333,21.3333333 C16.3333333,22.4379028 15.4379028,23.3333333 14.3333333,23.3333333 Z M27.6666667,23.3333333 C26.5620972,23.3333333 25.6666667,22.4379028 25.6666667,21.3333333 C25.6666667,20.2287638 26.5620972,19.3333333 27.6666667,19.3333333 C28.7712362,19.3333333 29.6666667,20.2287638 29.6666667,21.3333333 C29.6666667,22.4379028 28.7712362,23.3333333 27.6666667,23.3333333 Z M41,23.3333333 C39.8954305,23.3333333 39,22.4379028 39,21.3333333 C39,20.2287638 39.8954305,19.3333333 41,19.3333333 C42.1045695,19.3333333 43,20.2287638 43,21.3333333 C43,22.4379028 42.1045695,23.3333333 41,23.3333333 Z M54.3333333,23.3333333 C53.2287638,23.3333333 52.3333333,22.4379028 52.3333333,21.3333333 C52.3333333,20.2287638 53.2287638,19.3333333 54.3333333,19.3333333 C55.4379028,19.3333333 56.3333333,20.2287638 56.3333333,21.3333333 C56.3333333,22.4379028 55.4379028,23.3333333 54.3333333,23.3333333 Z M67.6666667,23.3333333 C66.5620972,23.3333333 65.6666667,22.4379028 65.6666667,21.3333333 C65.6666667,20.2287638 66.5620972,19.3333333 67.6666667,19.3333333 C68.7712362,19.3333333 69.6666667,20.2287638 69.6666667,21.3333333 C69.6666667,22.4379028 68.7712362,23.3333333 67.6666667,23.3333333 Z M1,36.6666667 C-0.1045695,36.6666667 -1,35.7712362 -1,34.6666667 C-1,33.5620972 -0.1045695,32.6666667 1,32.6666667 C2.1045695,32.6666667 3,33.5620972 3,34.6666667 C3,35.7712362 2.1045695,36.6666667 1,36.6666667 Z M14.3333333,36.6666667 C13.2287638,36.6666667 12.3333333,35.7712362 12.3333333,34.6666667 C12.3333333,33.5620972 13.2287638,32.6666667 14.3333333,32.6666667 C15.4379028,32.6666667 16.3333333,33.5620972 16.3333333,34.6666667 C16.3333333,35.7712362 15.4379028,36.6666667 14.3333333,36.6666667 Z M27.6666667,36.6666667 C26.5620972,36.6666667 25.6666667,35.7712362 25.6666667,34.6666667 C25.6666667,33.5620972 26.5620972,32.6666667 27.6666667,32.6666667 C28.7712362,32.6666667 29.6666667,33.5620972 29.6666667,34.6666667 C29.6666667,35.7712362 28.7712362,36.6666667 27.6666667,36.6666667 Z M41,36.6666667 C39.8954305,36.6666667 39,35.7712362 39,34.6666667 C39,33.5620972 39.8954305,32.6666667 41,32.6666667 C42.1045695,32.6666667 43,33.5620972 43,34.6666667 C43,35.7712362 42.1045695,36.6666667 41,36.6666667 Z M54.3333333,36.6666667 C53.2287638,36.6666667 52.3333333,35.7712362 52.3333333,34.6666667 C52.3333333,33.5620972 53.2287638,32.6666667 54.3333333,32.6666667 C55.4379028,32.6666667 56.3333333,33.5620972 56.3333333,34.6666667 C56.3333333,35.7712362 55.4379028,36.6666667 54.3333333,36.6666667 Z M67.6666667,36.6666667 C66.5620972,36.6666667 65.6666667,35.7712362 65.6666667,34.6666667 C65.6666667,33.5620972 66.5620972,32.6666667 67.6666667,32.6666667 C68.7712362,32.6666667 69.6666667,33.5620972 69.6666667,34.6666667 C69.6666667,35.7712362 68.7712362,36.6666667 67.6666667,36.6666667 Z" id="Combined-Shape" stroke="none" fill="#13001E" fill-rule="nonzero" opacity="0.400000006" mask="url(#mask-5)"></path>
                    </g>
                </g>
                <g id="bun" mask="url(#mask-2)">
                    <g transform="translate(53.333333, 9.333333)">
                        <mask id="mask-8" fill="white">
                            <use xlink:href="#path-7"></use>
                        </mask>
                        <use id="Mask" stroke="none" fill="url(#linearGradient-6)" fill-rule="evenodd" transform="translate(10.173903, 8.849024) scale(-1, 1) translate(-10.173903, -8.849024) " xlink:href="#path-7"></use>
                        <path d="M5.83333333,9.16666667 C13.3888889,14.0555556 18.1111111,15.1666667 20,12.5 C20.2922958,14.1702619 18.9479436,18.8883644 16.8333333,18.8333333 C12.6162505,18.723587 8.94958385,15.5013648 5.83333333,9.16666667 Z" id="Path-3" stroke="none" fill="#E0713F" fill-rule="evenodd" opacity="0.600000024" style="mix-blend-mode: multiply;" mask="url(#mask-8)"></path>
                    </g>
                </g>
                <path d="M57.3333333,54.3333333 C50.172167,57.7735015 49.127577,57.5892296 33.3333333,44.6666667 C9.5,25.1666667 32,7.33333333 56.1666667,16.8333333 C82.3333333,28.3333333 73.5667766,46.5349145 57.3333333,54.3333333 Z" id="hair" fill="url(#linearGradient-9)" mask="url(#mask-2)"></path>
                <path d="M58,68 C55.5555556,72 44.4444444,72 42,68 L42,61.3333333 C41.274976,61.3546429 40.6638649,61.3546429 40.1666667,61.3333333 C32.3702304,60.9991844 29.7648624,48.4577439 30.988383,35.9125814 C31.8844045,26.7253756 39.6666667,39.3333333 52.3333333,30.5 C51.8333333,40.1666667 56,39.1666667 57.8333333,38 C66.1666667,34.1666667 66.2363045,49.8807191 58,48.6666667 L58,68 Z" id="face" fill="url(#linearGradient-10)" mask="url(#mask-2)"></path>
                <path d="M41.9679303,61.1370805 C44.9738582,61.0196921 48.7672209,59.4732945 53.3480183,56.4978876 C51.0487224,60.9982912 47.2204602,63.5440796 41.8632318,64.1352529 L41.9679303,61.1370805 Z" id="shade" fill="#FFBB94" fill-rule="nonzero" mask="url(#mask-2)" transform="translate(47.605625, 60.316570) rotate(-2.000000) translate(-47.605625, -60.316570) "></path>
                <path d="M58,67.1534346 L58,65 C58.6113454,65 60.3618007,66.4441182 61.2619725,67.6666667 C64.8207931,72.5 60.873318,76.8333333 57.6541265,76.8333333 C53.5919078,76.8333333 50.9006229,73.4394922 50,71.8065664 C49.0993771,73.4394922 46.4080922,76.8333333 42.3458735,76.8333333 C39.126682,76.8333333 35.1792069,72.5 38.7380275,67.6666667 C39.6381993,66.4441182 41.3886546,65 42,65 L42,67.1534346 C42,69.7026359 47.5798428,70.8826052 49.9889689,70.9916352 C52.2693524,70.8826048 58,69.7026355 58,67.1534346 Z" id="collar" fill="#FFF9F5" fill-rule="nonzero" mask="url(#mask-2)"></path>
                <path d="M59.131412,23.8092718 C64.4647453,37.1426051 61.4647453,43.6426051 57.2980787,51.4759384 C54.5203009,56.6981606 54.8536342,61.7537162 58.2980787,66.6426051 C54.2980787,64.0870495 52.2980787,59.9759384 52.2980787,54.3092718 C52.2980787,45.8092718 58.2980787,40.4759384 53.2980787,33.4759384 C48.2980787,26.4759384 53.7980787,10.4759384 59.131412,23.8092718 Z" id="hair" fill="url(#linearGradient-11)" mask="url(#mask-2)" transform="translate(56.664079, 42.654636) scale(-1, 1) translate(-56.664079, -42.654636) "></path>
            </g>
        </g>
        <g id="Manager" transform="translate(756.000000, 29.000000)">
            <rect id="Rectangle" fill-opacity="0.1" fill="#76A83B" x="45" y="0" width="589" height="200" rx="4"></rect>
            <g id="User-02b" transform="translate(25.000000, 68.000000) scale(-1, 1) translate(-25.000000, -68.000000) translate(0.000000, 43.000000)">
                <mask id="mask-13" fill="white">
                    <use xlink:href="#path-12"></use>
                </mask>
                <use id="Mask" fill="#FFEC00" fill-rule="nonzero" xlink:href="#path-12"></use>
                <path d="M30.3333333,29.3333333 L30.3333333,34 L19.6666667,34 C19.6800447,29.4001789 19.6800447,25.577283 19.6666667,22.5313124 C17.2779886,19.4351976 17.2779886,17.5 19.1666667,15.5 C20.4257854,14.1666667 25.5368965,13.1666667 34.5,12.5 C35.1724987,18.9677724 35.5613875,23.0788835 35.6666667,24.8333333 C35.7301749,25.8916822 36.4166667,29.3333333 33.75,29.3333333 C32.7504687,29.3333333 31.6115798,29.3333333 30.3333333,29.3333333 Z" id="Mask" fill="url(#linearGradient-14)" mask="url(#mask-13)"></path>
                <path d="M30.3333333,29 C27.8888889,28.7222222 25.8333333,28.0555556 24.1666667,27 C24.9444444,29.1111111 27,30.5 30.3333333,31.1666667 L30.3333333,29 Z" id="Path-48" fill="#F08956" mask="url(#mask-13)"></path>
                <path d="M21.8367265,17.5342302 C21.3066623,17.0790143 20.6627049,16.7725839 19.7523878,17.2455589 C17.5941634,18.366911 19.0265283,22.6891559 21.4417228,22.6048154 C22.2745485,22.5757325 21.8929767,24.2365135 19.6666667,25.3333333 C19.6666667,23.5833333 17,19.25 16.7674344,15.3045882 C14.0833333,14.3054592 14.75,10.3076341 16.5929369,10.3076341 C16.2981751,6.64237864 22.1666667,4.75 24.4390054,6.85266157 C26.75,4.08333333 32.5833333,5.5 32.9356206,7.90248417 C36.9466675,5.76119623 39.5833333,11.9166667 35.8275095,14.3054592 C34.2820753,15.2883918 30.6666667,15.6629644 25.447917,15.6629644 C22.9435101,15.6629644 24.3837645,21.5246531 25.1666667,23.4166667 C26.1666667,25.8333333 31.75,26.1666667 33.5,25.9166667 C34.8665823,25.7214406 35.5833333,25.1666667 35.6666667,24.8333333 C36.9166667,28.1666667 35.3333209,30.1666667 32.8333333,30.1666667 C28.5833333,30.1666667 24.3333333,28.9166667 23.6666667,25.8333333 C23.1360962,23.3794449 23.1651746,19.4193314 21.8367265,17.5342302 Z" id="Combined-Shape" fill="#FFFFFF" mask="url(#mask-13)"></path>
                <g id="Group-2" mask="url(#mask-13)">
                    <g transform="translate(5.000000, 31.833333)">
                        <mask id="mask-16" fill="white">
                            <use xlink:href="#path-15"></use>
                        </mask>
                        <use id="Combined-Shape" stroke="none" fill="#8B572A" fill-rule="evenodd" xlink:href="#path-15"></use>
                    </g>
                </g>
            </g>
            <g id="User-07b" transform="translate(64.000000, 86.000000) scale(-1, 1) translate(-64.000000, -86.000000) translate(39.000000, 61.000000)">
                <mask id="mask-18" fill="white">
                    <use xlink:href="#path-17"></use>
                </mask>
                <use id="Mask" fill="#FFFFFF" fill-rule="nonzero" xlink:href="#path-17"></use>
                <g id="Group-10" mask="url(#mask-18)">
                    <g transform="translate(11.500000, 5.500000)" id="Group-11">
                        <g>
                            <g transform="translate(11.750000, 16.750000) scale(-1, 1) translate(-11.750000, -16.750000) " id="Group-2">
                                <g>
                                    <g id="Group-14" filter="url(#filter-19)">
                                        <g id="Path-48" transform="translate(0.833333, 2.666667)">
                                            <mask id="mask-22" fill="white">
                                                <use xlink:href="#path-21"></use>
                                            </mask>
                                            <use id="Combined-Shape" fill="url(#linearGradient-20)" xlink:href="#path-21"></use>
                                            <path d="M14.5,21.3333333 C12.0555556,21.0555556 10.0555556,20.3888889 8.5,19.3333333 C10.2777778,21.5555556 12.2777778,22.8888889 14.5,23.3333333 L14.5,21.3333333 Z" fill="#FC9F6A" fill-rule="nonzero" mask="url(#mask-22)"></path>
                                        </g>
                                        <path d="M3.41666667,17.25 C2.26836319,14.4882506 -2.33333333,8.86390827 1.63312996,5.36390827 C2.96646329,-1.13609173 10.3333333,-0.416666667 15.25,1.08333333 C18.5544946,2.09148421 21.0497966,4.08333333 21.5833333,2.58333333 C24.9166667,5.36390827 23.2473934,8.08333333 21.0497966,8.86390827 C19.055411,9.57230369 15.6828231,10.2805749 9.94887598,9.61390827 C8.92456228,9.49481477 9.13907482,12.6319069 8.59167166,12.9711171 C7.77056693,13.4799324 7.13312996,10.2805749 4.88185945,11.2412032 C2.63058894,12.2018315 3.96646329,16.656152 6.38312996,16.656152 C7.21646329,16.656152 7.63312996,18.9472416 5.38312996,20.0305749 C3.75,20.8333333 4.16279553,19.0444916 3.41666667,17.25 Z" id="Path-22" fill="url(#linearGradient-23)" fill-rule="nonzero"></path>
                                    </g>
                                </g>
                            </g>
                        </g>
                    </g>
                </g>
                <g id="Group-23" mask="url(#mask-18)">
                    <g transform="translate(5.000000, 31.833333)">
                        <path d="M37.5,8.21797208 C38.5578032,10.3687277 39.3911365,13.9242832 40,18.8846387 L0,18.8846387 C0.609154628,13.9237274 1.44248796,10.3681718 2.5,8.21797208 C3.55751204,6.06777233 7.17413837,3.99549046 13.349879,2.00112648 C18.4687711,4.00080966 21.6012941,4.00040499 26.6451338,2 C32.8239081,3.99455914 36.4421968,6.0672165 37.5,8.21797208 Z" id="Combined-Shape" fill="url(#linearGradient-24)" fill-rule="nonzero"></path>
                        <g id="Group-22" stroke-width="1" fill="none" fill-rule="evenodd" transform="translate(18.000000, 2.333333)">
                            <mask id="mask-27" fill="white">
                                <use xlink:href="#path-26"></use>
                            </mask>
                            <use id="Mask" fill="url(#linearGradient-25)" fill-rule="nonzero" xlink:href="#path-26"></use>
                            <mask id="mask-29" fill="white">
                                <use xlink:href="#path-28"></use>
                            </mask>
                            <use id="Combined-Shape" fill="#645050" fill-rule="nonzero" xlink:href="#path-28"></use>
                        </g>
                        <path d="M20,2.33189033 L18.3333333,5.33333333 L13.1666667,2.16666667 L14.6666667,0 L20,1.97017797 L25.3333333,0 L26.8333333,2.16666667 L21.6666667,5.33333333 L20,2.33189033 Z" id="Combined-Shape" fill="#FFFFFF" fill-rule="evenodd"></path>
                    </g>
                </g>
            </g>
            <g id="User-05c" transform="translate(31.000000, 118.000000) scale(-1, 1) translate(-31.000000, -118.000000) translate(6.000000, 93.000000)">
                <mask id="mask-31" fill="white">
                    <use xlink:href="#path-30"></use>
                </mask>
                <use id="Mask" fill="#42CBFF" transform="translate(25.000000, 25.000000) scale(-1, 1) translate(-25.000000, -25.000000) " xlink:href="#path-30"></use>
                <path d="M30.1666667,29 C30.1666667,29 30.1666667,29.6666667 30.1666667,31 C30.1666667,32.7777778 31.4444444,34.0555556 34,34.8333333 C31.0555556,37.0555556 28.0555556,38.1666667 25,38.1666667 C21.9444444,38.1666667 18.9444444,37.0555556 16,34.8333333 C18.5756226,34.0555556 19.8534004,32.7777778 19.8333333,31 C19.8032327,28.3333333 19.8232998,26.766935 19.8032327,22.197979 C17.4145546,19.1018643 17.5677858,17.0238324 18.8739529,15.5625146 C21.7913176,12.298616 27.2222222,11.2222222 35.1666667,12.3333333 C35.9079965,20.3325177 35.4357743,25.4991843 33.75,27.8333333 C33.0277778,28.8333333 31.8333333,29.2222222 30.1666667,29 Z" id="face" fill="url(#linearGradient-32)" mask="url(#mask-31)"></path>
                <path d="M30.1666667,29 C27.7222222,28.7222222 25.7777778,28.0555556 24.3333333,27 C25.5555556,29.0555556 27.5,30.3888889 30.1666667,31 L30.1666667,29 Z" id="shade" fill="url(#linearGradient-33)" opacity="0.600000024" style="mix-blend-mode: multiply;" mask="url(#mask-31)"></path>
                <path d="M42.5,39.8846387 C43.5578032,42.0353943 44.3911365,45.5909499 45,50.5513054 L5,50.5513054 C5.60915463,45.5903941 6.44248796,42.0348385 7.5,39.8846387 C8.55751204,37.734439 12.1741384,35.6621571 18.349879,33.6677932 C20.1354377,37.334143 29.9346274,37.3337383 31.6451338,33.6666667 C37.8239081,35.6612258 41.4421968,37.7338832 42.5,39.8846387 Z" id="body" fill="url(#linearGradient-24)" fill-rule="nonzero" mask="url(#mask-31)"></path>
                <path d="M25,40.3333333 C24.6318102,40.3333333 24.3333333,40.0348565 24.3333333,39.6666667 C24.3333333,39.2984768 24.6318102,39 25,39 C25.3681898,39 25.6666667,39.2984768 25.6666667,39.6666667 C25.6666667,40.0348565 25.3681898,40.3333333 25,40.3333333 Z M25,43.6666667 C24.6318102,43.6666667 24.3333333,43.3681898 24.3333333,43 C24.3333333,42.6318102 24.6318102,42.3333333 25,42.3333333 C25.3681898,42.3333333 25.6666667,42.6318102 25.6666667,43 C25.6666667,43.3681898 25.3681898,43.6666667 25,43.6666667 Z M25,47 C24.6318102,47 24.3333333,46.7015232 24.3333333,46.3333333 C24.3333333,45.9651435 24.6318102,45.6666667 25,45.6666667 C25.3681898,45.6666667 25.6666667,45.9651435 25.6666667,46.3333333 C25.6666667,46.7015232 25.3681898,47 25,47 Z" id="buttons" fill="#FFFFFF" fill-rule="nonzero" mask="url(#mask-31)"></path>
                <path d="M21.8591536,17.2014652 C21.3290894,16.7462493 20.685132,16.4398189 19.7748149,16.9127939 C17.6165905,18.034146 19.25,22.3333333 21.1666667,22.3333333 C21.6668107,22.3333333 21.9154038,23.9037485 19.6890937,25.0005683 C19.6890937,23.2505683 17.0224271,18.917235 16.7898615,14.9718232 C14.1057604,13.9726942 14.7724271,9.97486907 16.615364,9.97486907 C16.3206022,6.30961363 22.1890937,4.41723499 24.4614324,6.51989656 C26.7724271,3.75056832 32.6057604,5.16723499 32.9580477,7.56971915 C36.9690946,5.42843122 39.6057604,11.5839017 35.8499366,13.9726942 C34.3045024,14.9556268 30.6890937,15.3301994 25.4703441,15.3301994 C24.6825917,15.3301994 24.2412593,15.5258324 24.4614324,16.5 C24.888052,18.3876011 23.8978155,19.5766997 21.8591536,17.2014652 Z" id="hair" fill="url(#linearGradient-34)" fill-rule="nonzero" mask="url(#mask-31)"></path>
            </g>
            <g id="User-01c" transform="translate(70.000000, 131.000000) scale(-1, 1) translate(-70.000000, -131.000000) translate(45.000000, 106.000000)">
                <mask id="mask-36" fill="white">
                    <use xlink:href="#path-35"></use>
                </mask>
                <use id="Mask" fill="#FFB8B8" xlink:href="#path-35"></use>
                <path d="M8.54402685,26.5833333 C7.19204204,22.0932481 6.35870871,14.4166667 12.0440268,9.16666667 C16.3889845,5.15439734 28.1273602,4.75 32.2106935,13.5 C32.8923437,14.9606789 31.9606935,17.25 30.1273602,17.1666667 C29.4068037,17.1339141 28.9606935,19.4166667 28.5440268,20.8333333 C29.1273602,26.5833333 34.3243986,26.6895085 36.9606935,31.0833333 C40.2106935,36.5 36.2106935,44.5 26.6273602,44.5 C17.0440268,44.5 11.5502615,36.5673582 8.54402685,26.5833333 Z" id="Combined-Shape" fill="url(#linearGradient-37)" fill-rule="nonzero" mask="url(#mask-36)" transform="translate(22.813680, 25.465711) scale(-1, 1) translate(-22.813680, -25.465711) "></path>
                <g id="Group-16" mask="url(#mask-36)">
                    <g transform="translate(7.833333, 14.833333)">
                        <path d="M32.5,24.9041298 C33.3148148,26.4734513 33.9259259,30.1165192 34.3333333,35.8333333 L0,35.8333333 C0.407407407,30.1165192 1.01851852,26.4734513 1.83333333,24.9041298 C3.05555556,22.5501475 8.16666667,19.859882 17.1666667,16.8333333 C26.1666667,19.859882 31.2777778,22.5501475 32.5,24.9041298 Z" id="Rectangle" stroke="none" fill="#50E3C2" fill-rule="evenodd"></path>
                        <mask id="mask-40" fill="white">
                            <use xlink:href="#path-39"></use>
                        </mask>
                        <use id="Mask" stroke="none" fill="url(#linearGradient-38)" fill-rule="evenodd" xlink:href="#path-39"></use>
                        <path d="M13.1666667,15.1666667 C15.3888889,14.7777778 17.3333333,14.0277778 19,12.9166667 C17.6111111,15.3055556 15.6666667,16.5 13.1666667,16.5 L13.1666667,15.1666667 Z" id="Path-2" stroke="none" fill="#FFD7B8" fill-rule="nonzero" opacity="0.782421875" style="mix-blend-mode: multiply;" mask="url(#mask-40)"></path>
                    </g>
                </g>
                <g id="Group-9" mask="url(#mask-36)" fill="#FFFFFF" fill-rule="nonzero">
                    <g transform="translate(18.666667, 31.666667)" id="Combined-Shape">
                        <path d="M6.33884887,2.99581758 C7.54341195,2.9413026 10.3333333,2.35131794 10.3333333,1.07671728 L10.3333333,0 C10.639006,0 11.5142337,0.722059092 11.9643196,1.33333333 C13.7437299,3.75 11.7699923,5.91666667 10.1603966,5.91666667 C8.12928726,5.91666667 6.78364477,4.21974612 6.33333333,3.40328318 C5.8830219,4.21974612 4.53737941,5.91666667 2.50627011,5.91666667 C0.896674351,5.91666667 -1.07706323,3.75 0.702347067,1.33333333 C1.152433,0.722059092 2.02766062,0 2.33333333,0 L2.33333333,1.07671728 C2.33333333,2.35131774 5.19865712,2.94130242 6.33884942,2.99581755 L6.33884887,2.99581758 Z"></path>
                    </g>
                </g>
                <path d="M25,40 C24.6318102,40 24.3333333,39.7015232 24.3333333,39.3333333 C24.3333333,38.9651435 24.6318102,38.6666667 25,38.6666667 C25.3681898,38.6666667 25.6666667,38.9651435 25.6666667,39.3333333 C25.6666667,39.7015232 25.3681898,40 25,40 Z M25,43.3333333 C24.6318102,43.3333333 24.3333333,43.0348565 24.3333333,42.6666667 C24.3333333,42.2984768 24.6318102,42 25,42 C25.3681898,42 25.6666667,42.2984768 25.6666667,42.6666667 C25.6666667,43.0348565 25.3681898,43.3333333 25,43.3333333 Z M25,46.6666667 C24.6318102,46.6666667 24.3333333,46.3681898 24.3333333,46 C24.3333333,45.6318102 24.6318102,45.3333333 25,45.3333333 C25.3681898,45.3333333 25.6666667,45.6318102 25.6666667,46 C25.6666667,46.3681898 25.3681898,46.6666667 25,46.6666667 Z" id="Combined-Shape" fill="url(#linearGradient-41)" fill-rule="nonzero" mask="url(#mask-36)"></path>
            </g>
            <text id="EMPLOYEE-|-DESKLESS" font-family="OpenSans-SemiBold, Open Sans" font-size="18" font-weight="500" fill="#76A83B">
                <tspan x="115" y="180">EMPLOYEE | DESKLESS WORKER </tspan>
            </text>
            <text id="“Sometimes-I-go-to-t" font-family="OpenSans-Regular, Open Sans" font-size="20" font-weight="normal" fill="#888888">
                <tspan x="115" y="35">“Sometimes I go to the Community App to see </tspan>
                <tspan x="115" y="62">what’s going on at the company. Other times I just </tspan>
                <tspan x="115" y="89">need to check my paycheck or know what the </tspan>
                <tspan x="115" y="116">schedule is for today. But most of the time, all I see </tspan>
                <tspan x="115" y="143">are a bunch of articles.”</tspan>
            </text>
        </g>
    </g>
</svg>