<?xml version="1.0" encoding="UTF-8"?>
<svg width="1348px" height="979px" viewBox="0 0 1348 979" version="1.1" xmlns="http://www.w3.org/2000/svg" xmlns:xlink="http://www.w3.org/1999/xlink">
    <!-- Generator: Sketch 54.1 (76490) - https://sketchapp.com -->
    <title>UI Design</title>
    <desc>Created with Sketch.</desc>
    <defs>
        <circle id="path-1" cx="15" cy="15" r="15"></circle>
        <circle id="path-3" cx="15" cy="15" r="15"></circle>
        <linearGradient x1="50%" y1="0%" x2="50%" y2="100%" id="linearGradient-5">
            <stop stop-color="#806A6A" offset="0%"></stop>
            <stop stop-color="#665654" offset="100%"></stop>
        </linearGradient>
        <path d="M19.8786408,4.67256637 C20.3770227,5.58112094 20.7508091,7.69026549 21,11 L0,11 C0.249190939,7.69026549 0.622977346,5.58112094 1.12135922,4.67256637 C1.86893204,3.30973451 4.99514563,1.75221239 10.5,0 C16.0048544,1.75221239 19.131068,3.30973451 19.8786408,4.67256637 Z" id="path-6"></path>
        <linearGradient x1="50%" y1="100%" x2="50%" y2="0%" id="linearGradient-8">
            <stop stop-color="#E6864E" offset="0%"></stop>
            <stop stop-color="#E67240" offset="100%"></stop>
        </linearGradient>
        <path d="M5.9192605,2.2874968 C6.31270313,0.667126426 4.44708717,-0.576306508 2.52581788,0.277286 C-1.99877228,2.2874968 0.692795312,5.09259259 2.36492646,4.90740741 C4.03705761,4.72222222 5.52581788,3.90786717 5.9192605,2.2874968 Z" id="path-9"></path>
        <linearGradient x1="50%" y1="100%" x2="50%" y2="0%" id="linearGradient-11">
            <stop stop-color="#E6864E" offset="0%"></stop>
            <stop stop-color="#E67240" offset="100%"></stop>
        </linearGradient>
        <linearGradient x1="50%" y1="0%" x2="50%" y2="100%" id="linearGradient-12">
            <stop stop-color="#FFD4B3" offset="0%"></stop>
            <stop stop-color="#FFDCC2" offset="100%"></stop>
        </linearGradient>
        <linearGradient x1="50%" y1="100%" x2="50%" y2="0%" id="linearGradient-13">
            <stop stop-color="#E6864E" offset="0%"></stop>
            <stop stop-color="#E57442" offset="100%"></stop>
        </linearGradient>
        <circle id="path-14" cx="15" cy="15" r="15"></circle>
        <path d="M19.8786408,4.67256637 C20.3770227,5.58112094 20.7508091,7.69026549 21,11 L0,11 C0.249190939,7.69026549 0.622977346,5.58112094 1.12135922,4.67256637 C1.86893204,3.30973451 4.99514563,1.75221239 10.5,0 C16.0048544,1.75221239 19.131068,3.30973451 19.8786408,4.67256637 Z" id="path-16"></path>
        <path d="M5.9192605,2.2874968 C6.31270313,0.667126426 4.44708717,-0.576306508 2.52581788,0.277286 C-1.99877228,2.2874968 0.692795312,5.09259259 2.36492646,4.90740741 C4.03705761,4.72222222 5.52581788,3.90786717 5.9192605,2.2874968 Z" id="path-18"></path>
    </defs>
    <g id="UI-Design" stroke="none" stroke-width="1" fill="none" fill-rule="evenodd">
        <rect fill="#FFFFFF" x="0" y="0" width="1348" height="979"></rect>
        <text id="Colors" font-family="Roboto-Medium, Roboto" font-size="26" font-weight="400" fill="#000000">
            <tspan x="50" y="64">Colors</tspan>
        </text>
        <text id="Components" font-family="Roboto-Medium, Roboto" font-size="26" font-weight="400" fill="#000000">
            <tspan x="50" y="304">Components</tspan>
        </text>
        <g id="author,-overflow" transform="translate(50.000000, 364.000000)">
            <text id="Manager-Name" font-family="SFProText-Medium, SF Pro Text" font-size="15" font-weight="400" fill="#000000" fill-opacity="0.87">
                <tspan x="40.0800018" y="20">Manager Name</tspan>
            </text>
            <mask id="mask-2" fill="white">
                <use xlink:href="#path-1"></use>
            </mask>
            <g id="Mask"></g>
            <g id="User-06a" mask="url(#mask-2)">
                <g transform="translate(15.000000, 15.000000) scale(-1, 1) translate(-15.000000, -15.000000) ">
                    <mask id="mask-4" fill="white">
                        <use xlink:href="#path-3"></use>
                    </mask>
                    <circle stroke="#E8E8E8" stroke-width="1" cx="15" cy="15" r="14.5"></circle>
                    <g id="body" stroke="none" stroke-width="1" fill="none" fill-rule="evenodd" mask="url(#mask-4)">
                        <g transform="translate(4.000000, 20.000000)">
                            <mask id="mask-7" fill="white">
                                <use xlink:href="#path-6"></use>
                            </mask>
                            <use id="Mask" stroke="none" fill="url(#linearGradient-5)" fill-rule="nonzero" xlink:href="#path-6"></use>
                            <path d="M2.34466019,4.86725664 C2.00685496,4.86725664 1.73300971,4.60575923 1.73300971,4.28318584 C1.73300971,3.96061245 2.00685496,3.69911504 2.34466019,3.69911504 C2.68246543,3.69911504 2.95631068,3.96061245 2.95631068,4.28318584 C2.95631068,4.60575923 2.68246543,4.86725664 2.34466019,4.86725664 Z M6.4223301,4.86725664 C6.08452486,4.86725664 5.81067961,4.60575923 5.81067961,4.28318584 C5.81067961,3.96061245 6.08452486,3.69911504 6.4223301,3.69911504 C6.76013533,3.69911504 7.03398058,3.96061245 7.03398058,4.28318584 C7.03398058,4.60575923 6.76013533,4.86725664 6.4223301,4.86725664 Z M10.5,4.86725664 C10.1621948,4.86725664 9.88834951,4.60575923 9.88834951,4.28318584 C9.88834951,3.96061245 10.1621948,3.69911504 10.5,3.69911504 C10.8378052,3.69911504 11.1116505,3.96061245 11.1116505,4.28318584 C11.1116505,4.60575923 10.8378052,4.86725664 10.5,4.86725664 Z M14.5776699,4.86725664 C14.2398647,4.86725664 13.9660194,4.60575923 13.9660194,4.28318584 C13.9660194,3.96061245 14.2398647,3.69911504 14.5776699,3.69911504 C14.9154751,3.69911504 15.1893204,3.96061245 15.1893204,4.28318584 C15.1893204,4.60575923 14.9154751,4.86725664 14.5776699,4.86725664 Z M18.6553398,4.86725664 C18.3175346,4.86725664 18.0436893,4.60575923 18.0436893,4.28318584 C18.0436893,3.96061245 18.3175346,3.69911504 18.6553398,3.69911504 C18.993145,3.69911504 19.2669903,3.96061245 19.2669903,4.28318584 C19.2669903,4.60575923 18.993145,4.86725664 18.6553398,4.86725664 Z M0.305825243,2.92035398 C-0.0319799926,2.92035398 -0.305825243,2.65885658 -0.305825243,2.33628319 C-0.305825243,2.01370979 -0.0319799926,1.75221239 0.305825243,1.75221239 C0.643630478,1.75221239 0.917475728,2.01370979 0.917475728,2.33628319 C0.917475728,2.65885658 0.643630478,2.92035398 0.305825243,2.92035398 Z M4.38349515,2.92035398 C4.04568991,2.92035398 3.77184466,2.65885658 3.77184466,2.33628319 C3.77184466,2.01370979 4.04568991,1.75221239 4.38349515,1.75221239 C4.72130038,1.75221239 4.99514563,2.01370979 4.99514563,2.33628319 C4.99514563,2.65885658 4.72130038,2.92035398 4.38349515,2.92035398 Z M16.6165049,2.92035398 C16.2786996,2.92035398 16.0048544,2.65885658 16.0048544,2.33628319 C16.0048544,2.01370979 16.2786996,1.75221239 16.6165049,1.75221239 C16.9543101,1.75221239 17.2281553,2.01370979 17.2281553,2.33628319 C17.2281553,2.65885658 16.9543101,2.92035398 16.6165049,2.92035398 Z M20.6941748,2.92035398 C20.3563695,2.92035398 20.0825243,2.65885658 20.0825243,2.33628319 C20.0825243,2.01370979 20.3563695,1.75221239 20.6941748,1.75221239 C21.03198,1.75221239 21.3058252,2.01370979 21.3058252,2.33628319 C21.3058252,2.65885658 21.03198,2.92035398 20.6941748,2.92035398 Z M2.34466019,8.76106195 C2.00685496,8.76106195 1.73300971,8.49956454 1.73300971,8.17699115 C1.73300971,7.85441776 2.00685496,7.59292035 2.34466019,7.59292035 C2.68246543,7.59292035 2.95631068,7.85441776 2.95631068,8.17699115 C2.95631068,8.49956454 2.68246543,8.76106195 2.34466019,8.76106195 Z M6.4223301,8.76106195 C6.08452486,8.76106195 5.81067961,8.49956454 5.81067961,8.17699115 C5.81067961,7.85441776 6.08452486,7.59292035 6.4223301,7.59292035 C6.76013533,7.59292035 7.03398058,7.85441776 7.03398058,8.17699115 C7.03398058,8.49956454 6.76013533,8.76106195 6.4223301,8.76106195 Z M10.5,8.76106195 C10.1621948,8.76106195 9.88834951,8.49956454 9.88834951,8.17699115 C9.88834951,7.85441776 10.1621948,7.59292035 10.5,7.59292035 C10.8378052,7.59292035 11.1116505,7.85441776 11.1116505,8.17699115 C11.1116505,8.49956454 10.8378052,8.76106195 10.5,8.76106195 Z M14.5776699,8.76106195 C14.2398647,8.76106195 13.9660194,8.49956454 13.9660194,8.17699115 C13.9660194,7.85441776 14.2398647,7.59292035 14.5776699,7.59292035 C14.9154751,7.59292035 15.1893204,7.85441776 15.1893204,8.17699115 C15.1893204,8.49956454 14.9154751,8.76106195 14.5776699,8.76106195 Z M18.6553398,8.76106195 C18.3175346,8.76106195 18.0436893,8.49956454 18.0436893,8.17699115 C18.0436893,7.85441776 18.3175346,7.59292035 18.6553398,7.59292035 C18.993145,7.59292035 19.2669903,7.85441776 19.2669903,8.17699115 C19.2669903,8.49956454 18.993145,8.76106195 18.6553398,8.76106195 Z M0.305825243,6.81415929 C-0.0319799926,6.81415929 -0.305825243,6.55266189 -0.305825243,6.2300885 C-0.305825243,5.9075151 -0.0319799926,5.6460177 0.305825243,5.6460177 C0.643630478,5.6460177 0.917475728,5.9075151 0.917475728,6.2300885 C0.917475728,6.55266189 0.643630478,6.81415929 0.305825243,6.81415929 Z M4.38349515,6.81415929 C4.04568991,6.81415929 3.77184466,6.55266189 3.77184466,6.2300885 C3.77184466,5.9075151 4.04568991,5.6460177 4.38349515,5.6460177 C4.72130038,5.6460177 4.99514563,5.9075151 4.99514563,6.2300885 C4.99514563,6.55266189 4.72130038,6.81415929 4.38349515,6.81415929 Z M8.46116505,6.81415929 C8.12335981,6.81415929 7.84951456,6.55266189 7.84951456,6.2300885 C7.84951456,5.9075151 8.12335981,5.6460177 8.46116505,5.6460177 C8.79897028,5.6460177 9.07281553,5.9075151 9.07281553,6.2300885 C9.07281553,6.55266189 8.79897028,6.81415929 8.46116505,6.81415929 Z M12.538835,6.81415929 C12.2010297,6.81415929 11.9271845,6.55266189 11.9271845,6.2300885 C11.9271845,5.9075151 12.2010297,5.6460177 12.538835,5.6460177 C12.8766402,5.6460177 13.1504854,5.9075151 13.1504854,6.2300885 C13.1504854,6.55266189 12.8766402,6.81415929 12.538835,6.81415929 Z M16.6165049,6.81415929 C16.2786996,6.81415929 16.0048544,6.55266189 16.0048544,6.2300885 C16.0048544,5.9075151 16.2786996,5.6460177 16.6165049,5.6460177 C16.9543101,5.6460177 17.2281553,5.9075151 17.2281553,6.2300885 C17.2281553,6.55266189 16.9543101,6.81415929 16.6165049,6.81415929 Z M20.6941748,6.81415929 C20.3563695,6.81415929 20.0825243,6.55266189 20.0825243,6.2300885 C20.0825243,5.9075151 20.3563695,5.6460177 20.6941748,5.6460177 C21.03198,5.6460177 21.3058252,5.9075151 21.3058252,6.2300885 C21.3058252,6.55266189 21.03198,6.81415929 20.6941748,6.81415929 Z M0.305825243,10.7079646 C-0.0319799926,10.7079646 -0.305825243,10.4464672 -0.305825243,10.1238938 C-0.305825243,9.80132041 -0.0319799926,9.53982301 0.305825243,9.53982301 C0.643630478,9.53982301 0.917475728,9.80132041 0.917475728,10.1238938 C0.917475728,10.4464672 0.643630478,10.7079646 0.305825243,10.7079646 Z M4.38349515,10.7079646 C4.04568991,10.7079646 3.77184466,10.4464672 3.77184466,10.1238938 C3.77184466,9.80132041 4.04568991,9.53982301 4.38349515,9.53982301 C4.72130038,9.53982301 4.99514563,9.80132041 4.99514563,10.1238938 C4.99514563,10.4464672 4.72130038,10.7079646 4.38349515,10.7079646 Z M8.46116505,10.7079646 C8.12335981,10.7079646 7.84951456,10.4464672 7.84951456,10.1238938 C7.84951456,9.80132041 8.12335981,9.53982301 8.46116505,9.53982301 C8.79897028,9.53982301 9.07281553,9.80132041 9.07281553,10.1238938 C9.07281553,10.4464672 8.79897028,10.7079646 8.46116505,10.7079646 Z M12.538835,10.7079646 C12.2010297,10.7079646 11.9271845,10.4464672 11.9271845,10.1238938 C11.9271845,9.80132041 12.2010297,9.53982301 12.538835,9.53982301 C12.8766402,9.53982301 13.1504854,9.80132041 13.1504854,10.1238938 C13.1504854,10.4464672 12.8766402,10.7079646 12.538835,10.7079646 Z M16.6165049,10.7079646 C16.2786996,10.7079646 16.0048544,10.4464672 16.0048544,10.1238938 C16.0048544,9.80132041 16.2786996,9.53982301 16.6165049,9.53982301 C16.9543101,9.53982301 17.2281553,9.80132041 17.2281553,10.1238938 C17.2281553,10.4464672 16.9543101,10.7079646 16.6165049,10.7079646 Z M20.6941748,10.7079646 C20.3563695,10.7079646 20.0825243,10.4464672 20.0825243,10.1238938 C20.0825243,9.80132041 20.3563695,9.53982301 20.6941748,9.53982301 C21.03198,9.53982301 21.3058252,9.80132041 21.3058252,10.1238938 C21.3058252,10.4464672 21.03198,10.7079646 20.6941748,10.7079646 Z" id="Combined-Shape" stroke="none" fill="#13001E" fill-rule="nonzero" opacity="0.400000006" mask="url(#mask-7)"></path>
                        </g>
                    </g>
                    <g id="bun" stroke="none" stroke-width="1" fill="none" fill-rule="evenodd" mask="url(#mask-4)">
                        <g transform="translate(16.000000, 3.000000)">
                            <mask id="mask-10" fill="white">
                                <use xlink:href="#path-9"></use>
                            </mask>
                            <use id="Mask" stroke="none" fill="url(#linearGradient-8)" fill-rule="evenodd" transform="translate(3.002135, 2.458062) scale(-1, 1) translate(-3.002135, -2.458062) " xlink:href="#path-9"></use>
                            <path d="M1.72131148,2.5462963 C3.95081967,3.90432099 5.3442623,4.21296296 5.90163934,3.47222222 C5.98789057,3.93618385 5.59119647,5.2467679 4.96721311,5.23148148 C3.72282802,5.20099639 2.64086081,4.30593466 1.72131148,2.5462963 Z" id="Path-3" stroke="none" fill="#E0713F" fill-rule="evenodd" opacity="0.600000024" style="mix-blend-mode: multiply;" mask="url(#mask-10)"></path>
                        </g>
                    </g>
                    <path d="M17.3289066,16.4139658 C15.1627121,17.4781365 14.8467321,17.4211345 10.069102,13.4237098 C2.85971269,7.39164149 9.66577953,1.87513462 16.9759995,4.81383454 C24.8912031,8.37120813 22.2393911,14.0016276 17.3289066,16.4139658 Z" id="hair" stroke="none" fill="url(#linearGradient-11)" fill-rule="evenodd" mask="url(#mask-4)"></path>
                    <path d="M17.1661454,20.1111111 C16.4349351,21.2962963 13.1112518,21.2962963 12.3800415,20.1111111 L12.3800415,18.1358025 C12.163164,18.1421164 11.9803614,18.1421164 11.8316337,18.1358025 C9.49947407,18.0367954 8.72012644,14.320813 9.08611998,10.6037278 C9.35414823,7.88159278 11.682068,11.617284 15.4710669,9 C15.3215012,11.8641975 16.5678824,11.5679012 17.1162902,11.2222222 C19.6090526,10.0864198 19.6298835,14.7424353 17.1661454,14.382716 L17.1661454,20.1111111 Z" id="face" stroke="none" fill="url(#linearGradient-12)" fill-rule="evenodd" mask="url(#mask-4)"></path>
                    <path d="M12.5903791,18.3411241 C13.4921575,18.3059076 14.6301663,17.8419883 16.0044055,16.9493663 C15.3146167,18.2994873 14.1661381,19.0632239 12.5589695,19.2405759 L12.5903791,18.3411241 Z" id="shade" stroke="none" fill="#FFBB94" fill-rule="nonzero" mask="url(#mask-4)" transform="translate(14.281688, 18.094971) rotate(-2.000000) translate(-14.281688, -18.094971) "></path>
                    <path d="M17.5263158,19.7279215 L17.5263158,19 C17.7193722,19 18.2721476,19.4881526 18.5564124,19.9014085 C19.6802505,21.5352113 18.4336794,23 17.4170926,23 C16.1342867,23 15.2844072,21.8527861 15,21.3008112 C14.7155928,21.8527861 13.8657133,23 12.5829074,23 C11.5663206,23 10.3197495,21.5352113 11.4435876,19.9014085 C11.7278524,19.4881526 12.2806278,19 12.4736842,19 L12.4736842,19.7279215 C12.4736842,20.5896234 14.2357398,20.9884863 14.9965165,21.0253415 C15.7166376,20.9884861 17.5263158,20.5896233 17.5263158,19.7279215 Z" id="collar" stroke="none" fill="#FFF9F5" fill-rule="nonzero" mask="url(#mask-4)"></path>
                    <path d="M17.1942744,7.50067875 C18.6950026,11.391518 17.850843,13.2883022 16.6783991,15.5741703 C15.8967698,17.0980824 15.9905653,18.5733589 16.9597856,20 C15.8342394,19.2542558 15.2714664,18.0545803 15.2714664,16.4009736 C15.2714664,13.9205636 16.9597856,12.3642279 15.5528529,10.3215372 C14.1459202,8.27884661 15.6935462,3.60983945 17.1942744,7.50067875 Z" id="hair" stroke="none" fill="url(#linearGradient-13)" fill-rule="evenodd" mask="url(#mask-4)" transform="translate(16.500000, 13.000000) scale(-1, 1) translate(-16.500000, -13.000000) "></path>
                </g>
            </g>
        </g>
        <text id="Poll-creator’s-profi" font-family="SFProText-Medium, SF Pro Text" font-size="12" font-weight="400" fill="#787577">
            <tspan x="50" y="351">Poll creator’s profile name and image</tspan>
        </text>
        <text id="Poll-Options-(Select" font-family="SFProText-Medium, SF Pro Text" font-size="12" font-weight="400" fill="#787577">
            <tspan x="50" y="455">Poll Options (Select &amp; Unselected states)</tspan>
        </text>
        <text id="Notification" font-family="SFProText-Medium, SF Pro Text" font-size="12" font-weight="400" fill="#787577">
            <tspan x="50" y="639">Notification</tspan>
        </text>
        <text id="Poll-Creation" font-family="SFProText-Medium, SF Pro Text" font-size="12" font-weight="400" fill="#787577">
            <tspan x="50" y="813">Poll Creation</tspan>
        </text>
        <g id="option" transform="translate(51.000000, 836.000000)">
            <rect id="Rectangle-6" stroke="#0060FF" stroke-width="0.7" x="0.35" y="0.35" width="284.3" height="34.3" rx="3"></rect>
            <text id="Option-1" font-family="Roboto-Regular, Roboto" font-size="14" font-weight="normal" line-spacing="24" fill="#A6A5A6">
                <tspan x="9" y="21">Option 1</tspan>
            </text>
            <path d="M8.5,8.5 L8.5,24.5" id="Line-2" stroke="#006FFF" stroke-width="1.5" stroke-linecap="square"></path>
        </g>
        <text id="Poll-Responses-(Sele" font-family="SFProText-Medium, SF Pro Text" font-size="12" font-weight="400" fill="#787577">
            <tspan x="386" y="455">Poll Responses (Selected &amp; Unselected)</tspan>
        </text>
        <g id="option1" transform="translate(50.000000, 478.000000)">
            <path d="M3,0.5 C1.61928813,0.5 0.5,1.61928813 0.5,3 L0.5,32 C0.5,33.3807119 1.61928813,34.5 3,34.5 L283,34.5 C284.380712,34.5 285.5,33.3807119 285.5,32 L285.5,3 C285.5,1.61928813 284.380712,0.5 283,0.5 L3,0.5 Z" id="Rectangle-26" stroke="#026DAF" fill="#FFFFFF"></path>
            <text id="Poll-Option" font-family="SFProText-Regular, SF Pro Text" font-size="13" font-weight="normal" fill="#026DAF">
                <tspan x="109.854248" y="22">Poll Option</tspan>
            </text>
        </g>
        <g id="option1" transform="translate(50.000000, 543.000000)">
            <path d="M3,0.5 C1.61928813,0.5 0.5,1.61928813 0.5,3 L0.5,32 C0.5,33.3807119 1.61928813,34.5 3,34.5 L283,34.5 C284.380712,34.5 285.5,33.3807119 285.5,32 L285.5,3 C285.5,1.61928813 284.380712,0.5 283,0.5 L3,0.5 Z" id="Rectangle-26" stroke="#026DAF" fill="#026DAF"></path>
            <text id="Poll-Option-Selected" font-family="SFProText-Medium, SF Pro Text" font-size="13" font-weight="400" fill="#FFFFFF">
                <tspan x="79.7092285" y="22">Poll Option Selected</tspan>
            </text>
        </g>
        <g id="option1" transform="translate(387.000000, 478.000000)">
            <path d="M49.7633996,0.5 C48.3826877,0.5 47.2633996,1.61928813 47.2633996,3 L47.2633996,17 C47.2633996,18.3807119 48.3826877,19.5 49.7633996,19.5 L339,19.5 C340.380712,19.5 341.5,18.3807119 341.5,17 L341.5,3 C341.5,1.61928813 340.380712,0.5 339,0.5 L49.7633996,0.5 Z" id="Rectangle-26" stroke="#E8E8E8" fill="#FFFFFF"></path>
            <path d="M49.3318182,1 L122.687879,1 L122.687879,19 L49.3318182,19 C48.2272487,19 47.3318182,18.1045695 47.3318182,17 L47.3318182,3 C47.3318182,1.8954305 48.2272487,1 49.3318182,1 Z" id="Rectangle-28" fill="#E8E8E8"></path>
            <text id="Poll-Response-Not-Se" font-family="SFProText-Regular, SF Pro Text" font-size="13" font-weight="normal" fill="#000000">
                <tspan x="46.4345289" y="31.0930233">Poll Response Not Selected</tspan>
            </text>
            <text id="256-votes" font-family="SFProText-Regular, SF Pro Text" font-size="13" font-weight="normal" fill="#A6A5A6">
                <tspan x="280.143297" y="31.0930233">256 votes</tspan>
            </text>
            <text id="25%" font-family="SFProText-Medium, SF Pro Text" font-size="15" font-weight="400" fill="#000000">
                <tspan x="0.354181463" y="15">25%</tspan>
            </text>
        </g>
        <g id="option1" transform="translate(387.000000, 543.000000)">
            <path d="M49.7633996,0.5 C48.3826877,0.5 47.2633996,1.61928813 47.2633996,3 L47.2633996,17 C47.2633996,18.3807119 48.3826877,19.5 49.7633996,19.5 L339,19.5 C340.380712,19.5 341.5,18.3807119 341.5,17 L341.5,3 C341.5,1.61928813 340.380712,0.5 339,0.5 L49.7633996,0.5 Z" id="Rectangle-26" stroke="#026DAF" fill="#FFFFFF"></path>
            <path d="M49.3318182,1 L204.8,1 L204.8,19 L49.3318182,19 C48.2272487,19 47.3318182,18.1045695 47.3318182,17 L47.3318182,3 C47.3318182,1.8954305 48.2272487,1 49.3318182,1 Z" id="Rectangle-28" fill="#026DAF"></path>
            <text id="55%" font-family="SFProText-Medium, SF Pro Text" font-size="15" font-weight="400" fill="#000000">
                <tspan x="0" y="16">55%</tspan>
            </text>
            <text id="Poll-Response-Select" font-family="SFProText-Regular, SF Pro Text" font-size="13" font-weight="normal" fill="#000000">
                <tspan x="46.4345289" y="31.0930233">Poll Response Selected</tspan>
            </text>
            <text id="564-votes" font-family="SFProText-Regular, SF Pro Text" font-size="13" font-weight="normal" fill="#A6A5A6">
                <tspan x="279.629137" y="31.0930233">564 votes</tspan>
            </text>
        </g>
        <text id="Fonts" font-family="Roboto-Medium, Roboto" font-size="26" font-weight="400" fill="#000000">
            <tspan x="812" y="64">Fonts</tspan>
        </text>
        <text id="Iconography" font-family="Roboto-Medium, Roboto" font-size="26" font-weight="400" fill="#000000">
            <tspan x="812" y="310">Iconography</tspan>
        </text>
        <g id="overflow-button.imageset" transform="translate(832.000000, 346.000000)" fill="#A6A5A6" fill-rule="nonzero" stroke="#FFFFFF" stroke-width="0.25">
            <path d="M6.5,15.4879032 C10.1616056,15.4879032 13.125,18.3998242 13.125,22 C13.125,25.6001758 10.1616056,28.5120968 6.5,28.5120968 C2.83839436,28.5120968 -0.125,25.6001758 -0.125,22 C-0.125,18.3998242 2.83839436,15.4879032 6.5,15.4879032 Z M-0.125,6.38709677 C-0.125,2.78692101 2.83839436,-0.125 6.5,-0.125 C10.1616056,-0.125 13.125,2.78692101 13.125,6.38709677 C13.125,9.98727254 10.1616056,12.8991935 6.5,12.8991935 C2.83839436,12.8991935 -0.125,9.98727254 -0.125,6.38709677 Z M-0.125,37.6129032 C-0.125,34.0127275 2.83839436,31.1008065 6.5,31.1008065 C10.1616056,31.1008065 13.125,34.0127275 13.125,37.6129032 C13.125,41.213079 10.1616056,44.125 6.5,44.125 C2.83839436,44.125 -0.125,41.213079 -0.125,37.6129032 Z" id="shape21"></path>
        </g>
        <path d="M835.807985,462.38244 L835.807985,450.077753 C835.807985,449.583808 835.39736,449.198847 834.870485,449.198847 C834.34361,449.198847 833.932985,449.583808 833.932985,450.077753 L833.932985,462.38244 C833.932985,462.876386 834.34361,463.261347 834.870485,463.261347 C835.39736,463.261347 835.807985,462.876386 835.807985,462.38244 Z M854.316711,471.771038 C854.316711,472.717768 853.538117,473.501807 852.597961,473.501807 L841.077179,473.501807 L839.707336,486.563922 C839.654054,486.996614 839.305148,487.347961 838.875461,487.347961 L838.847961,487.347961 C838.418273,487.347961 838.069367,487.050268 837.988586,486.617576 L835.946711,473.501807 L825.097961,473.501807 C824.157804,473.501807 823.379211,472.717768 823.379211,471.771038 C823.379211,467.336807 826.708429,463.117191 830.254211,463.117191 L830.254211,449.271038 C828.373898,449.271038 826.816711,447.702961 826.816711,445.809499 C826.816711,443.916038 828.373898,442.347961 830.254211,442.347961 L847.441711,442.347961 C849.322023,442.347961 850.879211,443.916038 850.879211,445.809499 C850.879211,447.702961 849.322023,449.271038 847.441711,449.271038 L847.441711,463.117191 C850.987492,463.117191 854.316711,467.336807 854.316711,471.771038 Z" id="Shape" fill="#D3484D" fill-rule="nonzero" transform="translate(838.847961, 464.847961) rotate(45.000000) translate(-838.847961, -464.847961) "></path>
        <text id="SF-Pro-Text-Medium," font-family="SFProText-Medium, SF Pro Text" font-size="12" font-weight="400" fill="#787577">
            <tspan x="812" y="213">SF Pro Text Medium, 15 pt, #000000</tspan>
        </text>
        <text id="SF-Pro-Text-Medium," font-family="SFProText-Medium, SF Pro Text" font-size="12" font-weight="400" fill="#787577">
            <tspan x="1080" y="137">SF Pro Text Medium, 13 pt, #000000</tspan>
        </text>
        <text id="SF-Pro-Text-Semibold" font-family="SFProText-Medium, SF Pro Text" font-size="12" font-weight="400" fill="#787577">
            <tspan x="812" y="141">SF Pro Text Semibold, 17 pt, #000000</tspan>
        </text>
        <text id="SF-Pro-Text-Regular," font-family="SFProText-Medium, SF Pro Text" font-size="12" font-weight="400" fill="#787577">
            <tspan x="1080" y="207">SF Pro Text Regular, 13 pt, #026DAF</tspan>
        </text>
        <text id="#026DAF" font-family="Roboto-Regular, Roboto" font-size="16" font-weight="normal" fill="#787577">
            <tspan x="56.7109375" y="207">#026DAF</tspan>
        </text>
        <text id="#000000" font-family="Roboto-Regular, Roboto" font-size="16" font-weight="normal" fill="#787577">
            <tspan x="196.121094" y="207">#000000</tspan>
        </text>
        <text id="#A6A5A6" font-family="Roboto-Regular, Roboto" font-size="16" font-weight="normal" fill="#787577">
            <tspan x="331.941406" y="207">#A6A5A6</tspan>
        </text>
        <text id="#E8E8E8" font-family="Roboto-Regular, Roboto" font-size="16" font-weight="normal" fill="#787577">
            <tspan x="471.957031" y="207">#E8E8E8</tspan>
        </text>
        <text id="Aa-Bb-Cc-Dd-Ee" font-family="SFProText-Medium, SF Pro Text" font-size="16" font-weight="400" fill="#000000">
            <tspan x="812" y="189">Aa Bb Cc Dd Ee</tspan>
        </text>
        <text id="Aa-Bb-Cc-Dd-Ee" font-family="SFProText-Medium, SF Pro Text" font-size="14" font-weight="400" fill="#000000">
            <tspan x="1080" y="113">Aa Bb Cc Dd Ee</tspan>
        </text>
        <text id="Aa-Bb-Cc-Dd-Ee-Ff" font-family="SFProText-Semibold, SF Pro Text" font-size="18" font-weight="500" fill="#000000">
            <tspan x="812" y="117">Aa Bb Cc Dd Ee Ff</tspan>
        </text>
        <text id="Aa-Bb-Cc-Dd-Ee" font-family="SFProText-Regular, SF Pro Text" font-size="14" font-weight="normal" fill="#026DAF">
            <tspan x="1080" y="183">Aa Bb Cc Dd Ee</tspan>
        </text>
        <circle id="Oval" fill="#026DAF" cx="90" cy="140" r="40"></circle>
        <circle id="Oval" fill="#000000" cx="228" cy="140" r="40"></circle>
        <circle id="Oval" fill="#A6A5A6" cx="366" cy="140" r="40"></circle>
        <circle id="Oval" fill="#F9F9F9" cx="504" cy="140" r="40"></circle>
        <g id="Notification" transform="translate(51.000000, 662.000000)">
            <g>
                <g id="Background-Unread" fill="#F9F9F9" stroke="#E9E8E9">
                    <rect id="Rectangle-2" x="-0.5" y="-0.5" width="376" height="91"></rect>
                </g>
                <g id="Post-title" transform="translate(61.000000, 33.000000)" fill="#000000" font-family="Helvetica" font-size="15" font-weight="normal" letter-spacing="-0.24" line-spacing="20">
                    <text id="Memorial-Day-Holiday">
                        <tspan x="0" y="15">Why do you use the DySi App?</tspan>
                    </text>
                </g>
                <text id="Urgent:-New-broadcas" font-family="Helvetica" font-size="13" font-weight="normal" line-spacing="18" letter-spacing="-0.0799999982" fill="#A5A6A5">
                    <tspan x="61" y="23">A new quick poll is launched</tspan>
                </text>
                <g id="Date" transform="translate(61.000000, 63.264950)" fill="#A5A6A5" font-family="Helvetica" font-size="13" font-weight="normal" letter-spacing="-0.0799999982" line-spacing="18">
                    <text id="May-1">
                        <tspan x="0" y="13">Jun 4</tspan>
                    </text>
                </g>
                <g id="CTA" transform="translate(189.000000, 63.264950)" fill="#026DAF" font-family="SFProText-Regular, SF Pro Text" font-size="13" font-weight="normal" letter-spacing="-0.0799999982" line-spacing="18">
                    <g id="Acknowledge">
                        <text>
                            <tspan x="143.460137" y="11.1666667">Vote</tspan>
                        </text>
                    </g>
                </g>
                <g id="Avatar---Stock" transform="translate(15.000000, 10.000000)">
                    <g id="User-06a" transform="translate(15.000000, 15.000000) scale(-1, 1) translate(-15.000000, -15.000000) ">
                        <mask id="mask-15" fill="white">
                            <use xlink:href="#path-14"></use>
                        </mask>
                        <circle stroke="#E8E8E8" cx="15" cy="15" r="14.5"></circle>
                        <g id="body" mask="url(#mask-15)">
                            <g transform="translate(4.000000, 20.000000)">
                                <mask id="mask-17" fill="white">
                                    <use xlink:href="#path-16"></use>
                                </mask>
                                <use id="Mask" stroke="none" fill="url(#linearGradient-5)" fill-rule="nonzero" xlink:href="#path-16"></use>
                                <path d="M2.34466019,4.86725664 C2.00685496,4.86725664 1.73300971,4.60575923 1.73300971,4.28318584 C1.73300971,3.96061245 2.00685496,3.69911504 2.34466019,3.69911504 C2.68246543,3.69911504 2.95631068,3.96061245 2.95631068,4.28318584 C2.95631068,4.60575923 2.68246543,4.86725664 2.34466019,4.86725664 Z M6.4223301,4.86725664 C6.08452486,4.86725664 5.81067961,4.60575923 5.81067961,4.28318584 C5.81067961,3.96061245 6.08452486,3.69911504 6.4223301,3.69911504 C6.76013533,3.69911504 7.03398058,3.96061245 7.03398058,4.28318584 C7.03398058,4.60575923 6.76013533,4.86725664 6.4223301,4.86725664 Z M10.5,4.86725664 C10.1621948,4.86725664 9.88834951,4.60575923 9.88834951,4.28318584 C9.88834951,3.96061245 10.1621948,3.69911504 10.5,3.69911504 C10.8378052,3.69911504 11.1116505,3.96061245 11.1116505,4.28318584 C11.1116505,4.60575923 10.8378052,4.86725664 10.5,4.86725664 Z M14.5776699,4.86725664 C14.2398647,4.86725664 13.9660194,4.60575923 13.9660194,4.28318584 C13.9660194,3.96061245 14.2398647,3.69911504 14.5776699,3.69911504 C14.9154751,3.69911504 15.1893204,3.96061245 15.1893204,4.28318584 C15.1893204,4.60575923 14.9154751,4.86725664 14.5776699,4.86725664 Z M18.6553398,4.86725664 C18.3175346,4.86725664 18.0436893,4.60575923 18.0436893,4.28318584 C18.0436893,3.96061245 18.3175346,3.69911504 18.6553398,3.69911504 C18.993145,3.69911504 19.2669903,3.96061245 19.2669903,4.28318584 C19.2669903,4.60575923 18.993145,4.86725664 18.6553398,4.86725664 Z M0.305825243,2.92035398 C-0.0319799926,2.92035398 -0.305825243,2.65885658 -0.305825243,2.33628319 C-0.305825243,2.01370979 -0.0319799926,1.75221239 0.305825243,1.75221239 C0.643630478,1.75221239 0.917475728,2.01370979 0.917475728,2.33628319 C0.917475728,2.65885658 0.643630478,2.92035398 0.305825243,2.92035398 Z M4.38349515,2.92035398 C4.04568991,2.92035398 3.77184466,2.65885658 3.77184466,2.33628319 C3.77184466,2.01370979 4.04568991,1.75221239 4.38349515,1.75221239 C4.72130038,1.75221239 4.99514563,2.01370979 4.99514563,2.33628319 C4.99514563,2.65885658 4.72130038,2.92035398 4.38349515,2.92035398 Z M16.6165049,2.92035398 C16.2786996,2.92035398 16.0048544,2.65885658 16.0048544,2.33628319 C16.0048544,2.01370979 16.2786996,1.75221239 16.6165049,1.75221239 C16.9543101,1.75221239 17.2281553,2.01370979 17.2281553,2.33628319 C17.2281553,2.65885658 16.9543101,2.92035398 16.6165049,2.92035398 Z M20.6941748,2.92035398 C20.3563695,2.92035398 20.0825243,2.65885658 20.0825243,2.33628319 C20.0825243,2.01370979 20.3563695,1.75221239 20.6941748,1.75221239 C21.03198,1.75221239 21.3058252,2.01370979 21.3058252,2.33628319 C21.3058252,2.65885658 21.03198,2.92035398 20.6941748,2.92035398 Z M2.34466019,8.76106195 C2.00685496,8.76106195 1.73300971,8.49956454 1.73300971,8.17699115 C1.73300971,7.85441776 2.00685496,7.59292035 2.34466019,7.59292035 C2.68246543,7.59292035 2.95631068,7.85441776 2.95631068,8.17699115 C2.95631068,8.49956454 2.68246543,8.76106195 2.34466019,8.76106195 Z M6.4223301,8.76106195 C6.08452486,8.76106195 5.81067961,8.49956454 5.81067961,8.17699115 C5.81067961,7.85441776 6.08452486,7.59292035 6.4223301,7.59292035 C6.76013533,7.59292035 7.03398058,7.85441776 7.03398058,8.17699115 C7.03398058,8.49956454 6.76013533,8.76106195 6.4223301,8.76106195 Z M10.5,8.76106195 C10.1621948,8.76106195 9.88834951,8.49956454 9.88834951,8.17699115 C9.88834951,7.85441776 10.1621948,7.59292035 10.5,7.59292035 C10.8378052,7.59292035 11.1116505,7.85441776 11.1116505,8.17699115 C11.1116505,8.49956454 10.8378052,8.76106195 10.5,8.76106195 Z M14.5776699,8.76106195 C14.2398647,8.76106195 13.9660194,8.49956454 13.9660194,8.17699115 C13.9660194,7.85441776 14.2398647,7.59292035 14.5776699,7.59292035 C14.9154751,7.59292035 15.1893204,7.85441776 15.1893204,8.17699115 C15.1893204,8.49956454 14.9154751,8.76106195 14.5776699,8.76106195 Z M18.6553398,8.76106195 C18.3175346,8.76106195 18.0436893,8.49956454 18.0436893,8.17699115 C18.0436893,7.85441776 18.3175346,7.59292035 18.6553398,7.59292035 C18.993145,7.59292035 19.2669903,7.85441776 19.2669903,8.17699115 C19.2669903,8.49956454 18.993145,8.76106195 18.6553398,8.76106195 Z M0.305825243,6.81415929 C-0.0319799926,6.81415929 -0.305825243,6.55266189 -0.305825243,6.2300885 C-0.305825243,5.9075151 -0.0319799926,5.6460177 0.305825243,5.6460177 C0.643630478,5.6460177 0.917475728,5.9075151 0.917475728,6.2300885 C0.917475728,6.55266189 0.643630478,6.81415929 0.305825243,6.81415929 Z M4.38349515,6.81415929 C4.04568991,6.81415929 3.77184466,6.55266189 3.77184466,6.2300885 C3.77184466,5.9075151 4.04568991,5.6460177 4.38349515,5.6460177 C4.72130038,5.6460177 4.99514563,5.9075151 4.99514563,6.2300885 C4.99514563,6.55266189 4.72130038,6.81415929 4.38349515,6.81415929 Z M8.46116505,6.81415929 C8.12335981,6.81415929 7.84951456,6.55266189 7.84951456,6.2300885 C7.84951456,5.9075151 8.12335981,5.6460177 8.46116505,5.6460177 C8.79897028,5.6460177 9.07281553,5.9075151 9.07281553,6.2300885 C9.07281553,6.55266189 8.79897028,6.81415929 8.46116505,6.81415929 Z M12.538835,6.81415929 C12.2010297,6.81415929 11.9271845,6.55266189 11.9271845,6.2300885 C11.9271845,5.9075151 12.2010297,5.6460177 12.538835,5.6460177 C12.8766402,5.6460177 13.1504854,5.9075151 13.1504854,6.2300885 C13.1504854,6.55266189 12.8766402,6.81415929 12.538835,6.81415929 Z M16.6165049,6.81415929 C16.2786996,6.81415929 16.0048544,6.55266189 16.0048544,6.2300885 C16.0048544,5.9075151 16.2786996,5.6460177 16.6165049,5.6460177 C16.9543101,5.6460177 17.2281553,5.9075151 17.2281553,6.2300885 C17.2281553,6.55266189 16.9543101,6.81415929 16.6165049,6.81415929 Z M20.6941748,6.81415929 C20.3563695,6.81415929 20.0825243,6.55266189 20.0825243,6.2300885 C20.0825243,5.9075151 20.3563695,5.6460177 20.6941748,5.6460177 C21.03198,5.6460177 21.3058252,5.9075151 21.3058252,6.2300885 C21.3058252,6.55266189 21.03198,6.81415929 20.6941748,6.81415929 Z M0.305825243,10.7079646 C-0.0319799926,10.7079646 -0.305825243,10.4464672 -0.305825243,10.1238938 C-0.305825243,9.80132041 -0.0319799926,9.53982301 0.305825243,9.53982301 C0.643630478,9.53982301 0.917475728,9.80132041 0.917475728,10.1238938 C0.917475728,10.4464672 0.643630478,10.7079646 0.305825243,10.7079646 Z M4.38349515,10.7079646 C4.04568991,10.7079646 3.77184466,10.4464672 3.77184466,10.1238938 C3.77184466,9.80132041 4.04568991,9.53982301 4.38349515,9.53982301 C4.72130038,9.53982301 4.99514563,9.80132041 4.99514563,10.1238938 C4.99514563,10.4464672 4.72130038,10.7079646 4.38349515,10.7079646 Z M8.46116505,10.7079646 C8.12335981,10.7079646 7.84951456,10.4464672 7.84951456,10.1238938 C7.84951456,9.80132041 8.12335981,9.53982301 8.46116505,9.53982301 C8.79897028,9.53982301 9.07281553,9.80132041 9.07281553,10.1238938 C9.07281553,10.4464672 8.79897028,10.7079646 8.46116505,10.7079646 Z M12.538835,10.7079646 C12.2010297,10.7079646 11.9271845,10.4464672 11.9271845,10.1238938 C11.9271845,9.80132041 12.2010297,9.53982301 12.538835,9.53982301 C12.8766402,9.53982301 13.1504854,9.80132041 13.1504854,10.1238938 C13.1504854,10.4464672 12.8766402,10.7079646 12.538835,10.7079646 Z M16.6165049,10.7079646 C16.2786996,10.7079646 16.0048544,10.4464672 16.0048544,10.1238938 C16.0048544,9.80132041 16.2786996,9.53982301 16.6165049,9.53982301 C16.9543101,9.53982301 17.2281553,9.80132041 17.2281553,10.1238938 C17.2281553,10.4464672 16.9543101,10.7079646 16.6165049,10.7079646 Z M20.6941748,10.7079646 C20.3563695,10.7079646 20.0825243,10.4464672 20.0825243,10.1238938 C20.0825243,9.80132041 20.3563695,9.53982301 20.6941748,9.53982301 C21.03198,9.53982301 21.3058252,9.80132041 21.3058252,10.1238938 C21.3058252,10.4464672 21.03198,10.7079646 20.6941748,10.7079646 Z" id="Combined-Shape" stroke="none" fill="#13001E" fill-rule="nonzero" opacity="0.400000006" mask="url(#mask-17)"></path>
                            </g>
                        </g>
                        <g id="bun" mask="url(#mask-15)">
                            <g transform="translate(16.000000, 3.000000)">
                                <mask id="mask-19" fill="white">
                                    <use xlink:href="#path-18"></use>
                                </mask>
                                <use id="Mask" stroke="none" fill="url(#linearGradient-8)" fill-rule="evenodd" transform="translate(3.002135, 2.458062) scale(-1, 1) translate(-3.002135, -2.458062) " xlink:href="#path-18"></use>
                                <path d="M1.72131148,2.5462963 C3.95081967,3.90432099 5.3442623,4.21296296 5.90163934,3.47222222 C5.98789057,3.93618385 5.59119647,5.2467679 4.96721311,5.23148148 C3.72282802,5.20099639 2.64086081,4.30593466 1.72131148,2.5462963 Z" id="Path-3" stroke="none" fill="#E0713F" fill-rule="evenodd" opacity="0.600000024" style="mix-blend-mode: multiply;" mask="url(#mask-19)"></path>
                            </g>
                        </g>
                        <path d="M17.3289066,16.4139658 C15.1627121,17.4781365 14.8467321,17.4211345 10.069102,13.4237098 C2.85971269,7.39164149 9.66577953,1.87513462 16.9759995,4.81383454 C24.8912031,8.37120813 22.2393911,14.0016276 17.3289066,16.4139658 Z" id="hair" fill="url(#linearGradient-11)" mask="url(#mask-15)"></path>
                        <path d="M17.1661454,20.1111111 C16.4349351,21.2962963 13.1112518,21.2962963 12.3800415,20.1111111 L12.3800415,18.1358025 C12.163164,18.1421164 11.9803614,18.1421164 11.8316337,18.1358025 C9.49947407,18.0367954 8.72012644,14.320813 9.08611998,10.6037278 C9.35414823,7.88159278 11.682068,11.617284 15.4710669,9 C15.3215012,11.8641975 16.5678824,11.5679012 17.1162902,11.2222222 C19.6090526,10.0864198 19.6298835,14.7424353 17.1661454,14.382716 L17.1661454,20.1111111 Z" id="face" fill="url(#linearGradient-12)" mask="url(#mask-15)"></path>
                        <path d="M12.5903791,18.3411241 C13.4921575,18.3059076 14.6301663,17.8419883 16.0044055,16.9493663 C15.3146167,18.2994873 14.1661381,19.0632239 12.5589695,19.2405759 L12.5903791,18.3411241 Z" id="shade" fill="#FFBB94" fill-rule="nonzero" mask="url(#mask-15)" transform="translate(14.281688, 18.094971) rotate(-2.000000) translate(-14.281688, -18.094971) "></path>
                        <path d="M17.5263158,19.7279215 L17.5263158,19 C17.7193722,19 18.2721476,19.4881526 18.5564124,19.9014085 C19.6802505,21.5352113 18.4336794,23 17.4170926,23 C16.1342867,23 15.2844072,21.8527861 15,21.3008112 C14.7155928,21.8527861 13.8657133,23 12.5829074,23 C11.5663206,23 10.3197495,21.5352113 11.4435876,19.9014085 C11.7278524,19.4881526 12.2806278,19 12.4736842,19 L12.4736842,19.7279215 C12.4736842,20.5896234 14.2357398,20.9884863 14.9965165,21.0253415 C15.7166376,20.9884861 17.5263158,20.5896233 17.5263158,19.7279215 Z" id="collar" fill="#FFF9F5" fill-rule="nonzero" mask="url(#mask-15)"></path>
                        <path d="M17.1942744,7.50067875 C18.6950026,11.391518 17.850843,13.2883022 16.6783991,15.5741703 C15.8967698,17.0980824 15.9905653,18.5733589 16.9597856,20 C15.8342394,19.2542558 15.2714664,18.0545803 15.2714664,16.4009736 C15.2714664,13.9205636 16.9597856,12.3642279 15.5528529,10.3215372 C14.1459202,8.27884661 15.6935462,3.60983945 17.1942744,7.50067875 Z" id="hair" fill="url(#linearGradient-13)" mask="url(#mask-15)" transform="translate(16.500000, 13.000000) scale(-1, 1) translate(-16.500000, -13.000000) "></path>
                    </g>
                </g>
            </g>
        </g>
        <g id="option-copy" transform="translate(51.000000, 891.000000)">
            <rect id="Rectangle-6" stroke="#E8E8E8" stroke-width="0.7" x="0.35" y="0.35" width="284.3" height="34.3" rx="3"></rect>
            <text id="Option-2" font-family="Roboto-Regular, Roboto" font-size="14" font-weight="normal" line-spacing="24" fill="#A6A5A6">
                <tspan x="9" y="22">Option 2</tspan>
            </text>
        </g>
        <path d="M915,381 C915,379.90625 914.09375,379 913,379 C911.875,379 911,379.90625 911,381 C911,382.125 911.875,383 913,383 C914.09375,383 915,382.125 915,381 Z M919,365.833333 L919,384.166667 C919,385.169271 918.163462,386 917.153846,386 L908.846154,386 C907.836538,386 907,385.169271 907,384.166667 L907,365.833333 C907,364.830729 907.836538,364 908.846154,364 L917.153846,364 C918.163462,364 919,364.830729 919,365.833333 Z M953,366.166667 C953,367.799479 952.485714,369.231771 951.428571,370.434896 C951.714286,371.265625 951.857143,372.010417 951.857143,372.611979 C951.914286,374.072917 951.514286,375.361979 950.628571,376.536458 C951.285714,378.684896 950.571429,381.177083 949.085714,382.580729 C949.428571,386.848958 947.114286,389.914062 942.057143,390 L941.028571,390 L938.857143,390 L938.371429,390 C935.857143,390 932.457143,389.226562 930.8,388.710938 C929.971429,388.453125 928.8,388.080729 927.342857,387.59375 C925,386.763021 923.485714,386.361979 922.828571,386.333333 C921.828571,386.304688 921,385.502604 921,384.5 L921,366.138021 C921,365.192708 921.8,364.390625 922.742857,364.304688 C923.657143,364.21875 925.942857,361.583333 927.8,359.148438 C929.085714,357.486979 930.057143,356.341146 930.685714,355.710938 C931.371429,355.023438 931.914286,353.648438 932.085714,352.932292 C932.171429,352.588542 932.285714,352.015625 932.457143,351.213542 C932.714286,349.723958 932.828571,349.122396 933.371429,347.976562 C933.914286,346.830729 934.628571,346 935.628571,346 C937.371429,346 938.8,346.458333 939.714286,347.03125 C940.6,347.632812 941.257143,348.721354 941.542857,349.494792 C941.828571,350.268229 942,351.643229 942.028571,352.216146 C942.028571,352.502604 942.028571,352.875 942.028571,353.333333 C942.028571,354.794271 941.571429,356.398438 941.228571,357.229167 C941.028571,357.658854 940.771429,358.174479 940.428571,358.833333 C940.371429,358.947917 940.285714,359.119792 940.142857,359.348958 C939.885714,359.807292 939.742857,360.122396 939.6,360.666667 L947.514286,360.666667 C950.485714,360.666667 953,363.1875 953,366.166667 Z" id="Page-1" fill="#A6A5A6"></path>
        <path d="M1045.91964,357.072415 C1047.97321,359.585525 1049,362.301715 1049,365.24637 C1049,371.135679 1044.61049,376.415749 1037.55134,379.309634 C1034.0346,380.756576 1030.18415,381.49274 1026,381.49274 C1024.79353,381.49274 1023.56138,381.416585 1022.2779,381.28966 C1018.88951,384.2597 1014.96205,386.290496 1010.46987,387.432819 C1009.62277,387.661284 1008.64732,387.864363 1007.54353,387.991288 C1006.95312,388.067443 1006.43973,387.635899 1006.31138,387.02666 C1006.26004,386.92512 1006.26004,386.82358 1006.31138,386.696655 C1006.33705,386.569731 1006.36272,386.468191 1006.36272,386.442806 C1006.33705,386.366651 1006.59375,386.011262 1006.61942,385.960492 C1006.64509,385.909722 1006.92746,385.605102 1007.00446,385.528948 C1007.23549,385.249713 1008.33929,384.082005 1008.69866,383.675846 C1009.05804,383.295072 1009.90513,382.178134 1010.31585,381.3912 C1010.72656,380.604267 1011.29129,379.309634 1011.67634,377.964232 C1006.31138,374.943422 1003,370.323361 1003,365.24637 C1003,360.854773 1005.6183,356.666256 1009.72545,353.746986 C1013.83259,350.827717 1019.76228,349 1026,349 C1034.34263,349 1041.8125,352.096964 1045.91964,357.072415 Z" id="Page-1" fill="#A6A5A6"></path>
        <polygon id="arrow-right" fill="#A6A5A6" transform="translate(930.000000, 464.000000) rotate(90.000000) translate(-930.000000, -464.000000) " points="916 446.366667 921.297297 441 944 464 921.297297 487 916 481.633333 933.405405 464"></polygon>
        <g id="cross" transform="translate(1003.000000, 441.000000)">
            <circle id="Oval" fill="#D8D8D8" cx="23" cy="23" r="23"></circle>
            <polygon fill="#A6A5A6" points="32 15.8 30.2 14 23 21.2 15.8 14 14 15.8 21.2 23 14 30.2 15.8 32 23 24.8 30.2 32 32 30.2 24.8 23"></polygon>
        </g>
        <g id="bar-chart" transform="translate(1124.500000, 464.500000) rotate(90.000000) translate(-1124.500000, -464.500000) translate(1106.000000, 447.000000)" fill="#A6A5A6" fill-rule="nonzero">
            <path d="M7.28787879,15.9090909 L7.28787879,28.6363636 L0.840909091,28.6363636 L0.840909091,15.9090909 L7.28787879,15.9090909 Z M16.9583333,3.18181818 L16.9583333,28.6363636 L10.5113636,28.6363636 L10.5113636,3.18181818 L16.9583333,3.18181818 Z M37,31.8181818 L37,35 L0.107246377,35 L0,31.8181818 L37,31.8181818 Z M26.6287879,9.54545455 L26.6287879,28.6363636 L20.1818182,28.6363636 L20.1818182,9.54545455 L26.6287879,9.54545455 Z M36.2992424,0 L36.2992424,28.6363636 L29.8522727,28.6363636 L29.8522727,0 L36.2992424,0 Z" id="Shape"></path>
        </g>
        <g id="lock" transform="translate(1105.000000, 349.000000)" fill="#A6A5A6" fill-rule="nonzero">
            <path d="M8.88888889,17.7272727 L23.1111111,17.7272727 L23.1111111,12.4090909 C23.1111111,8.50377273 19.9164444,5.31818182 16,5.31818182 C12.0835556,5.31818182 8.88888889,8.50377273 8.88888889,12.4090909 L8.88888889,17.7272727 Z M32,20.3863636 L32,36.3409091 C32,37.8087273 30.8053333,39 29.3333333,39 L2.66666667,39 C1.19466667,39 0,37.8087273 0,36.3409091 L0,20.3863636 C0,18.9185455 1.19466667,17.7272727 2.66666667,17.7272727 L3.55555556,17.7272727 L3.55555556,12.4090909 C3.55555556,5.59472727 9.16622222,0 16,0 C22.8337778,0 28.4444444,5.59472727 28.4444444,12.4090909 L28.4444444,17.7272727 L29.3333333,17.7272727 C30.8053333,17.7272727 32,18.9185455 32,20.3863636 Z" id="Shape"></path>
        </g>
    </g>
</svg>